<svg width="205" height="39" viewBox="0 0 205 39" fill="none" xmlns="http://www.w3.org/2000/svg">
<path d="M17.244 2.61451C15.3291 1.55864 11.9134 2.76535 10.3607 6.63686C10.2572 6.88825 10.0502 6.33518 9.89494 6.08378C7.30724 1.00557 5.5476 0.351936 3.37393 1.25696C-0.0935853 2.76534 -1.64621 6.13406 2.44236 10.9106C4.202 12.9721 5.34059 13.9274 6.94496 15.0838C7.61777 15.5866 8.29057 15.7877 8.39408 15.6369C8.49758 15.4357 7.98004 14.9832 7.30724 14.1788C6.32392 13.0223 6.1169 12.3184 5.18533 10.9609C3.32218 8.29607 3.5292 6.5363 4.46077 5.83239C5.49585 5.02792 7.20373 4.47484 8.91162 7.59216C9.58442 8.84915 9.89494 9.35194 10.309 8.99999C10.723 8.69831 12.3274 6.2849 13.466 6.33518C17.244 6.43574 14.294 10.4581 13.88 11.162C13.466 11.8659 13.9318 11.6145 14.3975 11.162C15.1739 10.5084 15.7431 10.0056 16.5712 8.99999C19.2624 5.78211 19.0037 3.67037 17.244 2.61451Z" fill="#174860"/>
<path d="M17.6063 2.86591C15.7432 1.50837 13.2072 2.51396 11.1371 6.13407C10.9818 6.38547 10.93 6.38547 10.8265 6.13407C8.91163 0.754178 6.53095 -0.0502914 3.73623 1.15641C1.45905 2.162 -0.818126 5.0782 2.7529 9.90502C4.25377 11.9665 5.70288 13.3743 7.15199 14.7318C9.01514 16.4916 8.54935 15.3352 7.61778 13.9274C6.78972 12.6704 6.32393 11.8156 5.54762 10.3575C4.04675 7.49161 4.51254 5.73183 5.49587 5.12848C6.47919 4.52513 7.98006 4.57541 9.37742 7.49161C9.68794 8.19552 9.99846 8.99999 10.2572 9.05027C10.4643 9.10055 10.8783 8.54748 12.4827 6.98882C13.4142 6.08379 14.7598 5.93295 15.2774 6.28491C16.0537 6.83798 16.3642 7.79329 14.9669 9.75418C14.8116 9.9553 14.4493 10.5084 13.9835 11.0614C13.466 11.7151 13.6212 11.8156 14.1905 11.4637C15.0186 10.9106 16.0019 10.2067 16.9335 9.35195C19.987 6.48603 19.3142 4.07262 17.6063 2.86591Z" fill="#FF0012"/>
<path d="M103.57 0.955292H32.6667V2.21228H103.57V0.955292Z" fill="#174860"/>
<path d="M157.808 0.955292H131.31V2.21228H157.808V0.955292Z" fill="#174860"/>
<path d="M75.312 8.09497C74.7427 8.09497 74.2252 8.54749 74.2252 9.15084C74.2252 9.15084 74.2252 17.1453 74.2252 19.9609C74.2252 20.6648 74.8462 20.9162 75.2085 20.9162C76.2436 20.9162 81.9883 20.9162 81.9883 20.9162V23.933C81.9883 24.486 81.5225 24.9386 80.9532 24.9386H80.1252C79.5559 24.9386 79.0901 24.486 79.0901 23.933V23.0782H74.2252V25.9441C74.2252 26.4972 74.691 27 75.312 27H85.1453C85.7146 27 86.2321 26.5475 86.2321 25.9441C86.2321 25.9441 86.2321 25.9441 86.2321 11.8659C86.2321 11.4637 86.7497 11.1117 87.2155 11.1117H87.2672V8.14525L75.312 8.09497ZM82.0401 17.8492C82.0401 18.4022 81.5743 18.8548 81.005 18.8548H80.1769C79.6076 18.8548 79.1418 18.4022 79.1418 17.8492V11.4637C79.1418 10.9106 79.6076 10.4581 80.1769 10.4581H81.005C81.5743 10.4581 82.0401 10.9106 82.0401 11.4637V17.8492Z" fill="#174860"/>
<path d="M103.259 18C103.259 13.4749 103.259 9.65363 103.259 9.65363C103.311 8.69833 102.742 8.09497 101.655 8.04469H89.2339V11.2626H89.2856C89.7514 11.2626 90.2689 11.6648 90.2689 12.1173C90.2689 15.8883 90.2689 18.7039 90.2689 20.8659H95.3926V12.0168C95.3926 11.162 95.8584 10.5084 96.4277 10.5084H97.2557C97.825 10.5084 98.2908 11.2123 98.2908 12.0168V20.8157H104.398V19.0056C103.932 19.0056 103.259 18.5531 103.259 18Z" fill="#174860"/>
<path d="M57.5086 18.8548C57.3016 18.8548 57.0429 18.8548 56.7323 18.8548C56.1113 18.8548 55.542 18.352 55.542 17.6983C55.542 17.6983 55.542 13.4246 55.542 10.4078C55.542 8.94972 54.7657 8.04469 52.7473 8.04469C47.2096 8.04469 32.615 8.04469 32.615 8.04469V10.4078C32.8737 10.4078 33.029 10.4078 33.236 10.4078C33.8571 10.4078 34.4264 10.9106 34.4264 11.5642V20.8157H40.5851V11.514C40.5851 10.9106 41.1026 10.3575 41.7754 10.3575C42.4482 10.3575 42.9658 10.8603 42.9658 11.514V20.8157H48.3482V11.514C48.3482 10.9106 48.8657 10.3575 49.5385 10.3575C50.2113 10.3575 50.7289 10.8603 50.7289 11.514V20.8157H57.6122V18.8548H57.5086Z" fill="#174860"/>
<path d="M72.7761 18.8548C72.155 18.8548 71.5857 18.352 71.5857 17.6983V16.9441V9.55307C71.5857 8.69832 70.9129 8.04469 70.0849 8.04469H60.3551C59.5271 8.04469 58.8542 8.69832 58.8542 9.55307V11.9665H63.9779C63.9779 11.3631 64.4954 10.8101 65.1682 10.8101H65.634C66.2551 10.8101 66.8244 11.3129 66.8244 11.9665V13.4749H58.906V19.257C58.906 20.1117 59.5788 20.7654 60.4069 20.7654H72.9313C72.9313 20.0615 72.9313 19.6592 72.9313 18.8548H72.7761ZM66.7726 18.3017C66.7726 18.5028 66.5656 18.7039 66.3586 18.7039H64.1849C63.9779 18.7039 63.7709 18.5028 63.7709 18.3017V16.1899C63.7709 15.9888 63.9779 15.7877 64.1849 15.7877H66.3586C66.5656 15.7877 66.7726 15.9888 66.7726 16.1899V18.3017Z" fill="#174860"/>
<path d="M162 23.933L154.34 13.6257L158.636 8.04469H153.719L151.96 10.3575L150.252 8.04469H145.335L149.476 13.6257L141.609 23.8324H147.405L151.856 16.8436L156.204 23.933H162Z" fill="#174860"/>
<path d="M138.193 16.0894V16.8939C138.193 17.4972 137.727 18.0503 137.106 18.0503H136.641C136.071 18.0503 135.554 17.5475 135.554 16.8939V14.8324H142.903V9.55307C142.903 8.69832 142.282 8.04469 141.505 8.04469C141.505 8.04469 136.33 8.04469 132.863 8.04469C131.051 8.04469 131.051 8.94972 131.051 10.4581C131.051 10.8101 131.051 11.9162 131.051 11.9162V19.257C131.051 20.1117 131.672 20.7654 132.448 20.7654H141.557C142.333 20.7654 142.955 20.1117 142.955 19.257V16.0391H138.193V16.0894ZM135.605 11.6648C135.605 11.1117 136.071 10.6592 136.641 10.6592H137.158C137.727 10.6592 138.193 11.1117 138.193 11.6648V12.067C138.193 12.6201 137.727 13.0726 137.158 13.0726H136.641C136.071 13.0726 135.605 12.6201 135.605 12.067V11.6648Z" fill="#174860"/>
<path d="M128.774 17.8995V11.514C128.774 11.4637 128.774 11.4637 128.774 11.4134V0.854752H123.443V19.8603C123.443 20.4134 124.013 20.8659 124.685 20.8659H130.12V18.9553H129.809C129.24 18.905 128.774 18.4525 128.774 17.8995Z" fill="#174860"/>
<path d="M110.401 0.804504H105.899V6.78775H110.401V0.804504Z" fill="#174860"/>
<path d="M110.401 18.352V12.2682V8.04472H105.899V19.8101C105.899 20.6648 106.106 20.8157 106.934 20.8157H112.523V18.8548H110.919C110.505 18.8548 110.401 18.7542 110.401 18.352Z" fill="#174860"/>
<path d="M121.27 3.82123H122.253V0.854752H116.094C115.214 0.854752 114.542 1.50838 114.542 2.36313V8.09498H112.368V9.80448H113.092C114.179 9.85476 114.593 10.3576 114.593 10.9106V26.4972H119.769V10.9106C119.82 10.0559 120.545 9.80448 121.218 9.80448H121.942V8.09498H119.769V5.32961C119.717 4.47487 120.442 3.82123 121.27 3.82123Z" fill="#174860"/>
<path d="M111.902 22.5754H87.8365V23.8324H111.902V22.5754Z" fill="#174860"/>
<path d="M72.6208 22.5754H32.6667V23.8324H72.6208V22.5754Z" fill="#174860"/>
<path d="M139.383 22.5754H122.512V23.8324H139.383V22.5754Z" fill="#174860"/>
<path d="M27.8536 9.45253C22.8852 10.9106 16.3642 15.8883 15.6914 16.5419C15.2256 16.9944 15.1739 17.1955 15.4844 17.8492C16.0019 18.8548 16.7782 20.3129 17.0888 21.1173C17.5546 22.324 17.244 22.8268 17.037 22.9777C16.8818 23.0782 16.3642 23.028 15.0704 21.5196C13.88 20.1117 12.5344 19.5587 11.8099 19.5587C11.2406 19.609 10.6713 19.7095 9.79145 20.3129C9.06689 20.8157 7.87655 21.771 5.03008 23.8827C3.73622 24.838 2.64939 24.1341 4.15026 22.6257C5.80639 20.9665 6.73796 20.2626 9.79145 17.4469C10.516 16.7933 10.516 16.5419 10.0502 15.5363C9.53268 14.5307 8.85987 13.0726 8.85987 12.1173C8.85987 11.2123 9.01514 10.7095 9.27391 10.609C9.48092 10.5084 9.73969 10.8101 10.102 11.6145C10.7748 12.9721 11.7063 14.3296 12.7932 14.3296C13.6212 14.3296 15.4326 13.2235 17.451 12.1676C18.6931 11.514 20.9186 10.5084 23.351 9.7542C25.0071 9.25141 28.5264 8.69834 29.3027 9.05029C29.5097 9.20113 28.5782 9.25141 27.8536 9.45253Z" fill="#174860"/>
<path d="M159.671 1.52588e-05C158.946 1.52588e-05 158.377 0.553088 158.377 1.257C158.377 1.96091 158.946 2.51398 159.671 2.51398C160.396 2.51398 160.965 1.96091 160.965 1.257C160.913 0.553088 160.344 1.52588e-05 159.671 1.52588e-05ZM159.671 2.21231C159.102 2.21231 158.636 1.75979 158.636 1.20672C158.636 0.653647 159.102 0.201133 159.671 0.201133C160.24 0.201133 160.706 0.653647 160.706 1.20672C160.706 1.75979 160.24 2.21231 159.671 2.21231Z" fill="#174860"/>
<path d="M159.93 1.96089L159.568 1.40782H159.412V1.96089H159.102V0.502792H159.568C159.671 0.502792 159.723 0.502792 159.826 0.502792C159.878 0.502792 159.982 0.553071 160.033 0.553071C160.085 0.603351 160.137 0.65363 160.189 0.70391C160.189 0.754189 160.189 0.854748 160.189 0.905027C160.189 1.00559 160.137 1.10614 160.085 1.15642C160.033 1.2067 159.982 1.25698 159.878 1.30726L160.292 1.91061H159.93V1.96089ZM159.516 1.15642C159.568 1.15642 159.619 1.15642 159.671 1.15642C159.723 1.15642 159.723 1.15642 159.775 1.10614L159.826 1.05586C159.826 1.00559 159.826 1.00559 159.826 0.955307C159.826 0.905027 159.826 0.905027 159.826 0.854748L159.775 0.804468C159.775 0.804468 159.723 0.804468 159.671 0.754189C159.619 0.754189 159.568 0.754189 159.516 0.754189H159.361V1.15642H159.516Z" fill="#174860"/>
<path d="M35.975 36.5015C35.4897 36.5015 35.0487 36.3942 34.652 36.1795C34.26 35.9602 33.952 35.6615 33.728 35.2835C33.5087 34.9055 33.399 34.4808 33.399 34.0095C33.399 33.5382 33.5087 33.1135 33.728 32.7355C33.952 32.3575 34.26 32.0612 34.652 31.8465C35.0487 31.6272 35.4897 31.5175 35.975 31.5175C36.4603 31.5175 36.8967 31.6248 37.284 31.8395C37.676 32.0542 37.984 32.3528 38.208 32.7355C38.432 33.1135 38.544 33.5382 38.544 34.0095C38.544 34.4808 38.432 34.9078 38.208 35.2905C37.984 35.6685 37.676 35.9648 37.284 36.1795C36.8967 36.3942 36.4603 36.5015 35.975 36.5015ZM35.975 36.0395C36.3623 36.0395 36.7123 35.9532 37.025 35.7805C37.3377 35.6032 37.5827 35.3605 37.76 35.0525C37.9373 34.7398 38.026 34.3922 38.026 34.0095C38.026 33.6268 37.9373 33.2815 37.76 32.9735C37.5827 32.6608 37.3377 32.4182 37.025 32.2455C36.7123 32.0682 36.3623 31.9795 35.975 31.9795C35.5877 31.9795 35.2353 32.0682 34.918 32.2455C34.6053 32.4182 34.358 32.6608 34.176 32.9735C33.9987 33.2815 33.91 33.6268 33.91 34.0095C33.91 34.3922 33.9987 34.7398 34.176 35.0525C34.358 35.3605 34.6053 35.6032 34.918 35.7805C35.2353 35.9532 35.5877 36.0395 35.975 36.0395ZM44.1061 34.6115C44.1061 35.1855 43.9171 35.6358 43.5391 35.9625C43.1611 36.2892 42.6268 36.4665 41.9361 36.4945V37.8175H41.4531V36.5015C40.7671 36.4735 40.2351 36.2962 39.8571 35.9695C39.4838 35.6382 39.2971 35.1855 39.2971 34.6115C39.2971 34.0422 39.4838 33.5965 39.8571 33.2745C40.2351 32.9525 40.7671 32.7775 41.4531 32.7495V31.2655H41.9361V32.7495C42.6268 32.7822 43.1611 32.9595 43.5391 33.2815C43.9171 33.6035 44.1061 34.0468 44.1061 34.6115ZM39.7871 34.6115C39.7871 35.0502 39.9271 35.3932 40.2071 35.6405C40.4918 35.8878 40.9071 36.0278 41.4531 36.0605V33.1905C40.9118 33.2185 40.4988 33.3562 40.2141 33.6035C39.9294 33.8462 39.7871 34.1822 39.7871 34.6115ZM41.9361 36.0605C42.4821 36.0325 42.8974 35.8948 43.1821 35.6475C43.4714 35.4002 43.6161 35.0548 43.6161 34.6115C43.6161 34.1775 43.4714 33.8392 43.1821 33.5965C42.8974 33.3538 42.4821 33.2185 41.9361 33.1905V36.0605ZM45.1572 32.7775H45.6542V35.7035L48.1112 32.7775H48.5522V36.4595H48.0552V33.5335L45.6052 36.4595H45.1572V32.7775ZM53.8125 36.0255V37.3835H53.3435V36.4595H49.9765V32.7775H50.4735V36.0255H52.7205V32.7775H53.2175V36.0255H53.8125ZM54.7617 32.7775H55.2587V35.7035L57.7157 32.7775H58.1567V36.4595H57.6597V33.5335L55.2097 36.4595H54.7617V32.7775ZM60.848 32.7495C61.3287 32.7495 61.6974 32.8708 61.954 33.1135C62.2107 33.3515 62.339 33.7062 62.339 34.1775V36.4595H61.863V35.8855C61.751 36.0768 61.5854 36.2262 61.366 36.3335C61.1514 36.4408 60.8947 36.4945 60.596 36.4945C60.1854 36.4945 59.8587 36.3965 59.616 36.2005C59.3734 36.0045 59.252 35.7455 59.252 35.4235C59.252 35.1108 59.364 34.8588 59.588 34.6675C59.8167 34.4762 60.1784 34.3805 60.673 34.3805H61.842V34.1565C61.842 33.8392 61.7534 33.5988 61.576 33.4355C61.3987 33.2675 61.1397 33.1835 60.799 33.1835C60.5657 33.1835 60.3417 33.2232 60.127 33.3025C59.9124 33.3772 59.728 33.4822 59.574 33.6175L59.35 33.2465C59.5367 33.0878 59.7607 32.9665 60.022 32.8825C60.2834 32.7938 60.5587 32.7495 60.848 32.7495ZM60.673 36.1025C60.953 36.1025 61.1934 36.0395 61.394 35.9135C61.5947 35.7828 61.744 35.5962 61.842 35.3535V34.7515H60.687C60.057 34.7515 59.742 34.9708 59.742 35.4095C59.742 35.6242 59.8237 35.7945 59.987 35.9205C60.1504 36.0418 60.379 36.1025 60.673 36.1025ZM66.6721 32.7775V36.4595H66.1751V33.2185H64.4111L64.3621 34.1285C64.3247 34.8938 64.2361 35.4818 64.0961 35.8925C63.9561 36.3032 63.7064 36.5085 63.3471 36.5085C63.2491 36.5085 63.1301 36.4898 62.9901 36.4525L63.0251 36.0255C63.1091 36.0442 63.1674 36.0535 63.2001 36.0535C63.3914 36.0535 63.5361 35.9648 63.6341 35.7875C63.7321 35.6102 63.7974 35.3908 63.8301 35.1295C63.8627 34.8682 63.8907 34.5228 63.9141 34.0935L63.9771 32.7775H66.6721ZM69.6669 34.0795C70.1289 34.0842 70.4789 34.1868 70.7169 34.3875C70.9596 34.5882 71.0809 34.8775 71.0809 35.2555C71.0809 35.6475 70.9503 35.9485 70.6889 36.1585C70.4323 36.3685 70.0589 36.4712 69.5689 36.4665L68.0849 36.4595V32.7775H68.5819V34.0655L69.6669 34.0795ZM69.5409 36.0885C69.8816 36.0932 70.1383 36.0255 70.3109 35.8855C70.4883 35.7408 70.5769 35.5308 70.5769 35.2555C70.5769 34.9848 70.4906 34.7842 70.3179 34.6535C70.1453 34.5228 69.8863 34.4552 69.5409 34.4505L68.5819 34.4365V36.0745L69.5409 36.0885ZM72.0293 32.7775H72.5263V34.4085H74.8433V32.7775H75.3403V36.4595H74.8433V34.8355H72.5263V36.4595H72.0293V32.7775ZM78.2999 34.0795C78.7619 34.0842 79.1142 34.1868 79.3569 34.3875C79.5996 34.5882 79.7209 34.8775 79.7209 35.2555C79.7209 35.6475 79.5902 35.9485 79.3289 36.1585C79.0676 36.3685 78.6942 36.4712 78.2089 36.4665L76.7529 36.4595V32.7775H77.2499V34.0655L78.2999 34.0795ZM80.3369 32.7775H80.8339V36.4595H80.3369V32.7775ZM78.1809 36.0885C78.5216 36.0932 78.7782 36.0255 78.9509 35.8855C79.1282 35.7408 79.2169 35.5308 79.2169 35.2555C79.2169 34.9848 79.1306 34.7842 78.9579 34.6535C78.7852 34.5228 78.5262 34.4552 78.1809 34.4505L77.2499 34.4365V36.0745L78.1809 36.0885ZM82.249 32.7775H82.746V35.7035L85.203 32.7775H85.644V36.4595H85.147V33.5335L82.697 36.4595H82.249V32.7775ZM83.922 32.2455C83.6047 32.2455 83.3527 32.1662 83.166 32.0075C82.9793 31.8488 82.8837 31.6248 82.879 31.3355H83.236C83.2407 31.5175 83.306 31.6645 83.432 31.7765C83.558 31.8838 83.7213 31.9375 83.922 31.9375C84.1227 31.9375 84.286 31.8838 84.412 31.7765C84.5427 31.6645 84.6103 31.5175 84.615 31.3355H84.972C84.9673 31.6248 84.8693 31.8488 84.678 32.0075C84.4913 32.1662 84.2393 32.2455 83.922 32.2455ZM92.4914 36.0255V37.3485H92.0224V36.4595H88.7254V37.3485H88.2564V36.0255H88.4664C88.7137 36.0115 88.8817 35.8295 88.9704 35.4795C89.059 35.1295 89.1197 34.6395 89.1524 34.0095L89.2014 32.7775H91.9174V36.0255H92.4914ZM89.6074 34.0375C89.584 34.5602 89.5397 34.9918 89.4744 35.3325C89.409 35.6685 89.2924 35.8995 89.1244 36.0255H91.4204V33.2185H89.6494L89.6074 34.0375ZM93.4599 32.7775H93.9569V35.7035L96.4139 32.7775H96.8549V36.4595H96.3579V33.5335L93.9079 36.4595H93.4599V32.7775ZM99.8193 36.4945C99.4553 36.4945 99.1286 36.4152 98.8393 36.2565C98.5546 36.0978 98.3306 35.8762 98.1673 35.5915C98.0039 35.3022 97.9223 34.9778 97.9223 34.6185C97.9223 34.2592 98.0039 33.9372 98.1673 33.6525C98.3306 33.3678 98.5546 33.1462 98.8393 32.9875C99.1286 32.8288 99.4553 32.7495 99.8193 32.7495C100.137 32.7495 100.419 32.8125 100.666 32.9385C100.918 33.0598 101.117 33.2395 101.261 33.4775L100.89 33.7295C100.769 33.5475 100.615 33.4122 100.428 33.3235C100.242 33.2302 100.039 33.1835 99.8193 33.1835C99.5533 33.1835 99.3129 33.2442 99.0983 33.3655C98.8883 33.4822 98.7226 33.6502 98.6013 33.8695C98.4846 34.0888 98.4263 34.3385 98.4263 34.6185C98.4263 34.9032 98.4846 35.1552 98.6013 35.3745C98.7226 35.5892 98.8883 35.7572 99.0983 35.8785C99.3129 35.9952 99.5533 36.0535 99.8193 36.0535C100.039 36.0535 100.242 36.0092 100.428 35.9205C100.615 35.8318 100.769 35.6965 100.89 35.5145L101.261 35.7665C101.117 36.0045 100.918 36.1865 100.666 36.3125C100.414 36.4338 100.132 36.4945 99.8193 36.4945ZM104.745 33.2185H103.352V36.4595H102.855V33.2185H101.462V32.7775H104.745V33.2185ZM107.361 32.7495C107.706 32.7495 108.019 32.8288 108.299 32.9875C108.579 33.1415 108.798 33.3608 108.957 33.6455C109.116 33.9302 109.195 34.2545 109.195 34.6185C109.195 34.9872 109.116 35.3138 108.957 35.5985C108.798 35.8832 108.579 36.1048 108.299 36.2635C108.024 36.4175 107.711 36.4945 107.361 36.4945C107.062 36.4945 106.792 36.4338 106.549 36.3125C106.311 36.1865 106.115 36.0045 105.961 35.7665V37.8175H105.464V32.7775H105.94V33.5055C106.089 33.2628 106.285 33.0762 106.528 32.9455C106.775 32.8148 107.053 32.7495 107.361 32.7495ZM107.326 36.0535C107.583 36.0535 107.816 35.9952 108.026 35.8785C108.236 35.7572 108.399 35.5868 108.516 35.3675C108.637 35.1482 108.698 34.8985 108.698 34.6185C108.698 34.3385 108.637 34.0912 108.516 33.8765C108.399 33.6572 108.236 33.4868 108.026 33.3655C107.816 33.2442 107.583 33.1835 107.326 33.1835C107.065 33.1835 106.829 33.2442 106.619 33.3655C106.414 33.4868 106.25 33.6572 106.129 33.8765C106.012 34.0912 105.954 34.3385 105.954 34.6185C105.954 34.8985 106.012 35.1482 106.129 35.3675C106.25 35.5868 106.414 35.7572 106.619 35.8785C106.829 35.9952 107.065 36.0535 107.326 36.0535ZM110.263 32.7775H110.76V35.7035L113.217 32.7775H113.658V36.4595H113.161V33.5335L110.711 36.4595H110.263V32.7775ZM116.867 32.8685C117.208 32.8685 117.511 32.9455 117.777 33.0995C118.048 33.2488 118.258 33.4612 118.407 33.7365C118.556 34.0072 118.631 34.3175 118.631 34.6675C118.631 35.0268 118.552 35.3465 118.393 35.6265C118.239 35.9018 118.022 36.1165 117.742 36.2705C117.462 36.4245 117.14 36.5015 116.776 36.5015C116.165 36.5015 115.691 36.2868 115.355 35.8575C115.019 35.4282 114.851 34.8355 114.851 34.0795C114.851 33.2908 115 32.6865 115.299 32.2665C115.602 31.8465 116.074 31.5618 116.713 31.4125L118.365 31.0345L118.449 31.4895L116.895 31.8465C116.368 31.9632 115.98 32.1708 115.733 32.4695C115.486 32.7635 115.35 33.1998 115.327 33.7785C115.476 33.4938 115.684 33.2722 115.95 33.1135C116.216 32.9502 116.522 32.8685 116.867 32.8685ZM116.79 36.0885C117.047 36.0885 117.275 36.0302 117.476 35.9135C117.681 35.7922 117.84 35.6242 117.952 35.4095C118.069 35.1948 118.127 34.9522 118.127 34.6815C118.127 34.4108 118.071 34.1728 117.959 33.9675C117.847 33.7622 117.688 33.6035 117.483 33.4915C117.282 33.3748 117.051 33.3165 116.79 33.3165C116.529 33.3165 116.295 33.3748 116.09 33.4915C115.889 33.6035 115.731 33.7622 115.614 33.9675C115.502 34.1728 115.446 34.4108 115.446 34.6815C115.446 34.9522 115.502 35.1948 115.614 35.4095C115.731 35.6242 115.892 35.7922 116.097 35.9135C116.302 36.0302 116.533 36.0885 116.79 36.0885ZM121.278 34.0795C121.74 34.0842 122.09 34.1868 122.328 34.3875C122.571 34.5882 122.692 34.8775 122.692 35.2555C122.692 35.6475 122.562 35.9485 122.3 36.1585C122.044 36.3685 121.67 36.4712 121.18 36.4665L119.696 36.4595V32.7775H120.193V34.0655L121.278 34.0795ZM121.152 36.0885C121.493 36.0932 121.75 36.0255 121.922 35.8855C122.1 35.7408 122.188 35.5308 122.188 35.2555C122.188 34.9848 122.102 34.7842 121.929 34.6535C121.757 34.5228 121.498 34.4552 121.152 34.4505L120.193 34.4365V36.0745L121.152 36.0885ZM126.805 32.7495C127.15 32.7495 127.46 32.8288 127.736 32.9875C128.016 33.1462 128.235 33.3678 128.394 33.6525C128.552 33.9372 128.632 34.2592 128.632 34.6185C128.632 34.9778 128.552 35.2998 128.394 35.5845C128.235 35.8692 128.016 36.0932 127.736 36.2565C127.46 36.4152 127.15 36.4945 126.805 36.4945C126.478 36.4945 126.182 36.4245 125.916 36.2845C125.65 36.1398 125.433 35.9415 125.265 35.6895C125.101 35.4375 125.006 35.1482 124.978 34.8215H124.138V36.4595H123.641V32.7775H124.138V34.3665H124.985C125.022 34.0492 125.122 33.7692 125.286 33.5265C125.454 33.2792 125.668 33.0878 125.93 32.9525C126.191 32.8172 126.483 32.7495 126.805 32.7495ZM126.805 36.0605C127.057 36.0605 127.283 35.9998 127.484 35.8785C127.689 35.7572 127.85 35.5868 127.967 35.3675C128.083 35.1482 128.142 34.8985 128.142 34.6185C128.142 34.3385 128.083 34.0888 127.967 33.8695C127.85 33.6502 127.689 33.4822 127.484 33.3655C127.283 33.2442 127.057 33.1835 126.805 33.1835C126.553 33.1835 126.324 33.2442 126.119 33.3655C125.918 33.4822 125.759 33.6502 125.643 33.8695C125.526 34.0888 125.468 34.3385 125.468 34.6185C125.468 34.8985 125.526 35.1482 125.643 35.3675C125.759 35.5868 125.918 35.7572 126.119 35.8785C126.324 35.9998 126.553 36.0605 126.805 36.0605ZM132.151 33.2185H130.758V36.4595H130.261V33.2185H128.868V32.7775H132.151V33.2185ZM134.217 36.4945C133.863 36.4945 133.543 36.4152 133.258 36.2565C132.974 36.0932 132.75 35.8692 132.586 35.5845C132.423 35.2998 132.341 34.9778 132.341 34.6185C132.341 34.2592 132.423 33.9372 132.586 33.6525C132.75 33.3678 132.974 33.1462 133.258 32.9875C133.543 32.8288 133.863 32.7495 134.217 32.7495C134.572 32.7495 134.892 32.8288 135.176 32.9875C135.461 33.1462 135.683 33.3678 135.841 33.6525C136.005 33.9372 136.086 34.2592 136.086 34.6185C136.086 34.9778 136.005 35.2998 135.841 35.5845C135.683 35.8692 135.461 36.0932 135.176 36.2565C134.892 36.4152 134.572 36.4945 134.217 36.4945ZM134.217 36.0535C134.479 36.0535 134.712 35.9952 134.917 35.8785C135.127 35.7572 135.291 35.5868 135.407 35.3675C135.524 35.1482 135.582 34.8985 135.582 34.6185C135.582 34.3385 135.524 34.0888 135.407 33.8695C135.291 33.6502 135.127 33.4822 134.917 33.3655C134.712 33.2442 134.479 33.1835 134.217 33.1835C133.956 33.1835 133.72 33.2442 133.51 33.3655C133.305 33.4822 133.142 33.6502 133.02 33.8695C132.904 34.0888 132.845 34.3385 132.845 34.6185C132.845 34.8985 132.904 35.1482 133.02 35.3675C133.142 35.5868 133.305 35.7572 133.51 35.8785C133.72 35.9952 133.956 36.0535 134.217 36.0535ZM139.045 32.7495C139.391 32.7495 139.703 32.8288 139.983 32.9875C140.263 33.1415 140.483 33.3608 140.641 33.6455C140.8 33.9302 140.879 34.2545 140.879 34.6185C140.879 34.9872 140.8 35.3138 140.641 35.5985C140.483 35.8832 140.263 36.1048 139.983 36.2635C139.708 36.4175 139.395 36.4945 139.045 36.4945C138.747 36.4945 138.476 36.4338 138.233 36.3125C137.995 36.1865 137.799 36.0045 137.645 35.7665V37.8175H137.148V32.7775H137.624V33.5055C137.774 33.2628 137.97 33.0762 138.212 32.9455C138.46 32.8148 138.737 32.7495 139.045 32.7495ZM139.01 36.0535C139.267 36.0535 139.5 35.9952 139.71 35.8785C139.92 35.7572 140.084 35.5868 140.2 35.3675C140.322 35.1482 140.382 34.8985 140.382 34.6185C140.382 34.3385 140.322 34.0912 140.2 33.8765C140.084 33.6572 139.92 33.4868 139.71 33.3655C139.5 33.2442 139.267 33.1835 139.01 33.1835C138.749 33.1835 138.513 33.2442 138.303 33.3655C138.098 33.4868 137.935 33.6572 137.813 33.8765C137.697 34.0912 137.638 34.3385 137.638 34.6185C137.638 34.8985 137.697 35.1482 137.813 35.3675C137.935 35.5868 138.098 35.7572 138.303 35.8785C138.513 35.9952 138.749 36.0535 139.01 36.0535ZM146.124 34.5555C146.624 34.6722 146.873 34.9732 146.873 35.4585C146.873 35.7805 146.754 36.0278 146.516 36.2005C146.278 36.3732 145.924 36.4595 145.452 36.4595H143.779V32.7775H145.403C145.823 32.7775 146.152 32.8592 146.39 33.0225C146.628 33.1858 146.747 33.4192 146.747 33.7225C146.747 33.9232 146.691 34.0958 146.579 34.2405C146.472 34.3805 146.32 34.4855 146.124 34.5555ZM144.262 34.4155H145.368C145.653 34.4155 145.87 34.3618 146.019 34.2545C146.173 34.1472 146.25 33.9908 146.25 33.7855C146.25 33.5802 146.173 33.4262 146.019 33.3235C145.87 33.2208 145.653 33.1695 145.368 33.1695H144.262V34.4155ZM145.431 36.0675C145.749 36.0675 145.987 36.0162 146.145 35.9135C146.304 35.8108 146.383 35.6498 146.383 35.4305C146.383 35.2112 146.311 35.0502 146.166 34.9475C146.022 34.8402 145.793 34.7865 145.48 34.7865H144.262V36.0675H145.431ZM153.454 36.0115V36.4595H149.989V31.5595H153.349V32.0075H150.507V33.7505H153.041V34.1915H150.507V36.0115H153.454ZM155.821 34.8215H154.981V36.4595H154.484V32.7775H154.981V34.3945H155.828L157.123 32.7775H157.662L156.213 34.5625L157.767 36.4595H157.179L155.821 34.8215ZM159.75 32.7495C160.231 32.7495 160.6 32.8708 160.856 33.1135C161.113 33.3515 161.241 33.7062 161.241 34.1775V36.4595H160.765V35.8855C160.653 36.0768 160.488 36.2262 160.268 36.3335C160.054 36.4408 159.797 36.4945 159.498 36.4945C159.088 36.4945 158.761 36.3965 158.518 36.2005C158.276 36.0045 158.154 35.7455 158.154 35.4235C158.154 35.1108 158.266 34.8588 158.49 34.6675C158.719 34.4762 159.081 34.3805 159.575 34.3805H160.744V34.1565C160.744 33.8392 160.656 33.5988 160.478 33.4355C160.301 33.2675 160.042 33.1835 159.701 33.1835C159.468 33.1835 159.244 33.2232 159.029 33.3025C158.815 33.3772 158.63 33.4822 158.476 33.6175L158.252 33.2465C158.439 33.0878 158.663 32.9665 158.924 32.8825C159.186 32.7938 159.461 32.7495 159.75 32.7495ZM159.575 36.1025C159.855 36.1025 160.096 36.0395 160.296 35.9135C160.497 35.7828 160.646 35.5962 160.744 35.3535V34.7515H159.589C158.959 34.7515 158.644 34.9708 158.644 35.4095C158.644 35.6242 158.726 35.7945 158.889 35.9205C159.053 36.0418 159.281 36.1025 159.575 36.1025ZM165.154 33.2185H163.761V36.4595H163.264V33.2185H161.871V32.7775H165.154V33.2185ZM168.922 34.7725H165.842C165.87 35.1552 166.017 35.4655 166.283 35.7035C166.549 35.9368 166.885 36.0535 167.291 36.0535C167.52 36.0535 167.73 36.0138 167.921 35.9345C168.112 35.8505 168.278 35.7292 168.418 35.5705L168.698 35.8925C168.535 36.0885 168.329 36.2378 168.082 36.3405C167.839 36.4432 167.571 36.4945 167.277 36.4945C166.899 36.4945 166.563 36.4152 166.269 36.2565C165.98 36.0932 165.753 35.8692 165.59 35.5845C165.427 35.2998 165.345 34.9778 165.345 34.6185C165.345 34.2592 165.422 33.9372 165.576 33.6525C165.735 33.3678 165.949 33.1462 166.22 32.9875C166.495 32.8288 166.803 32.7495 167.144 32.7495C167.485 32.7495 167.79 32.8288 168.061 32.9875C168.332 33.1462 168.544 33.3678 168.698 33.6525C168.852 33.9325 168.929 34.2545 168.929 34.6185L168.922 34.7725ZM167.144 33.1765C166.789 33.1765 166.491 33.2908 166.248 33.5195C166.01 33.7435 165.875 34.0375 165.842 34.4015H168.453C168.42 34.0375 168.283 33.7435 168.04 33.5195C167.802 33.2908 167.503 33.1765 167.144 33.1765ZM171.926 32.7495C172.272 32.7495 172.584 32.8288 172.864 32.9875C173.144 33.1415 173.364 33.3608 173.522 33.6455C173.681 33.9302 173.76 34.2545 173.76 34.6185C173.76 34.9872 173.681 35.3138 173.522 35.5985C173.364 35.8832 173.144 36.1048 172.864 36.2635C172.589 36.4175 172.276 36.4945 171.926 36.4945C171.628 36.4945 171.357 36.4338 171.114 36.3125C170.876 36.1865 170.68 36.0045 170.526 35.7665V37.8175H170.029V32.7775H170.505V33.5055C170.655 33.2628 170.851 33.0762 171.093 32.9455C171.341 32.8148 171.618 32.7495 171.926 32.7495ZM171.891 36.0535C172.148 36.0535 172.381 35.9952 172.591 35.8785C172.801 35.7572 172.965 35.5868 173.081 35.3675C173.203 35.1482 173.263 34.8985 173.263 34.6185C173.263 34.3385 173.203 34.0912 173.081 33.8765C172.965 33.6572 172.801 33.4868 172.591 33.3655C172.381 33.2442 172.148 33.1835 171.891 33.1835C171.63 33.1835 171.394 33.2442 171.184 33.3655C170.979 33.4868 170.816 33.6572 170.694 33.8765C170.578 34.0912 170.519 34.3385 170.519 34.6185C170.519 34.8985 170.578 35.1482 170.694 35.3675C170.816 35.5868 170.979 35.7572 171.184 35.8785C171.394 35.9952 171.63 36.0535 171.891 36.0535ZM174.828 32.7775H175.325V35.7035L177.782 32.7775H178.223V36.4595H177.726V33.5335L175.276 36.4595H174.828V32.7775ZM179.647 32.7775H180.144V34.4085H182.461V32.7775H182.958V36.4595H182.461V34.8355H180.144V36.4595H179.647V32.7775ZM186.156 32.8685C186.497 32.8685 186.8 32.9455 187.066 33.0995C187.337 33.2488 187.547 33.4612 187.696 33.7365C187.845 34.0072 187.92 34.3175 187.92 34.6675C187.92 35.0268 187.841 35.3465 187.682 35.6265C187.528 35.9018 187.311 36.1165 187.031 36.2705C186.751 36.4245 186.429 36.5015 186.065 36.5015C185.454 36.5015 184.98 36.2868 184.644 35.8575C184.308 35.4282 184.14 34.8355 184.14 34.0795C184.14 33.2908 184.289 32.6865 184.588 32.2665C184.891 31.8465 185.363 31.5618 186.002 31.4125L187.654 31.0345L187.738 31.4895L186.184 31.8465C185.657 31.9632 185.269 32.1708 185.022 32.4695C184.775 32.7635 184.639 33.1998 184.616 33.7785C184.765 33.4938 184.973 33.2722 185.239 33.1135C185.505 32.9502 185.811 32.8685 186.156 32.8685ZM186.079 36.0885C186.336 36.0885 186.564 36.0302 186.765 35.9135C186.97 35.7922 187.129 35.6242 187.241 35.4095C187.358 35.1948 187.416 34.9522 187.416 34.6815C187.416 34.4108 187.36 34.1728 187.248 33.9675C187.136 33.7622 186.977 33.6035 186.772 33.4915C186.571 33.3748 186.34 33.3165 186.079 33.3165C185.818 33.3165 185.584 33.3748 185.379 33.4915C185.178 33.6035 185.02 33.7622 184.903 33.9675C184.791 34.1728 184.735 34.4108 184.735 34.6815C184.735 34.9522 184.791 35.1948 184.903 35.4095C185.02 35.6242 185.181 35.7922 185.386 35.9135C185.591 36.0302 185.822 36.0885 186.079 36.0885ZM192.012 32.7775L190.171 36.9005C190.021 37.2458 189.849 37.4908 189.653 37.6355C189.457 37.7802 189.221 37.8525 188.946 37.8525C188.768 37.8525 188.603 37.8245 188.449 37.7685C188.295 37.7125 188.162 37.6285 188.05 37.5165L188.281 37.1455C188.467 37.3322 188.691 37.4255 188.953 37.4255C189.121 37.4255 189.263 37.3788 189.38 37.2855C189.501 37.1922 189.613 37.0335 189.716 36.8095L189.877 36.4525L188.232 32.7775H188.75L190.136 35.9065L191.522 32.7775H192.012ZM194.683 32.7495C195.028 32.7495 195.341 32.8288 195.621 32.9875C195.901 33.1415 196.12 33.3608 196.279 33.6455C196.438 33.9302 196.517 34.2545 196.517 34.6185C196.517 34.9872 196.438 35.3138 196.279 35.5985C196.12 35.8832 195.901 36.1048 195.621 36.2635C195.346 36.4175 195.033 36.4945 194.683 36.4945C194.384 36.4945 194.114 36.4338 193.871 36.3125C193.633 36.1865 193.437 36.0045 193.283 35.7665V37.8175H192.786V32.7775H193.262V33.5055C193.411 33.2628 193.607 33.0762 193.85 32.9455C194.097 32.8148 194.375 32.7495 194.683 32.7495ZM194.648 36.0535C194.905 36.0535 195.138 35.9952 195.348 35.8785C195.558 35.7572 195.721 35.5868 195.838 35.3675C195.959 35.1482 196.02 34.8985 196.02 34.6185C196.02 34.3385 195.959 34.0912 195.838 33.8765C195.721 33.6572 195.558 33.4868 195.348 33.3655C195.138 33.2442 194.905 33.1835 194.648 33.1835C194.387 33.1835 194.151 33.2442 193.941 33.3655C193.736 33.4868 193.572 33.6572 193.451 33.8765C193.334 34.0912 193.276 34.3385 193.276 34.6185C193.276 34.8985 193.334 35.1482 193.451 35.3675C193.572 35.5868 193.736 35.7572 193.941 35.8785C194.151 35.9952 194.387 36.0535 194.648 36.0535ZM200.189 33.2185H198.082V36.4595H197.585V32.7775H200.189V33.2185ZM203.956 34.7725H200.876C200.904 35.1552 201.051 35.4655 201.317 35.7035C201.583 35.9368 201.919 36.0535 202.325 36.0535C202.554 36.0535 202.764 36.0138 202.955 35.9345C203.147 35.8505 203.312 35.7292 203.452 35.5705L203.732 35.8925C203.569 36.0885 203.364 36.2378 203.116 36.3405C202.874 36.4432 202.605 36.4945 202.311 36.4945C201.933 36.4945 201.597 36.4152 201.303 36.2565C201.014 36.0932 200.788 35.8692 200.624 35.5845C200.461 35.2998 200.379 34.9778 200.379 34.6185C200.379 34.2592 200.456 33.9372 200.61 33.6525C200.769 33.3678 200.984 33.1462 201.254 32.9875C201.53 32.8288 201.838 32.7495 202.178 32.7495C202.519 32.7495 202.825 32.8288 203.095 32.9875C203.366 33.1462 203.578 33.3678 203.732 33.6525C203.886 33.9325 203.963 34.2545 203.963 34.6185L203.956 34.7725ZM202.178 33.1765C201.824 33.1765 201.525 33.2908 201.282 33.5195C201.044 33.7435 200.909 34.0375 200.876 34.4015H203.487C203.455 34.0375 203.317 33.7435 203.074 33.5195C202.836 33.2908 202.538 33.1765 202.178 33.1765Z" fill="#174860"/>
</svg>
