<svg width="110" height="111" viewBox="0 0 110 111" fill="none" xmlns="http://www.w3.org/2000/svg">
<path d="M74.6642 9.53503C73.136 8.71497 71.2553 9.18358 70.4324 10.7065C63.262 23.9446 32.3468 80.6456 26.7044 88.3776C20.2393 97.1639 16.8304 101.03 13.1864 102.084C9.5424 103.139 8.95466 105.364 12.0109 105.599C15.0672 105.95 23.4131 106.653 32.6994 90.1348C41.0453 75.3738 68.9043 25.7019 75.7221 13.6353C76.5449 12.1123 76.0747 10.3551 74.6642 9.53503Z" fill="url(#paint0_linear_18_582)"/>
<path d="M88.8875 25.4675C83.1276 34.7225 79.131 41.4001 72.1956 52.7637H78.7783C78.7783 52.7637 88.7699 35.5425 90.5332 32.7309C91.5911 30.9736 93.0017 28.2792 93.5894 27.342C93.8245 26.8734 93.7069 26.2876 93.2368 26.0533L92.0613 25.2332C91.0033 24.6475 89.4752 24.4132 88.8875 25.4675Z" fill="url(#paint1_linear_18_582)"/>
<path d="M70.1973 57.6841C70.1973 57.6841 70.6675 55.9268 61.3812 75.1395C57.0319 84.043 58.6776 92.7122 62.3216 95.0552C62.3216 95.0552 61.3812 89.9006 63.9673 82.5201C66.5533 75.1395 70.55 65.2989 74.4291 63.1902C78.3081 61.0814 87.8296 59.5585 91.5911 59.0899C91.4736 59.0899 89.7103 56.6297 70.1973 57.6841Z" fill="url(#paint2_linear_18_582)"/>
<path d="M63.262 58.1523L50.9194 59.6753L49.1562 62.9555C49.1562 62.9555 57.1495 63.4241 59.2653 63.5413C61.3812 63.6584 63.262 58.1523 63.262 58.1523Z" fill="url(#paint3_linear_18_582)"/>
<path d="M52.9177 100.913C52.9177 100.913 58.3249 100.678 60.2057 100.561C64.6725 100.21 67.0235 99.9756 67.0235 99.9756L69.492 103.373L61.1461 108.41L52.9177 100.913Z" fill="url(#paint4_linear_18_582)"/>
<path d="M0.843811 99.2725C0.843811 99.2725 4.84047 99.5068 6.95634 96.578C8.71956 94.0007 24.2359 74.2022 36.1083 53.1151C48.0982 32.1451 53.1528 23.3587 56.3266 16.9154C59.5004 10.4721 59.5004 6.0204 54.7985 6.0204C50.0966 6.0204 37.1663 6.0204 37.1663 6.0204L39.1646 3.91168C39.1646 3.91168 65.2603 3.91168 71.2553 2.50587C73.4887 2.03727 75.2519 1.33436 75.7221 0.98291V3.91168C75.7221 3.91168 72.7834 3.91168 71.0201 7.77766C69.2569 11.6436 45.7473 54.8723 41.2804 62.4871C36.8136 70.1019 22.8253 96.9295 16.2426 99.3897C14.7145 99.9754 13.3039 100.21 9.77749 100.21C6.25104 100.21 1.19648 100.21 1.19648 100.21V99.2725H0.843811Z" fill="#022E13"/>
<path d="M39.047 3.79453L38.4592 4.38029C42.4559 4.38029 50.2141 4.38029 53.7405 4.38029C55.7388 4.38029 56.9143 5.20034 57.3845 6.7233C59.2653 8.24627 58.6776 11.9951 56.3266 16.9154C53.1528 23.3587 48.0982 32.1451 36.1083 53.1151C24.1183 74.0851 8.71954 94.0007 6.95631 96.578C6.36857 97.5153 5.42818 98.101 4.60535 98.5696C5.89838 98.5696 7.30894 98.5696 8.48443 98.5696C12.0109 98.5696 13.4215 98.3353 14.9496 97.7496C21.5323 95.2894 35.5206 68.4618 39.9874 60.847C44.4542 53.2322 68.0814 10.0035 69.8446 6.13755C71.1377 3.20878 74.0764 2.38872 75.4869 2.15442V0.98291C75.1343 1.33436 73.2535 2.03727 71.0201 2.50587C65.1427 3.79453 39.047 3.79453 39.047 3.79453Z" fill="#139748"/>
<path d="M98.2913 15.158C98.2913 14.9237 97.9387 14.6894 97.7036 14.8066C95.3526 15.6266 86.1839 19.024 84.1855 20.3126C82.1872 21.6013 77.9555 27.6931 72.1956 38.1196C67.2586 46.9059 64.2023 53.1149 64.2023 53.1149L51.1545 52.7634C50.6843 52.7634 50.2141 52.9977 49.979 53.4663L47.3929 57.8009C46.8052 58.7381 47.5105 59.2067 48.2158 59.0896L61.7338 57.4495C61.7338 57.4495 50.8018 73.1477 48.3333 82.6369C45.8648 92.1261 46.5701 100.092 55.6213 100.092C65.4953 100.092 73.3711 98.5694 80.7766 94.5863C88.1822 90.6032 87.5944 90.9546 87.5944 90.9546L86.8891 89.4317C86.8891 89.4317 81.717 92.7119 76.5449 94.5863C71.3728 96.4607 64.6725 98.3351 61.1461 95.2892C57.6196 92.2433 56.3266 83.6913 61.0285 73.8506C65.7305 64.0099 69.7271 56.6294 69.7271 56.6294L101.112 54.9893C102.17 54.9893 102.876 54.1693 102.876 53.1149C102.876 52.5291 102.406 52.0605 101.818 52.0605L71.843 51.9434C71.843 51.9434 85.2435 29.5676 87.712 25.5844C90.1805 21.6013 91.356 19.2583 94.8824 17.9696L98.0562 16.7981C98.2913 16.681 98.4089 16.4467 98.4089 16.2124L98.2913 15.158Z" fill="#D5282C"/>
<path d="M61.8514 57.4498C62.5567 56.3954 62.6742 56.1611 62.6742 56.1611C62.6742 56.1611 59.3829 56.6297 52.33 57.6841C50.9194 57.9184 49.7439 58.2699 48.5684 58.9728L61.8514 57.4498Z" fill="#3D0606"/>
<path d="M81.5995 94.1181C74.5466 97.9841 65.4954 98.9213 55.6213 98.9213C49.2737 98.9213 47.1578 94.821 47.2754 89.1978C46.6876 95.5239 48.686 100.093 55.6213 100.093C65.4954 100.093 73.3711 98.5698 80.7766 94.5867C81.0117 94.3524 81.3644 94.2352 81.5995 94.1181Z" fill="#3D0606"/>
<path d="M71.843 51.9437C71.843 51.9437 85.2435 29.5679 87.712 25.5848C90.1805 21.6016 91.356 19.2586 94.8824 17.97C94.8824 17.97 91.4736 17.1499 85.9488 25.7019C83.3627 29.6851 70.0798 52.0609 70.0798 52.0609L71.843 51.9437Z" fill="#3D0606"/>
<path d="M68.7868 55.2237C68.7868 55.2237 64.555 62.8385 59.2654 73.8507C54.5634 83.6913 55.7389 91.8919 59.2654 94.0006C59.618 94.2349 59.9706 94.3521 60.3233 94.3521C57.3846 90.7204 56.6793 82.7541 60.911 73.7335C65.3779 64.3615 69.1394 57.3324 69.4921 56.6295L69.6096 56.5123L100.995 54.8722C101.7 54.8722 102.288 54.4036 102.641 53.8179L68.7868 55.2237Z" fill="#3D0606"/>
<path d="M15.0672 67.4076L12.8338 67.759C12.0109 67.8762 11.3056 67.9933 10.7179 68.1105C11.1881 67.759 11.7758 67.1733 12.246 66.7047C12.246 66.7047 12.8338 66.1189 13.4215 65.6503C14.0092 65.1817 14.7145 64.5959 14.7145 64.5959V63.7759L9.42487 64.1273V64.9474L11.6583 64.8302C12.4811 64.7131 13.0688 64.7131 13.7741 64.5959C13.3039 64.9474 12.7162 65.2988 12.1285 65.7674C12.1285 65.7674 11.5407 66.3532 10.953 66.939C10.3652 67.5247 9.7775 68.1105 9.7775 68.1105L9.89505 69.0477L15.0672 68.2276V67.4076Z" fill="black"/>
<path d="M12.9513 59.441L14.597 58.8552V58.0352C14.597 58.0352 13.304 58.5038 11.8934 58.9724C10.6004 59.441 9.18976 60.0267 9.18976 60.0267C9.18976 60.0267 9.18976 60.261 9.18976 60.4953C9.18976 60.7296 9.18976 60.9639 9.18976 60.9639C9.18976 60.9639 10.4828 61.5497 11.8934 62.0183C13.1864 62.4869 14.597 62.9555 14.597 62.9555V62.1354L12.9513 61.5497C12.9513 61.5497 12.9513 60.9639 12.9513 60.4953C12.9513 59.9096 12.9513 59.441 12.9513 59.441ZM12.4811 61.4325L10.953 60.8468C10.6003 60.7296 10.3653 60.6125 10.0126 60.4953C10.3653 60.3782 10.6003 60.261 10.953 60.1439L12.4811 59.5581C12.4811 59.5581 12.4811 60.0267 12.4811 60.4953C12.4811 60.9639 12.4811 61.4325 12.4811 61.4325Z" fill="black"/>
<path d="M14.8321 56.7465V56.0436L10.1302 55.575L10.4828 53.5835L9.89505 53.4663C9.89505 53.4663 9.89504 53.8178 9.7775 54.1692C9.7775 54.6378 9.54242 55.2236 9.54242 55.8093C9.42487 56.9808 9.42487 58.2695 9.42487 58.2695H10.0126L10.1302 56.2779L14.8321 56.7465Z" fill="black"/>
<path d="M10.0126 52.8806L15.1848 53.7007L15.3023 52.9978L10.1302 52.0605L10.0126 52.8806Z" fill="black"/>
<path d="M10.953 48.0774C10.4828 49.7175 11.1881 51.2405 12.9513 51.592C14.4794 51.8263 15.7725 51.1234 16.2427 49.6004C16.4778 48.8975 16.3602 48.1946 16.0076 47.6088C15.7725 47.0231 15.1847 46.4373 14.3619 46.203C12.8338 45.6173 11.3056 46.3202 10.953 48.0774ZM11.4232 48.1946C11.7758 46.7888 12.9513 46.5545 14.0092 46.9059C15.0672 47.2574 15.89 48.1946 15.6549 49.3661C15.3023 50.5376 14.2444 50.8891 13.0689 50.6547C12.0109 50.4204 11.0705 49.6004 11.4232 48.1946Z" fill="black"/>
<path d="M17.4181 45.383L15.3023 44.563C14.4795 44.2115 13.8917 44.0943 13.304 43.86C13.8917 43.7429 14.597 43.6257 15.3023 43.3914C15.3023 43.3914 16.1251 43.1571 16.948 43.04C17.7708 42.9228 18.5936 42.6885 18.5936 42.6885L18.9463 41.9856L14.2444 39.7598L13.8917 40.4627L15.89 41.3999C16.5953 41.7513 17.183 41.9856 17.8883 42.2199C17.3006 42.2199 16.5953 42.3371 15.89 42.4542C15.89 42.4542 15.0672 42.5714 14.2444 42.8057C13.4215 43.04 12.5987 43.2743 12.5987 43.2743L12.246 44.0943L17.1831 45.8516L17.4181 45.383Z" fill="black"/>
<path d="M19.4165 37.5338L21.1797 37.8852L21.5323 37.1823C21.5323 37.1823 20.1218 36.948 18.8287 36.7137C17.4181 36.4794 16.0076 36.2451 16.0076 36.2451L15.5374 37.0652C15.5374 37.0652 16.3602 38.1195 17.3006 39.291C18.241 40.3454 19.1814 41.3998 19.1814 41.3998L19.534 40.6969C19.534 40.6969 19.1814 40.3454 18.9463 39.9939C18.7112 39.6425 18.3585 39.291 18.3585 39.291L19.4165 37.5338ZM18.0059 38.9396L16.9479 37.6509C16.7129 37.4166 16.4777 37.1823 16.2427 36.948C16.5953 37.0652 16.8304 37.0652 17.1831 37.1823L18.8287 37.4166L18.0059 38.9396Z" fill="black"/>
<path d="M22.0025 36.3621L23.8833 33.7848L23.4131 33.4334L22.0025 35.4249L18.1234 32.7305L17.6533 33.4334L22.0025 36.3621Z" fill="black"/>
<path d="M25.529 31.7936L25.9992 31.2078L24.4711 29.802C24.5886 29.6849 24.7061 29.5677 24.9412 29.3334C25.4114 28.7477 25.7641 28.1619 25.7641 27.5762C25.7641 27.2247 25.6466 26.7561 25.2939 26.4047C24.9413 26.0532 24.5886 25.9361 24.1184 26.0532C23.6482 26.1704 23.0605 26.4047 22.5903 27.1076C22.1201 27.5762 21.885 28.0448 21.6499 28.3962L25.529 31.7936ZM22.5903 28.1619C22.7078 28.0448 22.8254 27.8105 23.0605 27.5762C23.6482 26.8733 24.3535 26.7561 24.8237 27.2247C25.4115 27.6933 25.1764 28.3962 24.5886 29.0991C24.4711 29.3334 24.236 29.4506 24.1184 29.5677L22.5903 28.1619Z" fill="black"/>
<path d="M28.7028 28.5133L29.2905 27.9276L27.7624 26.2875L28.3501 25.8189C28.9379 25.3503 29.2905 25.3503 29.9958 25.8189C30.5836 26.1703 30.9362 26.4046 31.1713 26.5218L31.759 26.0532C31.5239 25.936 31.0537 25.7017 30.466 25.2331C29.9958 24.8817 29.5256 24.7645 29.0554 24.9988C29.4081 24.4131 29.5256 23.7102 29.0554 23.2416C28.8203 22.8901 28.4677 22.7729 27.9975 22.7729C27.5273 22.7729 26.9396 23.0073 26.3518 23.7102C25.9992 24.0616 25.529 24.5302 25.2939 24.8817L28.7028 28.5133ZM25.9992 24.5302C26.1167 24.4131 26.2343 24.1788 26.5869 23.9445C27.2922 23.3587 27.88 23.2416 28.3501 23.7102C28.7028 24.1788 28.5852 24.7645 27.8799 25.3503L27.2922 25.936L25.9992 24.5302Z" fill="black"/>
<path d="M30.9362 19.727C29.5256 20.6642 29.2905 22.4215 30.3484 23.7102C31.4064 24.9988 32.817 24.9988 34.11 24.1788C35.2855 23.3587 35.7557 21.8357 34.8153 20.3128C33.8749 18.907 32.3468 18.6727 30.9362 19.727ZM31.1713 20.1956C32.3468 19.3756 33.4047 19.9613 33.9925 20.7814C34.6977 21.7186 34.6978 23.0072 33.6398 23.7102C32.6994 24.4131 31.5239 24.0616 30.8186 23.1244C30.2309 22.1872 30.1134 20.8985 31.1713 20.1956Z" fill="black"/>
<path d="M37.0487 21.9527C37.4013 21.8355 37.754 21.6012 38.2242 21.3669C39.1646 20.7812 39.8699 20.0783 40.105 19.3754C40.34 18.6725 40.34 17.9695 39.9874 17.1495C39.6348 16.4466 39.047 15.978 38.3417 15.8608C37.6364 15.7437 36.8136 15.978 35.7557 16.5637C35.1679 16.9152 34.6977 17.2666 34.2275 17.5009L37.0487 21.9527ZM35.2855 17.6181C35.403 17.5009 35.7556 17.2666 36.1083 17.0323C36.8136 16.5637 37.5189 16.4466 38.1066 16.5637C38.6944 16.6809 39.047 17.0323 39.3997 17.6181C39.7523 18.2038 39.7523 18.7896 39.5172 19.3754C39.2821 19.9611 38.9295 20.4297 38.2242 20.7812C37.9891 20.8983 37.754 21.0155 37.5189 21.1326L35.2855 17.6181Z" fill="black"/>
<path d="M39.7523 14.5722L41.0454 17.3838C41.7506 18.9068 42.8086 19.0239 43.8665 18.5553C45.042 18.0867 45.7473 17.1495 45.1595 15.6266L44.1016 12.8149L43.2788 13.1664L44.4543 16.0952C44.9244 17.1495 44.5718 17.8524 43.749 18.2039C43.0437 18.5553 42.3384 18.321 41.8682 17.2667L40.5752 14.4551L39.7523 14.5722Z" fill="black"/>
<path d="M50.8018 15.3922C50.5667 15.6265 50.0965 15.8608 49.6263 15.978C48.2158 16.3294 47.1578 15.7437 46.8052 14.5721C46.335 13.2835 47.0403 12.2291 48.5684 11.8777C49.0386 11.7605 49.5088 11.7605 49.8614 11.7605V11.0576C49.6263 11.0576 49.1562 11.0576 48.3333 11.2919C47.3929 11.5262 46.5701 11.9948 46.2174 12.6977C45.8648 13.4006 45.7473 14.1035 45.9824 14.9236C46.2175 15.7437 46.8052 16.2123 47.3929 16.4466C47.9807 16.6809 48.8035 16.798 49.6263 16.5637C50.3316 16.3294 50.8018 16.0951 51.0369 15.8608L50.8018 15.3922Z" fill="black"/>
<path d="M53.2704 15.6267L53.9757 15.5095L53.1528 10.9406L55.0336 10.5892L54.916 10.0034C54.916 10.0034 53.7406 10.2377 52.5651 10.472C51.9773 10.5892 51.3896 10.7063 50.9194 10.8235C50.4492 10.9406 50.2141 10.9406 50.2141 10.9406L50.3317 11.5264C50.3317 11.5264 50.4492 11.5264 50.6843 11.4092C50.9194 11.4092 51.1545 11.2921 51.3896 11.2921C51.8598 11.1749 52.33 11.1749 52.33 11.1749L53.2704 15.6267Z" fill="black"/>
<path d="M74.5466 102.202C73.136 102.67 72.4307 104.076 72.7833 105.716C73.2535 107.239 74.6641 107.942 76.1922 107.356C77.0151 107.122 77.6028 106.653 77.8379 105.95C78.1906 105.365 78.1906 104.545 77.8379 103.725C77.4853 103.022 77.0151 102.553 76.4274 102.202C75.9572 101.967 75.2519 101.967 74.5466 102.202ZM74.6641 102.67C75.8396 102.319 76.78 103.022 77.1326 103.959C77.6028 105.013 77.3677 106.302 76.0747 106.653C74.8992 107.122 73.8413 106.302 73.4886 105.248C73.2535 104.31 73.6062 103.139 74.6641 102.67Z" fill="black"/>
<path d="M79.9538 105.716L80.6591 105.364L79.6011 103.256L81.5994 102.201L81.3643 101.733L79.366 102.787L78.6607 101.264L80.7766 100.21L80.5415 99.7412C80.5415 99.7412 79.8362 100.093 79.2485 100.444C78.8958 100.678 78.5432 100.796 78.3081 100.913C78.073 101.03 77.8379 101.147 77.8379 101.147L79.9538 105.716Z" fill="black"/>
<path d="M83.9504 103.725L84.6557 103.373L83.4802 101.382L85.361 100.093L85.0083 99.6243L83.1276 100.796L82.1872 99.2729L84.1855 97.9842L83.8329 97.5156L81.2468 99.1557L83.9504 103.725Z" fill="black"/>
<path d="M84.8908 97.047L87.8295 101.382L88.5348 100.913L85.4785 96.6956C85.4785 96.5784 84.8908 97.047 84.8908 97.047Z" fill="black"/>
<path d="M92.4139 96.6952C92.2964 97.0467 91.9437 97.3981 91.5911 97.7496C90.4156 98.8039 89.2401 98.5696 88.4173 97.6324C87.5944 96.4609 87.8295 95.4066 88.8875 94.4694C89.2401 94.1179 89.5928 94.0008 89.9454 93.8836L89.7103 93.2979C89.4752 93.415 89.1226 93.5322 88.5348 94.0008C87.2418 95.1723 86.8891 96.6952 87.8295 97.9839C88.8874 99.3897 90.5332 99.3897 91.8262 98.2182C92.4139 97.7496 92.7666 97.1638 92.8841 96.9295L92.4139 96.6952Z" fill="black"/>
<path d="M90.1805 92.7122L93.8245 96.4611L94.4122 95.8753L90.7682 92.1265C90.7682 92.2436 90.1805 92.7122 90.1805 92.7122Z" fill="black"/>
<path d="M96.293 91.5409L97.9387 92.1267L98.5264 91.4238C98.5264 91.4238 97.1158 91.0723 95.8228 90.6037C94.5298 90.1351 93.2367 89.6665 93.2367 89.6665L92.649 90.3694C92.649 90.3694 93.2367 91.5409 93.8245 92.8296C94.4122 94.1182 95 95.4069 95 95.4069L95.5877 94.8211L94.8824 93.181C94.8824 93.181 95.235 92.8296 95.5877 92.361C95.9403 91.8924 96.293 91.5409 96.293 91.5409ZM94.5298 92.5953L93.8245 91.1895C93.7069 90.838 93.4718 90.6037 93.3543 90.3694C93.5894 90.4866 93.942 90.6037 94.2947 90.838L95.8228 91.4238C95.8228 91.4238 95.5877 91.7752 95.2351 92.1267C94.8824 92.2438 94.5298 92.5953 94.5298 92.5953Z" fill="black"/>
<path d="M99.1141 90.7205C99.2317 90.7205 101.112 87.9089 101.112 87.9089L100.642 87.5574L99.1141 89.7833L95.3526 86.9717L94.8824 87.5574L99.1141 90.7205Z" fill="black"/>
<path d="M102.641 85.4492C102.758 85.2149 102.993 84.8634 103.346 84.3948C103.934 83.4576 104.051 82.7547 103.934 82.2861C103.816 81.9346 103.581 81.5832 103.228 81.3489C102.523 80.9974 101.818 81.466 101.465 81.9346C101.583 81.2317 101.348 80.7631 100.877 80.5288C100.525 80.2945 100.172 80.4117 99.8194 80.5288C99.4668 80.7631 99.1142 81.1146 98.7615 81.7003C98.5264 82.1689 98.2913 82.6375 98.1738 82.8718L102.641 85.4492ZM98.9966 82.4032C98.9966 82.2861 99.1141 82.0518 99.2317 81.8175C99.5843 81.2317 100.055 80.8803 100.642 81.1146C101.112 81.3489 101.23 81.9346 100.76 82.6375L100.407 83.2233L98.9966 82.4032ZM100.877 83.4576L101.23 82.8718C101.7 82.1689 102.17 81.5832 102.876 81.9346C103.581 82.2861 103.463 83.1061 102.993 83.809C102.876 84.0434 102.758 84.2777 102.641 84.3948L100.877 83.4576Z" fill="black"/>
<path d="M104.992 80.9973L105.344 80.2944L103.228 79.3572L103.581 78.6543C103.816 77.9514 104.169 77.8343 104.992 77.9514C105.697 78.0686 106.167 78.0686 106.285 78.0686L106.637 77.2485C106.402 77.2485 105.814 77.2485 105.109 77.2485C104.521 77.2485 104.051 77.3657 103.816 77.7171C103.816 77.0142 103.581 76.4284 102.993 76.1941C102.641 76.077 102.17 76.077 101.935 76.3113C101.583 76.5456 101.23 77.0142 100.995 77.7171C100.76 78.1857 100.642 78.6543 100.525 79.0058L104.992 80.9973ZM100.995 78.3029C100.995 78.1857 101.112 77.9514 101.23 77.6C101.465 76.897 101.935 76.4284 102.641 76.7799C103.228 77.0142 103.346 77.6 103.111 78.42L102.758 79.1229L100.995 78.3029Z" fill="black"/>
<path d="M106.285 72.7965L108.048 72.5622C108.048 72.5622 108.165 72.3279 108.165 72.0936C108.165 71.8593 108.283 71.625 108.283 71.625C108.283 71.625 107.93 71.625 107.46 71.7421C106.872 71.8593 106.167 71.8593 105.462 71.9765C104.051 72.0936 102.641 72.2107 102.641 72.2107L102.406 73.0308C102.406 73.0308 103.463 73.8509 104.639 74.7881C105.697 75.7253 106.755 76.6625 106.755 76.6625L107.107 75.8424L105.697 74.6709L106.285 72.7965ZM105.227 74.5538L103.934 73.4994C103.699 73.2651 103.346 73.148 103.111 72.9137C103.463 72.9137 103.699 72.9137 104.169 72.9137L105.814 72.7965L105.227 74.5538Z" fill="black"/>
<path d="M108.636 70.1021L106.402 69.6335C105.579 69.3992 104.874 69.3992 104.286 69.282C104.874 69.1649 105.579 68.8134 106.285 68.5791C106.285 68.5791 106.99 68.2277 107.813 67.8762C108.518 67.5248 109.223 67.0562 109.223 67.0562L109.341 66.2361L104.169 65.5332L104.051 66.2361L106.167 66.5876C106.99 66.7047 107.578 66.8219 108.283 66.8219C107.695 67.0562 107.107 67.2905 106.52 67.6419C106.52 67.6419 105.814 67.9934 104.992 68.3448C104.286 68.6963 103.463 69.0477 103.463 69.0477L103.346 69.8678L108.518 71.0393L108.636 70.1021Z" fill="black"/>
<path d="M109.458 64.8304C109.576 64.4789 109.693 63.8932 109.693 63.3074C109.693 62.1359 109.576 61.0816 109.106 60.4958C108.636 59.91 107.93 59.5586 107.107 59.5586C106.285 59.5586 105.697 59.91 105.227 60.3786C104.756 60.8472 104.521 61.6673 104.521 62.6045C104.521 63.1903 104.521 63.6589 104.521 64.1275L109.458 64.8304ZM104.874 63.6589C104.874 63.4246 104.874 63.1903 104.874 62.8388C104.992 61.3159 105.814 60.4958 106.99 60.4958C108.4 60.4958 109.223 61.433 109.106 63.1903C109.106 63.5417 109.106 63.776 108.988 64.0103L104.874 63.6589Z" fill="black"/>
<path d="M76.8976 12.6982L77.0151 15.5099L79.3661 16.9157L76.78 17.97L76.0747 20.6645L74.3115 18.4386L71.6079 18.6729L73.136 16.3299L72.0781 13.7526L74.7817 14.4555L76.8976 12.6982Z" fill="#F8CC3E"/>
<path d="M96.9984 24.7646L96.6457 27.5763L98.644 29.4507L95.9404 29.9193L94.7649 32.4966L93.4719 30.0364L90.6508 29.8021L92.6491 27.6934L92.0613 24.9989L94.5298 26.1705L96.9984 24.7646Z" fill="#F8CC3E"/>
<path d="M103.346 35.7765L102.406 37.8852L103.581 39.9939L101.113 39.6425L99.5844 41.3997L99.1142 39.0567L96.8808 38.1195L98.9967 36.948L99.2318 34.605L100.995 36.2451L103.346 35.7765Z" fill="#F8CC3E"/>
<path d="M65.3778 107.941L62.9093 108.059L61.7338 110.167L60.7934 107.941L58.4424 107.356L60.3232 105.833L60.0881 103.49L62.0864 104.778L64.3199 103.724L63.7321 106.067L65.3778 107.941Z" fill="#F8CC3E"/>
<path d="M53.2704 103.607L51.9773 105.716L52.8002 107.941L50.5668 107.239L48.686 108.879L48.5684 106.419L46.5701 105.247L48.8035 104.31L49.2737 101.967L50.8018 103.841L53.2704 103.607Z" fill="#F8CC3E"/>
<path d="M43.0437 101.615L41.2804 103.256L41.6331 105.599L39.5172 104.427L37.2838 105.481L37.754 103.138L36.1083 101.498L38.4592 101.147L39.6347 99.0381L40.5751 101.264L43.0437 101.615Z" fill="#F8CC3E"/>
<path d="M33.2871 94.8208L31.1713 96.1094L31.0537 98.4525L29.2905 96.9295L26.9395 97.5153L27.8799 95.2894L26.4694 93.2978L28.9379 93.5321L30.466 91.6577L30.9362 94.0007L33.2871 94.8208Z" fill="#F8CC3E"/>
<path d="M20.7095 75.6078L18.5936 76.6621L18.241 79.0052L16.4777 77.2479L14.1268 77.7165L15.3023 75.6078L14.1268 73.4991L16.4777 73.8505L18.1234 72.0933L18.5936 74.5534L20.7095 75.6078Z" fill="#F8CC3E"/>
<path d="M108.283 47.9602L106.755 49.7175L107.343 52.0605L105.109 51.1233L103.111 52.412L103.228 50.069L101.465 48.546L103.699 47.9602L104.639 45.7344L105.932 47.8431L108.283 47.9602Z" fill="#F8CC3E"/>
<defs>
<linearGradient id="paint0_linear_18_582" x1="44.4913" y1="58.3456" x2="50.2354" y2="61.3215" gradientUnits="userSpaceOnUse">
<stop offset="0.2885" stop-color="#BBBDBD"/>
<stop offset="1" stop-color="#BCBCB6" stop-opacity="0"/>
</linearGradient>
<linearGradient id="paint1_linear_18_582" x1="79.9676" y1="37.9452" x2="87.1228" y2="41.5238" gradientUnits="userSpaceOnUse">
<stop offset="0.2132" stop-color="#BBBDBD"/>
<stop offset="1" stop-color="#BCBCB6" stop-opacity="0"/>
</linearGradient>
<linearGradient id="paint2_linear_18_582" x1="80.2859" y1="79.8139" x2="57.4561" y2="61.5586" gradientUnits="userSpaceOnUse">
<stop stop-color="#BCBCB6" stop-opacity="0"/>
<stop offset="0.6363" stop-color="#BBBDBD"/>
</linearGradient>
<linearGradient id="paint3_linear_18_582" x1="49.2471" y1="60.2552" x2="64.4747" y2="61.0381" gradientUnits="userSpaceOnUse">
<stop stop-color="#BCBCB6" stop-opacity="0"/>
<stop offset="0.0707269" stop-color="#BCBCB6" stop-opacity="0.0707269"/>
<stop offset="1" stop-color="#BCBCB6"/>
</linearGradient>
<linearGradient id="paint4_linear_18_582" x1="60.1595" y1="100.07" x2="63.9049" y2="108.124" gradientUnits="userSpaceOnUse">
<stop stop-color="#BCBCB6"/>
<stop offset="1" stop-color="#BCBCB6" stop-opacity="0"/>
</linearGradient>
</defs>
</svg>
