<svg width="88" height="111" viewBox="0 0 88 111" fill="none" xmlns="http://www.w3.org/2000/svg">
<path d="M87.4853 67.5081L81.8429 71.9598L86.3098 77.8174L79.6096 80.8633L82.5483 87.5409L75.3777 88.9467L76.6709 96.0929L69.3828 95.7414L68.7951 103.005L61.8597 100.896L59.5087 107.808L53.2787 104.176L49.3996 110.268L44.2275 105.231L38.9378 110.268L35.0588 104.176L28.8286 107.808L26.5953 100.896L19.5424 103.005L19.0722 95.7414L11.7841 96.0929L12.9596 88.9467L5.78921 87.5409L8.72792 80.8633L2.14525 77.8174L6.49448 71.9598L0.852173 67.5081L6.49448 62.9392L2.14525 57.0817L8.72792 54.0357L5.78921 47.3581L12.9596 45.9523L11.7841 38.8061L19.0722 39.1576L19.5424 31.8942L26.5953 34.0029L28.8286 27.091L35.0588 30.7227L38.9378 24.6309L44.2275 29.6683L49.3996 24.6309L53.2787 30.7227L59.5087 27.091L61.8597 34.0029L68.7951 31.8942L69.3828 39.1576L76.6709 38.8061L75.3777 45.9523L82.5483 47.3581L79.6096 54.0357L86.3098 57.0817L81.8429 62.9392L87.4853 67.5081Z" fill="#951C1D"/>
<path d="M14.1352 52.2783L74.0848 52.044L76.0832 48.8809L72.3216 48.0609L73.3795 41.6176L66.7969 41.969L66.3266 35.4086L60.0965 37.283L57.9807 31.074L52.3384 34.3542L48.9294 28.8481L44.2276 33.417L39.5256 28.8481L35.9992 34.3542L30.3569 31.074L28.3586 37.283L22.0109 35.4086L21.5408 41.969L14.958 41.6176L16.3686 48.178L12.6071 48.7638L14.1352 52.2783Z" fill="url(#paint0_linear_2203_1254)"/>
<path d="M34.9413 40.0946C32.4727 38.2201 28.8287 35.2914 28.8287 28.028C28.9463 20.4132 33.4131 16.4301 33.4131 11.744C33.4131 11.3926 33.178 10.5725 34.1184 11.3926C35.1763 12.3298 36.3518 13.1499 37.2922 15.0243C38.1151 16.6644 37.9975 17.4844 38.9379 15.2586C39.8783 13.0327 41.9942 9.51818 42.817 7.52661C43.9925 4.59784 44.5802 2.72342 44.8153 1.43476C45.168 -0.673952 45.9908 0.497557 46.461 1.20046C47.9891 3.19203 50.3402 6.70656 51.3981 10.3382C52.9262 15.9615 53.2789 19.5932 53.1613 20.5304C53.0438 21.4676 53.8666 20.0618 54.4543 18.8902C55.0421 17.6016 55.9824 16.0786 55.9824 16.0786C55.9824 16.0786 63.2704 26.9737 56.4526 36.2286C52.2208 41.969 41.6415 45.2492 34.9413 40.0946Z" fill="#E21E2A"/>
<path d="M35.2939 37.7515C35.2939 37.7515 32.8254 32.0111 33.7658 27.0908C34.7062 22.1705 34.4711 20.6475 34.4711 20.6475C34.4711 20.6475 38.8204 22.7562 40.1134 26.1536C40.1134 26.1536 41.524 20.6475 43.1696 18.4216C44.8153 16.1958 45.8732 12.7984 45.8732 11.3926C45.8732 11.3926 48.812 17.8359 49.0471 21.4676C49.2822 25.0992 50.34 28.4966 50.6927 28.4966C51.0453 28.4966 54.4542 26.505 54.8069 24.6306C54.8069 24.6306 57.628 29.3167 55.9824 32.8312C54.3367 36.1114 43.7574 46.4207 35.2939 37.7515Z" fill="#ED8B21"/>
<path d="M38.1151 37.4C38.1151 37.4 35.1763 33.2997 36.4694 27.325C36.4694 27.325 39.9958 28.6137 40.8187 30.2538C40.8187 30.2538 42.5819 27.325 43.2872 26.2707C43.9925 25.2163 45.4031 23.5762 45.4031 22.1704C45.4031 22.1704 48.9295 28.7309 48.5769 31.191C48.5769 31.191 51.0453 30.2538 52.4559 30.4881C52.4559 30.4881 54.3367 34.1198 50.3401 37.2829C46.2259 40.5631 40.9362 40.9146 38.1151 37.4Z" fill="#F9EB12"/>
<path d="M44.2275 99.3732C61.8858 99.3732 76.2007 85.1067 76.2007 67.5081C76.2007 49.9095 61.8858 35.6431 44.2275 35.6431C26.5693 35.6431 12.2544 49.9095 12.2544 67.5081C12.2544 85.1067 26.5693 99.3732 44.2275 99.3732Z" fill="url(#paint1_linear_2203_1254)" stroke="white" stroke-width="2.3" stroke-miterlimit="10"/>
<path d="M30.3568 79.5745L31.7673 53.9185L58.5684 55.3243L57.1577 80.9803V81.0975L30.3568 79.5745ZM30.4743 79.4574L57.0402 80.8632L58.4509 55.4414L31.8849 54.0356L30.4743 79.4574Z" fill="#231F20"/>
<path d="M27.7134 73.4364L59.5212 75.1689L59.6303 73.1804L27.8225 71.4478L27.7134 73.4364Z" fill="white"/>
<path d="M27.2 71.4681L60.299 73.271L60.408 71.2824L27.3091 69.4795L27.2 71.4681Z" fill="#BF0A30"/>
<path d="M29.7694 77.5702L57.704 79.0918L57.813 77.1032L29.8785 75.5816L29.7694 77.5702Z" fill="white"/>
<path d="M32.1933 81.4223L53.7898 82.5986L53.8988 80.6101L32.3024 79.4337L32.1933 81.4223Z" fill="white"/>
<path d="M30.4588 79.5561L57.1022 81.0073L57.2112 79.0187L30.5678 77.5675L30.4588 79.5561Z" fill="#BF0A30"/>
<path d="M35.1996 83.5026L51.1621 84.3721L51.2712 82.3835L35.3086 81.514L35.1996 83.5026Z" fill="#BF0A30"/>
<path d="M28.2314 75.4234L59.5697 77.1304L59.6788 75.1418L28.3405 73.4348L28.2314 75.4234Z" fill="#BF0A30"/>
<path d="M27.1126 69.525L60.7983 71.3599L60.9074 69.3713L27.2216 67.5364L27.1126 69.525Z" fill="white"/>
<path d="M31.284 63.7945L61.2137 65.4248L61.3228 63.4362L31.393 61.806L31.284 63.7945Z" fill="#BF0A30"/>
<path d="M58.3533 57.4556L31.71 56.0044L31.6009 57.993L58.2443 59.4442L58.3533 57.4556Z" fill="white"/>
<path d="M56.1236 53.5971L33.5881 52.3696L33.4791 54.3582L56.0146 55.5857L56.1236 53.5971Z" fill="white"/>
<path d="M31.575 57.8732L31.4659 59.8618L60.1047 61.4218L60.2138 59.4332L31.575 57.8732Z" fill="#BF0A30"/>
<path d="M31.0847 67.7872L61.0145 69.4175L61.1236 67.4289L31.1937 65.7986L31.0847 67.7872Z" fill="#BF0A30"/>
<path d="M58.4725 55.4649L31.829 54.0137L31.7199 56.0023L58.3634 57.4535L58.4725 55.4649Z" fill="#BF0A30"/>
<path d="M53.3086 51.3183L36.9939 50.4297L36.8848 52.4183L53.1996 53.3069L53.3086 51.3183Z" fill="#BF0A30"/>
<path d="M31.3927 61.8499L60.9705 63.4609L61.0795 61.4724L31.5018 59.8613L31.3927 61.8499Z" fill="white"/>
<path d="M31.1811 65.8478L61.111 67.478L61.22 65.4894L31.2902 63.8592L31.1811 65.8478Z" fill="white"/>
<path d="M41.759 68.3281L27.6532 67.6252L28.1234 59.6589L32.8254 54.0356L42.4643 54.6214L41.759 68.3281Z" fill="#002868"/>
<path d="M38.9378 55.0898L39.0554 55.4413H39.408L39.0554 55.6756L39.1729 56.027L38.9378 55.7927L38.7027 56.027L38.8202 55.6756L38.5852 55.4413H38.8202L38.9378 55.0898Z" fill="white"/>
<path d="M38.8202 58.0186L38.9378 58.37H39.1729L38.9378 58.4872L39.0554 58.8386L38.8202 58.6043L38.4676 58.8386L38.5852 58.4872L38.3501 58.2529L38.7027 58.37L38.8202 58.0186Z" fill="white"/>
<path d="M38.7028 60.8306V61.182H39.0554L38.8203 61.4163V61.7678L38.5852 61.5335L38.3501 61.6506L38.4677 61.4163L38.2325 61.182H38.5852L38.7028 60.8306Z" fill="white"/>
<path d="M38.4676 63.7593L38.5852 64.1107H38.8203L38.5852 64.345L38.7027 64.6965L38.4676 64.4622L38.2325 64.5793L38.3501 64.345L38.115 64.1107H38.3501L38.4676 63.7593Z" fill="white"/>
<path d="M38.3501 66.5708L38.4676 66.9223H38.7027L38.4676 67.1566L38.5852 67.3909L38.3501 67.2737L37.9975 67.3909L38.115 67.0394L37.8799 66.9223H38.2325L38.3501 66.5708Z" fill="white"/>
<path d="M36.5869 54.9727L36.7044 55.3241H37.057L36.7044 55.5584L36.822 55.9099L36.5869 55.6756L36.3518 55.7927L36.4693 55.5584L36.2343 55.3241H36.4693L36.5869 54.9727Z" fill="white"/>
<path d="M36.4693 57.9014L36.5869 58.1357L36.822 58.2528L36.5869 58.37L36.7044 58.7214L36.4693 58.4871L36.1167 58.7214L36.2343 58.37L35.9991 58.1357H36.3518L36.4693 57.9014Z" fill="white"/>
<path d="M36.3518 60.7134V61.0648H36.7044L36.4693 61.2991V61.6506L36.2343 61.4163L35.9992 61.5334L36.1167 61.2991L35.8816 61.0648H36.2343L36.3518 60.7134Z" fill="white"/>
<path d="M36.1166 63.6421L36.2342 63.9935H36.4693L36.2342 64.2278L36.3517 64.4621L36.1166 64.345L35.8815 64.4621L35.9991 64.1107L35.6465 63.9935H35.9991L36.1166 63.6421Z" fill="white"/>
<path d="M35.9992 66.4536L36.1167 66.8051H36.3518L36.1167 67.0394L36.2343 67.2737L35.9992 67.0394L35.6465 67.2737L35.764 66.9222L35.5289 66.8051H35.8816L35.9992 66.4536Z" fill="white"/>
<path d="M34.2359 54.8555L34.3535 55.2069H34.7061L34.3535 55.4412L34.471 55.7927L34.2359 55.5584L34.0008 55.6755L34.1183 55.4412L33.8833 55.2069H34.1183L34.2359 54.8555Z" fill="white"/>
<path d="M34.1183 57.7847L34.2359 58.019L34.471 58.1361L34.2359 58.2533L34.3535 58.6047L34.1183 58.3704L33.7657 58.6047L33.8833 58.2533L33.6482 58.019H34.0008L34.1183 57.7847Z" fill="white"/>
<path d="M34.0009 60.5962V60.9476H34.3535L34.1184 61.1819V61.4162L33.8833 61.2991L33.6482 61.4162L33.7658 61.0648L33.5306 60.9476H33.8833L34.0009 60.5962Z" fill="white"/>
<path d="M33.7657 63.5249L33.8833 63.8764H34.1183L33.8833 64.1107L34.0008 64.345L33.7657 64.2278L33.5306 64.345L33.6482 63.9935L33.2955 63.8764H33.6482L33.7657 63.5249Z" fill="white"/>
<path d="M33.6482 66.3364L33.7657 66.6879H34.0008L33.7657 66.805L33.8833 67.1565L33.6482 66.9222L33.2956 67.1565L33.4131 66.805L33.178 66.5707L33.5306 66.6879L33.6482 66.3364Z" fill="white"/>
<path d="M31.885 54.7383L32.0025 55.0897H32.2376L32.0025 55.324L32.1201 55.5583L31.885 55.4412L31.6499 55.5583L31.7674 55.324L31.4148 55.0897H31.7674L31.885 54.7383Z" fill="white"/>
<path d="M31.7674 57.5503V57.9017H32.1201L31.885 58.136L32.0025 58.4875L31.7674 58.2532L31.4148 58.4875L31.5324 58.136L31.2972 57.9017H31.6499L31.7674 57.5503Z" fill="white"/>
<path d="M31.5324 60.479L31.6499 60.8305H32.0025L31.7674 61.0648V61.2991L31.5324 61.0648L31.2973 61.2991L31.4148 60.9476L31.1797 60.7133L31.4148 60.8305L31.5324 60.479Z" fill="white"/>
<path d="M31.4147 63.4077L31.5323 63.7592H31.7674L31.5323 63.8763L31.6498 64.2278L31.4147 63.9935L31.1796 64.2278L31.2972 63.8763L30.9446 63.642L31.2972 63.7592L31.4147 63.4077Z" fill="white"/>
<path d="M31.2972 66.2192V66.5707H31.6499L31.4148 66.6878L31.5324 67.0393L31.2972 66.805L30.9446 67.0393L31.0621 66.6878L30.827 66.4535H31.1797L31.2972 66.2192Z" fill="white"/>
<path d="M32.7078 54.7383V55.0897H32.9428L32.7078 55.324L32.8253 55.6755L32.5902 55.4412L32.4727 55.6755V55.324L32.3551 55.0897H32.5902L32.7078 54.7383Z" fill="white"/>
<path d="M29.4164 57.4331V57.7846H29.7691L29.534 58.0189L29.6515 58.3703L29.2989 58.136L29.0638 58.3703L29.1814 58.0189L28.9463 57.7846H29.2989L29.4164 57.4331Z" fill="white"/>
<path d="M29.1814 60.3618L29.299 60.7133H29.6516L29.4165 60.8304V61.1819L29.1814 60.9476L28.9463 61.1819L29.0638 60.8304L28.8287 60.5961L29.0638 60.7133L29.1814 60.3618Z" fill="white"/>
<path d="M29.0638 63.2905L29.1814 63.642H29.4164L29.1814 63.7591L29.2989 64.1106L29.0638 63.8763L28.8287 64.1106L28.9463 63.7591L28.5936 63.5248L28.9463 63.642L29.0638 63.2905Z" fill="white"/>
<path d="M28.9463 66.1021V66.3363L29.2989 66.4535L29.0638 66.5707L29.1814 66.9221L28.8287 66.6878L28.5937 66.9221L28.7112 66.5707L28.4761 66.3363H28.8287L28.9463 66.1021Z" fill="white"/>
<path d="M40.1134 56.6128V56.9642H40.466L40.2309 57.1985V57.55L39.9958 57.3157L39.7608 57.4329L39.8783 57.1985L39.6432 56.9642H39.9958L40.1134 56.6128Z" fill="white"/>
<path d="M39.8783 59.5415L39.9958 59.893H40.3485L39.9958 60.1273L40.1134 60.4787L39.8783 60.2444L39.6432 60.3616L39.7607 60.1273L39.5256 59.893H39.7607L39.8783 59.5415Z" fill="white"/>
<path d="M39.7607 62.4707V62.8222H40.1134L39.8783 63.0565L39.9958 63.2908L39.6432 63.1736L39.408 63.2908L39.5256 62.9393L39.2905 62.8222H39.6432L39.7607 62.4707Z" fill="white"/>
<path d="M39.5256 65.2822L39.6431 65.6337H39.9958L39.6431 65.868L39.7607 66.2194L39.5256 65.9851L39.2905 66.2194L39.408 65.868L39.173 65.6337H39.408L39.5256 65.2822Z" fill="white"/>
<path d="M37.7625 56.4956V56.8471H38.1151L37.88 57.0814V57.3157L37.6449 57.1985L37.4098 57.3157L37.5273 56.9642L37.2922 56.8471H37.6449L37.7625 56.4956Z" fill="white"/>
<path d="M37.5273 59.4248L37.6448 59.7763H37.9975L37.6448 60.0106L37.7624 60.362L37.5273 60.1277L37.2922 60.2449L37.4098 60.0106L37.1747 59.7763H37.4098L37.5273 59.4248Z" fill="white"/>
<path d="M37.4098 62.3535V62.705H37.7624L37.5273 62.9393L37.6448 63.1736L37.2922 62.9393L37.0571 63.1736L37.1747 62.8221L36.9396 62.705H37.2922L37.4098 62.3535Z" fill="white"/>
<path d="M37.1747 65.165L37.2922 65.5165H37.6448L37.2922 65.7508L37.4098 66.1022L37.1747 65.8679L36.9395 65.9851L37.0571 65.7508L36.822 65.5165H37.0571L37.1747 65.165Z" fill="white"/>
<path d="M35.4114 56.2617V56.6132H35.764L35.5289 56.8475L35.6465 57.0818L35.2938 56.9646L35.0588 57.0818L35.1763 56.7303L34.9412 56.6132H35.2938L35.4114 56.2617Z" fill="white"/>
<path d="M35.1764 59.1904L35.2939 59.5419H35.6466L35.2939 59.7762L35.4115 60.1276L35.1764 59.8933L34.9413 60.0105L35.0588 59.7762L34.8237 59.5419H35.0588L35.1764 59.1904Z" fill="white"/>
<path d="M35.0588 62.1191V62.4706H35.4115L35.1764 62.7049L35.2939 62.9392L35.0588 62.822L34.7061 62.9392L34.8237 62.5877L34.5886 62.4706H34.9413L35.0588 62.1191Z" fill="white"/>
<path d="M34.8237 64.9307L34.9412 65.2821H35.2938L34.9412 65.5164L35.0588 65.8679L34.8237 65.6336L34.5886 65.8679L34.7061 65.5164L34.4711 65.2821H34.7061L34.8237 64.9307Z" fill="white"/>
<path d="M33.0604 56.1445V56.496H33.4131L33.178 56.6131L33.2955 56.9646L32.9428 56.7303L32.7078 56.9646L32.8253 56.6131L32.5902 56.3788H32.9428L33.0604 56.1445Z" fill="white"/>
<path d="M32.8254 59.0732L32.9429 59.4247H33.2956L32.9429 59.659L33.0605 59.8933L32.8254 59.659L32.5903 59.8933L32.7079 59.5418L32.4728 59.4247H32.7079L32.8254 59.0732Z" fill="white"/>
<path d="M32.7079 62.002V62.2363L33.0605 62.3534L32.8254 62.4706L32.9429 62.822L32.7079 62.5877L32.3552 62.822L32.4728 62.4706L32.2377 62.2363H32.5903L32.7079 62.002Z" fill="white"/>
<path d="M32.4727 64.8135L32.5903 65.1649H32.9429L32.5903 65.3992L32.7079 65.6335L32.4727 65.5164L32.2376 65.6335L32.3552 65.2821L32.1201 65.1649H32.3552L32.4727 64.8135Z" fill="white"/>
<path d="M30.7095 55.9102V56.2616H31.0621L30.827 56.4959L30.9446 56.8474L30.5919 56.6131L30.3568 56.7302L30.4744 56.4959L30.2393 56.2616H30.5919L30.7095 55.9102Z" fill="white"/>
<path d="M30.4743 58.8389L30.5919 59.1903H30.9446L30.5919 59.4246L30.7094 59.7761L30.4743 59.5418L30.2392 59.7761L30.3568 59.4246L30.1217 59.1903H30.3568L30.4743 58.8389Z" fill="white"/>
<path d="M30.3568 61.7676L30.4743 62.119H30.7094L30.4743 62.3533L30.5919 62.5876L30.3568 62.4705L30.0041 62.5876L30.1217 62.3533L29.8866 62.119H30.2392L30.3568 61.7676Z" fill="white"/>
<path d="M30.1218 64.5791L30.2393 64.9306H30.5919L30.2393 65.1649L30.3569 65.5163L30.1218 65.282L29.8867 65.5163L30.0042 65.1649L29.7692 64.9306H30.0042L30.1218 64.5791Z" fill="white"/>
<path d="M41.2888 55.207L41.4063 55.5585H41.7589L41.4063 55.7928L41.5239 56.1442L41.2888 55.9099L41.0537 56.1442L41.1712 55.7928L40.9362 55.5585H41.1712L41.2888 55.207Z" fill="white"/>
<path d="M41.1712 58.1357L41.2888 58.4872H41.5239L41.2888 58.6043L41.4063 58.9558L41.1712 58.7215L40.8186 58.9558L40.9362 58.6043L40.701 58.37L41.0537 58.4872L41.1712 58.1357Z" fill="white"/>
<path d="M41.0537 60.9478V61.2992H41.4063L41.1712 61.5335V61.885L40.9362 61.6507L40.7011 61.7678L40.8186 61.5335L40.5835 61.2992H40.9362L41.0537 60.9478Z" fill="white"/>
<path d="M40.8186 63.8765L40.9362 64.2279H41.2888L40.9362 64.4622L41.0537 64.8137L40.8186 64.5794L40.5835 64.6965L40.7011 64.4622L40.4659 64.2279H40.7011L40.8186 63.8765Z" fill="white"/>
<path d="M40.7011 66.688L40.8186 67.0394H41.0537L40.8186 67.2737L40.9362 67.6252L40.7011 67.3909L40.3484 67.508L40.4659 67.2737L40.2308 67.0394H40.5835L40.7011 66.688Z" fill="white"/>
<path d="M44.2276 84.8461C53.8358 84.8461 61.6247 77.0835 61.6247 67.5078C61.6247 57.9321 53.8358 50.1694 44.2276 50.1694C34.6194 50.1694 26.8304 57.9321 26.8304 67.5078C26.8304 77.0835 34.6194 84.8461 44.2276 84.8461Z" stroke="white" stroke-width="2" stroke-miterlimit="10"/>
<path d="M67.2672 71.8424C67.0321 71.4909 67.032 71.1395 67.032 70.788C67.1495 70.2022 67.3846 69.8508 67.7373 69.4993C68.0899 69.1479 68.7953 69.0307 69.6181 69.1479C70.441 69.1479 71.0287 69.3822 71.3814 69.8508C71.734 70.3194 71.8515 70.788 71.7339 71.4909C71.6164 71.9595 71.4988 72.311 71.2637 72.6624C71.0286 72.8967 70.6761 73.131 70.3234 73.131L70.2059 74.8883C70.7936 74.8883 71.2637 74.654 71.7339 74.3025C72.0866 74.0682 72.3218 73.7168 72.5569 73.2482C72.792 72.7796 72.9094 72.311 73.0269 71.7252C73.262 70.4365 72.9094 69.3822 72.3217 68.5621C71.7339 67.7421 70.7936 67.3906 69.6181 67.3906C68.5602 67.3906 67.6198 67.7421 66.9145 68.3278C66.2092 68.9136 65.9741 69.6165 65.739 70.5537C65.6214 71.2566 65.7389 71.9595 65.974 72.5453C66.2091 73.131 66.6794 73.5996 67.3847 74.0682L68.2075 72.6624C67.7373 72.5453 67.5023 72.1938 67.2672 71.8424Z" fill="white"/>
<path d="M65.9739 75.1226C65.5037 75.2397 65.1511 75.3569 64.7984 75.7083C64.4458 76.0598 64.0932 76.4112 63.9756 76.7627C63.623 77.4656 63.6231 78.1685 63.7406 78.7542C63.8582 79.4571 64.3283 80.0429 64.9161 80.3943C65.5038 80.7458 66.209 80.863 67.0319 80.6287C67.7372 80.3944 68.3249 79.8086 68.7951 78.9885C69.0302 78.4028 69.2653 77.9342 69.1478 77.3484C69.1478 76.7627 68.9127 76.2941 68.6776 75.9426C68.3249 75.5912 67.9723 75.3569 67.6196 75.1226C67.0319 75.1226 66.4441 75.1226 65.9739 75.1226ZM67.8548 77.5827C67.9723 77.9342 67.9722 78.2856 67.7371 78.6371C67.502 78.9885 67.267 79.2228 66.9144 79.34C66.5617 79.4571 66.0915 79.4571 65.7389 79.1057C65.2687 78.8714 65.0336 78.5199 64.9161 78.1685C64.7985 77.817 64.7985 77.4656 64.9161 77.1141C65.0336 76.7627 65.3862 76.5284 65.7389 76.4112C66.0915 76.2941 66.4442 76.2941 66.9144 76.5284C67.3845 76.8798 67.7372 77.2313 67.8548 77.5827Z" fill="white"/>
<path d="M62.2124 80.043L61.3896 81.0973L63.2703 82.6203C63.623 82.9717 63.858 83.206 63.9756 83.3232C64.0931 83.5575 64.0931 83.7918 64.0931 83.9089C64.0931 84.1432 63.9756 84.3775 63.7406 84.4947C63.623 84.6118 63.5054 84.729 63.3879 84.729C63.2703 84.729 63.1527 84.729 62.9176 84.729C62.8001 84.729 62.565 84.4947 62.2124 84.1432L60.2141 82.2688C60.2141 82.2688 59.979 82.5031 59.7439 82.7374C59.5088 82.9717 59.2737 83.206 59.2737 83.206L60.9194 84.9633C61.272 85.3148 61.5071 85.5491 61.5071 85.7834C61.6247 86.0177 61.6247 86.252 61.5071 86.4863C61.3896 86.7206 61.272 86.8377 61.1544 87.072C60.9193 87.3063 60.6842 87.4235 60.4491 87.3063C60.214 87.3063 59.979 87.072 59.7439 86.6034L57.8631 84.3775L56.8052 85.1976L58.6859 87.8921C58.921 88.2435 59.1561 88.595 59.3912 88.595C59.7438 88.7121 59.979 88.8293 60.3316 88.7121C60.6843 88.595 61.0369 88.4778 61.3896 88.1264C61.6247 87.8921 61.8598 87.6578 61.9773 87.3063C62.0949 86.9549 62.2124 86.6034 62.2124 86.252C62.565 86.3691 62.9177 86.3691 63.1528 86.252C63.5055 86.1348 63.7405 85.9005 63.9756 85.6662C64.4458 85.0805 64.7984 84.4947 64.6809 83.6746L65.2686 84.1432L66.209 82.9717L62.2124 80.043Z" fill="white"/>
<path d="M54.6893 84.4946C54.6893 84.4946 53.6313 85.1975 53.6313 85.0804L54.8068 87.3063C54.4542 87.1891 54.1016 87.072 53.8665 87.072C53.6314 87.072 53.3963 87.1891 53.1613 87.3063C52.6911 87.5406 52.2209 87.892 51.9858 88.4778C51.7507 89.0635 51.7507 89.7664 51.9858 90.5865C52.2209 91.4065 52.691 91.8751 53.2788 92.1094C53.8665 92.3437 54.5717 92.4609 55.277 92.1094C55.6297 91.8751 55.9824 91.6408 56.2175 91.4065C56.4526 91.1722 56.5702 90.8208 56.6877 90.4693L57.0403 91.1722L58.3333 90.3522L54.6893 84.4946ZM55.9823 90.3522C55.8647 90.7036 55.6297 90.9379 55.277 91.1722C54.9244 91.2894 54.5717 91.4065 54.2191 91.1722C53.8664 91.0551 53.6314 90.7036 53.3963 90.235C53.1612 89.6493 53.1612 89.2978 53.2788 88.9464C53.3963 88.5949 53.6314 88.3606 53.8665 88.2435C54.2192 88.1263 54.4542 88.1263 54.8068 88.2435C55.1595 88.3606 55.5122 88.7121 55.7473 89.1807C56.0999 89.5321 56.0998 90.0007 55.9823 90.3522Z" fill="white"/>
<path d="M48.8119 88.9466L50.2226 95.7414L51.9858 95.2728L50.1049 88.478L48.8119 88.9466Z" fill="white"/>
<path d="M46.3434 93.2809C46.2258 93.3981 45.9908 93.3981 45.6381 93.3981C45.1679 93.3981 44.9328 93.3981 44.8153 93.2809C44.6977 93.1638 44.5801 93.0466 44.5801 92.6952V92.578C44.8152 92.4609 45.403 92.3437 46.1083 92.2266C46.5785 92.1094 47.0486 91.9923 47.2837 91.758C47.5188 91.6408 47.7539 91.4065 47.8715 91.1722C47.989 90.9379 47.9891 90.7036 47.9891 90.3522C47.8715 89.8836 47.754 89.6493 47.4013 89.415C47.0487 89.1807 46.696 89.1807 46.1083 89.1807C45.7556 89.1807 45.5205 89.2978 45.2854 89.415C45.0503 89.5321 44.8152 89.7664 44.5801 90.0007V89.8836C44.5801 89.7664 44.4626 89.5321 44.4626 89.5321L43.1696 89.415C43.2871 89.6493 43.2871 89.8836 43.4047 90.1179C43.4047 90.3522 43.4047 90.7036 43.4047 91.0551L43.2871 92.578C43.2871 93.1638 43.2871 93.5152 43.4047 93.7496C43.5222 93.9839 43.7573 94.2182 44.1099 94.3353C44.4626 94.5696 45.0503 94.5696 45.7556 94.4525C46.5785 94.4525 47.1662 94.3353 47.5189 93.9838C47.8715 93.6324 48.1066 93.2809 48.2241 92.8123H46.8136C46.5785 93.0466 46.4609 93.2809 46.3434 93.2809ZM44.4626 91.5237C44.4626 91.1722 44.4626 90.9379 44.4626 90.8208C44.4626 90.5865 44.5802 90.4693 44.8153 90.3522C45.0504 90.235 45.2854 90.1179 45.5205 90.1179C45.7556 90.1179 45.9907 90.1179 46.1083 90.3522C46.2258 90.4693 46.3434 90.5865 46.3434 90.8208C46.3434 91.0551 46.2258 91.1722 46.1083 91.2894C45.9907 91.4065 45.7556 91.4065 45.2854 91.5237C44.9328 91.6408 44.5801 91.758 44.345 91.758L44.4626 91.5237Z" fill="white"/>
<path d="M39.408 94.6867L39.173 95.8582L40.9362 96.0925L41.0537 94.8039L39.408 94.6867ZM40.3485 89.0635L39.5256 94.101L41.1712 94.3353L41.759 89.2978L40.3485 89.0635Z" fill="white"/>
<path d="M33.1779 90.0005C33.0604 90.352 32.9429 90.5863 32.8253 90.8206C32.8253 91.0549 32.8253 91.2892 32.8253 91.5235C32.9429 91.7578 33.0604 91.9921 33.2955 92.2264C33.5306 92.4607 33.8832 92.5779 34.1183 92.695C34.9412 92.9293 35.6465 92.9293 36.3518 92.5779L36.1167 93.2808L37.6448 93.6322L38.8203 88.7119L37.5272 88.3604L36.822 90.5863C36.7044 91.1721 36.4693 91.5235 36.3518 91.6407C36.2342 91.7578 35.9991 91.875 35.764 91.9921C35.5289 91.9921 35.2938 91.9921 34.9412 91.875C34.7061 91.7578 34.5886 91.6407 34.471 91.5235C34.3535 91.4064 34.3534 91.2892 34.3534 91.0549C34.3534 90.9377 34.471 90.5863 34.7061 90.0005L35.6465 87.6575L34.471 87.0718L33.1779 90.0005Z" fill="white"/>
<path d="M28.9463 87.5407C29.4165 86.955 29.7691 86.3692 29.8867 86.0178C30.0042 85.7835 30.0042 85.432 30.0042 85.1977C30.0042 84.8462 29.8867 84.612 29.7692 84.1433C29.6516 83.7919 29.2989 83.4404 28.8287 82.9718C28.4761 82.6204 28.1235 82.2689 27.7708 82.1518C27.4182 82.0346 27.0655 81.9175 26.7129 81.9175C26.3602 81.9175 26.1251 81.9175 25.7725 82.1518C25.4198 82.2689 24.9497 82.6204 24.2444 83.2061L21.3057 85.432C21.3057 85.432 21.5408 85.7835 21.8934 86.1349C22.2461 86.4864 22.4811 86.8378 22.4811 86.8378L25.4199 84.2605C25.89 83.909 26.1251 83.6747 26.3602 83.5576C26.5953 83.4404 26.8304 83.4404 27.0655 83.4404C27.3006 83.4404 27.6532 83.6747 27.8883 84.0262C28.241 84.2605 28.3585 84.612 28.4761 84.8463C28.5936 85.0806 28.4761 85.432 28.3586 85.6663C28.241 85.7835 28.0059 86.1349 27.6532 86.6035L25.1847 89.4151C25.1847 89.4151 25.5374 89.7666 25.89 90.0009C26.2426 90.2352 26.5953 90.5866 26.5953 90.5866L28.9463 87.5407Z" fill="white"/>
<path d="M25.3022 79.5744C25.4197 78.8715 25.1847 78.2857 24.832 77.4657C24.5969 76.8799 24.2443 76.5285 23.8917 76.177C23.539 75.8256 23.1863 75.7084 22.8337 75.5913C22.4811 75.4741 22.0109 75.4741 21.6582 75.5913C21.188 75.7084 20.9529 75.9427 20.7178 76.2942C20.4827 76.6456 20.3652 76.9971 20.3652 77.3485C20.3652 77.8171 20.4827 78.4029 20.7178 79.223C20.9529 80.043 21.0705 80.6288 21.0705 80.8631C21.0705 81.0974 20.9529 81.2145 20.8354 81.3317C20.7178 81.4488 20.4828 81.4488 20.3652 81.3317C20.1301 81.2145 19.7775 80.8631 19.5424 80.3945C19.3073 79.9259 19.1897 79.5744 19.3072 79.223C19.3072 78.8715 19.5424 78.6372 19.7775 78.4029C19.7775 78.4029 19.5423 78.0514 19.4248 77.5828C19.3072 77.2314 19.0721 76.7628 19.0721 76.7628C18.4844 76.9971 18.1318 77.4657 17.8967 78.1686C17.7791 78.8715 18.0142 79.6916 18.4844 80.7459C18.837 81.4488 19.1897 81.8003 19.6599 82.2689C20.0125 82.6203 20.4827 82.8546 20.8354 82.8546C21.188 82.8546 21.5407 82.8546 21.8933 82.6203C22.3635 82.2689 22.5986 81.8003 22.5986 81.2145C22.5986 80.7459 22.4811 80.1602 22.246 79.223C22.1284 78.5201 22.0108 78.1686 22.0108 77.9343C22.0108 77.7 22.0108 77.4657 22.0108 77.3485C22.1284 77.2314 22.1284 77.1142 22.3635 76.9971C22.5986 76.8799 22.8337 76.8799 23.1863 77.1142C23.4214 77.2314 23.6566 77.5828 23.8917 77.9343C24.1268 78.4029 24.1267 78.7544 24.1267 78.9887C24.1267 79.3401 23.8916 79.6916 23.539 79.9259C23.539 79.9259 24.4794 81.2145 24.4794 81.0974C24.832 80.7459 25.1846 80.1602 25.3022 79.5744Z" fill="white"/>
<path d="M15.4282 71.1396L15.7809 73.1311C15.7809 73.1311 16.251 73.2483 16.9563 73.4826C17.6616 73.7169 18.602 73.834 19.5424 74.0683C20.4828 74.1855 21.4232 74.3026 22.1285 74.4198C22.8338 74.4198 23.304 74.5369 23.304 74.5369L22.8337 73.1311C22.8337 73.1311 22.3635 73.1311 22.0109 73.014C21.5407 73.014 21.188 72.8968 21.188 72.8968C21.0705 72.8968 20.7179 69.9681 20.7179 69.9681C20.7179 69.9681 21.0706 69.7338 21.5407 69.6166C21.8934 69.3823 22.3635 69.2651 22.3635 69.2651L22.246 67.7422C22.246 67.7422 20.4828 68.4451 18.8371 69.3823C18.0142 69.8509 17.0739 70.3195 16.4861 70.7881C15.7808 70.9053 15.4282 71.1396 15.4282 71.1396ZM19.895 72.5454C19.895 72.5454 19.1897 72.4282 18.4844 72.3111C17.7792 72.1939 17.0739 71.9596 17.0739 71.9596C17.0739 71.9596 17.6616 71.6082 18.2493 71.1396C18.8371 70.7881 19.4248 70.4367 19.4248 70.4367C19.4248 70.4367 19.5424 71.0224 19.5424 71.491C19.5424 71.7253 19.6599 72.0768 19.6599 72.1939C19.895 72.4282 19.895 72.5454 19.895 72.5454Z" fill="white"/>
<path d="M29.1814 50.6382C29.1814 50.9896 28.9463 51.3411 28.7112 51.5754C28.3585 51.9268 27.8884 52.044 27.4182 52.044C26.948 52.044 26.3602 51.6925 25.655 51.1068C25.0672 50.521 24.7145 50.0524 24.597 49.4666C24.597 48.8809 24.8321 48.4123 25.3023 47.9437C25.6549 47.5922 26.0076 47.4751 26.3602 47.3579C26.7129 47.3579 27.0655 47.3579 27.4182 47.5922C27.4182 47.5922 27.6532 47.2408 27.8883 46.8893C28.1234 46.5379 28.4761 46.3036 28.4761 46.3036C28.0059 45.9521 27.5357 45.835 26.948 45.835C26.1251 45.835 25.3023 46.1864 24.4795 47.0065C23.5391 47.8265 23.1864 48.8809 23.1864 49.8181C23.1864 50.7553 23.7741 51.6925 24.7145 52.3954C25.6549 53.0983 26.4778 53.3326 27.4182 53.3326C28.241 53.3326 28.9463 52.9812 29.6516 52.3954C30.1218 51.9268 30.4744 51.4582 30.5919 50.7553C30.7095 50.1695 30.592 49.4666 30.3569 48.7637C30.3569 48.7637 30.0042 48.8809 29.6516 48.998C29.2989 49.1152 28.9463 49.2323 28.9463 49.2323C29.1814 49.9352 29.299 50.2867 29.1814 50.6382Z" fill="white"/>
<path d="M33.7658 49.2323L32.2377 46.5378C32.2377 46.5378 32.943 46.1864 33.6483 45.8349C34.0009 45.7178 34.3535 45.4835 34.5886 45.3663C34.8237 45.2492 35.0589 45.132 35.0589 45.132L34.5886 43.9605C34.5886 43.9605 34.3535 44.0777 34.1184 44.1948C33.8833 44.312 33.4132 44.5463 33.0605 44.6634C32.3552 45.0149 31.6499 45.4835 31.6499 45.4835L30.8271 43.9605C30.8271 43.9605 31.0622 43.8434 31.4148 43.6091C31.7675 43.3748 32.2377 43.1405 32.7079 43.0233C33.6483 42.5547 34.5886 42.2032 34.5886 42.2032L34.1184 41.0317C34.1184 41.0317 32.7078 41.6175 31.4148 42.2032C30.1218 42.9062 28.8287 43.7262 28.8287 43.7262L32.8254 49.7009L33.7658 49.2323Z" fill="white"/>
<path d="M39.0554 47.1238L38.3501 44.195L38.7027 44.0779C39.0554 43.9607 39.2905 43.9607 39.408 43.9607C39.5256 43.9607 39.7607 44.0779 39.8782 44.195C39.9958 44.3122 40.3484 44.6637 40.8186 45.1323C40.8186 45.1323 41.1712 45.4837 41.4063 45.8352C41.759 46.1866 41.9941 46.5381 41.9941 46.5381C41.9941 46.5381 42.3467 46.5381 42.8169 46.4209C43.1696 46.4209 43.6398 46.4209 43.6398 46.4209C43.6398 46.4209 43.4047 46.0695 43.1696 45.718C42.9345 45.3666 42.6994 45.0151 42.6994 45.0151C42.3468 44.5465 41.9941 44.0779 41.759 43.9607C41.5239 43.7264 41.2888 43.6093 40.9362 43.4921C41.5239 43.2578 42.1116 43.0235 42.3467 42.6721C42.6994 42.3206 42.8169 41.852 42.8169 41.2663C42.8169 40.7977 42.6994 40.4462 42.3467 40.2119C42.1116 39.8605 41.759 39.7433 41.2888 39.6262C40.8186 39.509 40.1133 39.6262 39.2905 39.7433C39.2905 39.7433 38.3501 39.8605 37.4097 40.0948C36.9396 40.2119 36.4693 40.3291 36.1167 40.4462C35.764 40.5634 35.5289 40.6805 35.5289 40.6805L37.7624 47.4753C37.7624 47.4753 38.115 47.3581 38.3501 47.241C38.7028 47.241 39.0554 47.1238 39.0554 47.1238ZM37.6448 41.3834C37.6448 41.3834 37.9975 41.2663 38.3501 41.2663C38.7028 41.1491 39.0554 41.1491 39.0554 41.1491C39.7607 41.032 40.1133 41.032 40.2309 40.9148C40.466 40.9148 40.7011 41.032 40.9362 41.1491C41.0537 41.2663 41.1712 41.5006 41.1712 41.7349C41.1712 41.9692 41.1713 42.0863 41.0537 42.3206C40.9362 42.4378 40.8186 42.5549 40.7011 42.6721C40.466 42.7892 39.9958 42.7892 39.2905 43.0235C39.2905 43.0235 39.0554 43.1407 38.7027 43.1407C38.4677 43.1407 38.115 43.2578 38.115 43.2578L37.6448 41.3834Z" fill="white"/>
<path d="M51.8681 40.329L50.5751 39.9775C50.34 40.329 49.8699 40.6804 49.2821 40.9147C48.6944 41.1491 48.2242 41.2662 47.8715 41.3834L47.754 42.672C48.5769 42.5549 49.2821 42.3206 49.8699 41.9691L48.8119 47.0066L49.9874 47.358L51.8681 40.329Z" fill="white"/>
<path d="M58.5685 43.7262C58.3334 43.2576 57.9807 42.9062 57.393 42.5547C56.5702 42.0861 55.7473 42.0861 54.9245 42.3204C54.1017 42.6719 53.5138 43.3748 53.0436 44.6634C52.5734 45.8349 52.456 46.7721 52.6911 47.475C52.9262 48.178 53.2788 48.6466 53.8665 48.8809C54.4543 49.2323 54.9245 49.2323 55.5122 49.1152C56.1 48.998 56.5701 48.5294 57.0403 47.9437C57.3929 47.3579 57.5105 46.7721 57.393 46.1864C57.2754 45.6006 56.8052 45.132 56.335 44.7806C55.8648 44.5463 55.277 44.5463 54.8068 44.6634C55.1595 43.9605 55.5122 43.4919 55.8648 43.3748C56.2174 43.2576 56.5702 43.2576 56.8052 43.3748C57.0403 43.4919 57.1579 43.6091 57.2755 43.8434C57.393 44.0777 57.393 44.312 57.2755 44.5463C57.2755 44.5463 57.6281 44.6634 57.9807 44.8977C58.3334 45.132 58.686 45.2492 58.686 45.2492C58.8035 44.7806 58.8036 44.1948 58.5685 43.7262ZM54.8068 45.6006C55.0419 45.4835 55.3947 45.4835 55.6298 45.6006C55.8649 45.7178 56.1 45.9521 56.1 46.1864C56.2175 46.4207 56.0999 46.7721 55.8648 47.2407C55.6297 47.5922 55.3946 47.8265 55.1595 47.9437C54.9244 48.0608 54.6894 48.0608 54.4543 47.9437C54.2192 47.8265 54.1016 47.5922 53.9841 47.3579C53.8665 47.0064 53.984 46.655 54.1016 46.3035C54.3367 45.9521 54.4542 45.7178 54.8068 45.6006Z" fill="white"/>
<path d="M57.1579 50.4042C57.2754 50.8728 57.5106 51.3414 57.9808 51.81C58.451 52.1615 58.9212 52.3958 59.6265 52.3958C60.2142 52.3958 60.8019 52.1615 61.2721 51.81C61.6247 51.4586 61.7423 51.2243 61.8598 50.7557C61.8598 50.4042 61.7423 49.9356 61.5072 49.5842C62.3301 49.8185 62.9178 49.7013 63.388 49.3499C63.7406 48.9984 63.8582 48.647 63.8582 48.0612C63.8582 47.4755 63.5055 46.7726 62.8002 46.304C62.4476 45.9525 62.095 45.7182 61.6248 45.601C61.2721 45.4839 60.8019 45.4839 60.5668 45.601C60.2142 45.7182 59.8616 45.8353 59.6265 46.1868L60.6843 47.2412C60.9194 47.0069 61.1546 46.8897 61.3897 46.8897C61.6248 46.8897 61.8599 47.0069 62.095 47.124C62.3301 47.3583 62.4475 47.4755 62.4475 47.7098C62.4475 47.9441 62.4476 48.1784 62.2125 48.2955C61.9774 48.5298 61.7423 48.5298 61.5072 48.5298C61.2721 48.5298 60.9194 48.4127 60.6843 48.0612L59.8615 48.7641C60.0966 48.8813 60.3317 48.9984 60.4493 49.1156C60.6844 49.3499 60.802 49.5842 60.802 49.8185C60.802 50.0528 60.6844 50.4042 60.4493 50.6385C60.2142 50.8728 59.9791 50.99 59.6265 51.1071C59.3914 51.1071 59.0386 51.1071 58.9211 50.8728C58.686 50.7557 58.5685 50.5214 58.5685 50.2871C58.5685 50.0528 58.5685 49.7013 58.8036 49.467L57.6281 48.7641C57.1579 49.3499 57.0403 49.8185 57.1579 50.4042Z" fill="white"/>
<path d="M60.9194 54.0359C60.9194 54.6217 61.037 55.0903 61.3897 55.5589C61.7423 56.0275 62.2124 56.3789 62.8002 56.4961C63.3879 56.6132 63.9757 56.6132 64.5634 56.2618C64.916 56.0275 65.1511 55.7932 65.3862 55.4417C65.5037 55.0903 65.5037 54.6217 65.3862 54.2702C66.0915 54.7388 66.6793 54.856 67.2671 54.5045C67.6197 54.2702 67.8548 53.9187 67.9723 53.4501C68.0899 52.7472 67.9723 52.1615 67.5021 51.4586C67.267 51.1071 66.9143 50.7557 66.5617 50.5214C66.209 50.2871 65.8565 50.1699 65.5038 50.1699C65.1512 50.1699 64.7985 50.2871 64.4459 50.5214C64.4459 50.5214 64.6809 50.8728 64.7984 51.1071C65.0335 51.4586 65.1511 51.6929 65.1511 51.6929C65.3862 51.5757 65.7388 51.4586 65.9739 51.5757C66.209 51.5757 66.4441 51.81 66.5617 52.0443C66.6792 52.2786 66.7968 52.5129 66.7968 52.7472C66.7968 52.9815 66.6792 53.0987 66.4441 53.2158C66.209 53.333 65.974 53.4501 65.7389 53.333C65.5038 53.2158 65.2687 52.9815 65.0336 52.7472L63.9757 53.2158C64.2108 53.333 64.3283 53.5673 64.4459 53.6844C64.5634 53.9188 64.6809 54.1531 64.5634 54.3874C64.5634 54.6217 64.3283 54.856 63.9757 55.0903C63.623 55.3246 63.3879 55.3246 63.0352 55.3246C62.8001 55.3246 62.5651 55.2074 62.33 54.9731C62.2124 54.7388 62.0949 54.5045 62.2124 54.2702C62.2124 54.0359 62.33 53.8016 62.6827 53.5673L61.7422 52.6301C61.1545 52.9815 61.037 53.4501 60.9194 54.0359Z" fill="white"/>
<path d="M19.895 62.8218C20.3494 62.8218 20.7178 62.1399 20.7178 61.2988C20.7178 60.4577 20.3494 59.7759 19.895 59.7759C19.4406 59.7759 19.0721 60.4577 19.0721 61.2988C19.0721 62.1399 19.4406 62.8218 19.895 62.8218Z" fill="white"/>
<path d="M69.1478 64.4619C69.6022 64.4619 69.9705 63.7801 69.9705 62.939C69.9705 62.0979 69.6022 61.416 69.1478 61.416C68.6933 61.416 68.3248 62.0979 68.3248 62.939C68.3248 63.7801 68.6933 64.4619 69.1478 64.4619Z" fill="white"/>
<defs>
<linearGradient id="paint0_linear_2203_1254" x1="12.655" y1="40.5638" x2="76.1325" y2="40.5638" gradientUnits="userSpaceOnUse">
<stop stop-color="#CA6D51"/>
<stop offset="1" stop-color="#CA6D51" stop-opacity="0"/>
</linearGradient>
<linearGradient id="paint1_linear_2203_1254" x1="12.2472" y1="67.4519" x2="76.1324" y2="67.4519" gradientUnits="userSpaceOnUse">
<stop stop-color="#EE3C24"/>
<stop offset="1" stop-color="#88271B"/>
</linearGradient>
</defs>
</svg>
