<svg width="78" height="110" viewBox="0 0 78 110" fill="none" xmlns="http://www.w3.org/2000/svg">
<path d="M77.8288 0.614746H0.0117798V109.682H77.8288V0.614746Z" fill="#003796"/>
<path d="M17.7615 63.6419C17.7615 64.2276 17.8791 64.6962 17.9966 65.282C18.5844 67.0392 20.8178 67.5078 22.9337 67.5078C24.1091 67.5078 25.2846 67.2735 26.1075 66.8049C27.8707 65.8677 27.8707 64.4619 27.8707 62.939V58.2529C27.6356 58.2529 27.4005 58.2529 27.1654 58.2529C26.9303 58.2529 26.6952 58.2529 26.4601 58.2529V62.2361C26.4601 62.939 26.4601 64.3448 26.1075 64.9305C25.5197 66.102 24.6969 66.5706 23.0512 66.5706C22.3459 66.5706 21.6406 66.4535 21.0528 65.9849C20.4651 65.5163 20.3476 65.1648 20.1125 64.4619C19.9949 63.759 19.995 62.7047 19.995 62.0018V58.2529C19.5248 58.2529 19.1721 58.3701 18.7019 58.3701C18.2317 58.3701 17.8791 58.3701 17.4089 58.2529V63.6419H17.7615Z" fill="#AE9A67"/>
<path d="M30.6918 67.2735C31.162 67.2735 31.5147 67.1564 31.9849 67.1564C32.4551 67.1564 32.8077 67.1564 33.2779 67.2735V63.0561L37.157 67.2735C37.6272 67.2735 37.9799 67.1564 38.4501 67.1564C38.9203 67.1564 39.2729 67.1564 39.7431 67.2735V67.0392L35.1587 61.8846C35.7464 61.416 36.2166 60.9474 36.8044 60.4788L39.6255 58.2529V58.1357C39.2729 58.1357 39.0377 58.2529 38.6851 58.2529C38.3325 58.2529 38.0974 58.2529 37.7447 58.1357C36.3342 59.5416 34.806 60.9474 33.2779 62.236V58.1357C32.8077 58.1357 32.4551 58.2529 31.9849 58.2529C31.5147 58.2529 31.162 58.2529 30.6918 58.1357V67.2735Z" fill="#AE9A67"/>
<path fill-rule="evenodd" clip-rule="evenodd" d="M46.9135 64.5791C47.3837 65.5163 47.7364 66.3363 48.089 67.3907C48.5592 67.3907 49.0294 67.2735 49.4996 67.2735C49.9698 67.2735 50.44 67.2735 50.9102 67.3907L46.2083 58.2529C45.9732 58.2529 45.7381 58.2529 45.503 58.2529C45.2679 58.2529 45.0328 58.2529 44.7977 58.2529L39.9782 67.3907C40.2133 67.3907 40.566 67.3907 40.8011 67.3907C41.0362 67.3907 41.2712 67.3907 41.6238 67.3907C41.9765 66.4535 42.3291 65.6334 42.7993 64.6962H46.9135V64.5791ZM43.3871 63.759L45.0328 60.7131L46.5609 63.759H43.3871Z" fill="#AE9A67"/>
<path d="M58.0806 60.0102C58.1981 59.5416 58.4332 59.0729 58.6683 58.7215C58.3157 58.4872 57.2578 58.1357 55.9647 58.1357C53.3787 58.1357 52.0857 59.4244 52.0857 60.9474C52.0857 64.1104 57.1402 63.4075 57.1402 65.5163C57.1402 66.4535 56.1998 66.9221 55.1419 66.9221C53.9664 66.9221 53.026 66.3363 52.7909 65.5163H52.4383C52.3207 66.102 52.2032 66.6878 51.9681 67.1564C52.791 67.5078 53.7313 67.7421 54.6717 67.7421C57.2578 67.7421 59.1386 66.5706 59.1386 64.8133C59.1386 61.7674 53.9664 62.1189 53.9664 60.3616C53.9664 59.6587 54.4366 59.073 55.8472 59.073C56.7876 59.073 57.4929 59.5416 57.8456 60.2445H58.0806V60.0102Z" fill="#AE9A67"/>
<path d="M16.7037 79.809C16.1159 78.6375 15.6457 77.4659 15.058 76.2944C14.9404 76.2944 14.8229 76.2944 14.7053 76.2944C14.5878 76.2944 14.4702 76.2944 14.4702 76.2944C14.2351 78.1688 14.0001 79.9261 13.765 81.4491C13.8825 81.4491 14 81.4491 14.1176 81.4491C14.2351 81.4491 14.3527 81.4491 14.4702 81.4491C14.4702 80.3947 14.5878 79.3404 14.7053 78.0517C15.2931 79.2232 15.7632 80.3947 16.2334 81.4491C16.351 81.4491 16.351 81.4491 16.4685 81.4491C16.9387 80.2776 17.5265 79.1061 17.9967 77.9345C18.1142 79.1061 18.2317 80.2776 18.3493 81.4491C18.5844 81.4491 18.7019 81.4491 18.937 81.4491C19.1721 81.4491 19.2897 81.4491 19.5248 81.4491C19.2897 79.9261 19.1721 78.286 18.937 76.2944C18.8195 76.2944 18.702 76.2944 18.5844 76.2944C18.4669 76.2944 18.3493 76.2944 18.2318 76.2944C17.8791 77.5831 17.2914 78.7546 16.7037 79.809Z" fill="#AE9A67"/>
<path fill-rule="evenodd" clip-rule="evenodd" d="M22.6986 79.9261C22.9337 80.3947 23.0512 80.9804 23.1688 81.449C23.4039 81.449 23.5214 81.449 23.7565 81.449C23.9916 81.449 24.1092 81.449 24.3443 81.449L22.3459 76.1772C22.2284 76.1772 22.2284 76.1772 22.1108 76.1772C21.9933 76.1772 21.9933 76.1772 21.8757 76.1772L19.8774 81.449C19.9949 81.449 20.1125 81.449 20.2301 81.449C20.3476 81.449 20.4652 81.449 20.5827 81.449C20.7003 80.9804 20.9353 80.5118 21.0529 79.9261H22.6986ZM21.288 79.4575L21.9933 77.7002L22.581 79.4575H21.288Z" fill="#AE9A67"/>
<path d="M25.0496 81.4491C25.1671 81.4491 25.2847 81.4491 25.2847 81.4491C25.4022 81.4491 25.5198 81.4491 25.5198 81.4491V77.8174L26.225 78.6375C27.0479 79.5747 27.7532 80.5119 28.576 81.4491H29.1638V76.2944C29.0462 76.2944 28.9286 76.2944 28.9286 76.2944C28.8111 76.2944 28.6935 76.2944 28.6935 76.2944V79.809C27.7531 78.6375 26.6952 77.4659 25.6373 76.2944H25.0496V81.4491Z" fill="#AE9A67"/>
<path fill-rule="evenodd" clip-rule="evenodd" d="M32.8077 79.9261C33.0428 80.3947 33.1604 80.9804 33.2779 81.449C33.513 81.449 33.6306 81.449 33.8657 81.449C34.1007 81.449 34.2183 81.449 34.4534 81.449L32.4551 76.1772C32.3375 76.1772 32.3375 76.1772 32.2199 76.1772C32.1024 76.1772 32.1025 76.1772 31.9849 76.1772L29.9866 81.449C30.1041 81.449 30.2217 81.449 30.3392 81.449C30.4568 81.449 30.5743 81.449 30.6918 81.449C30.8094 80.9804 31.0445 80.5118 31.1621 79.9261H32.8077ZM31.3972 79.4575L32.1024 77.7002L32.6902 79.4575H31.3972Z" fill="#AE9A67"/>
<path d="M39.508 79.2232C39.3904 79.2232 39.1554 79.2232 39.0378 79.2232C38.9203 79.2232 38.6851 79.2232 38.5676 79.2232V80.9804C38.45 81.0976 38.0974 81.2147 37.7447 81.2147C36.6868 81.2147 36.0991 80.3947 36.0991 79.106C36.0991 77.8174 36.6868 76.6459 37.8623 76.6459C38.4501 76.6459 38.9202 76.8801 39.2728 77.4659H39.3904C39.3904 77.2316 39.508 76.9973 39.6255 76.6459C39.1554 76.2944 38.5676 76.1772 37.9798 76.1772C36.3342 76.1772 35.0411 77.1145 35.0411 78.9889C35.0411 80.7461 36.3342 81.5662 37.8623 81.5662C38.4501 81.5662 39.1553 81.449 39.7431 81.2147V79.2232H39.508Z" fill="#AE9A67"/>
<path d="M40.5659 76.2944V81.4491H43.2695C43.2695 81.3319 43.2695 81.2148 43.2695 81.0976C43.2695 80.9805 43.2695 80.8633 43.2695 80.7462C42.7993 80.8633 42.3291 80.8633 41.6238 80.8633V78.9889H42.3291C42.6818 78.9889 42.9169 78.9889 43.152 79.1061C43.152 78.9889 43.152 78.8718 43.152 78.7546C43.152 78.6374 43.152 78.5203 43.152 78.4032C42.9169 78.4032 42.5642 78.5203 42.3291 78.5203H41.6238V76.8802C42.3291 76.8802 42.7993 76.8802 43.2695 76.9973C43.2695 76.8802 43.2695 76.763 43.2695 76.6459C43.2695 76.5287 43.2695 76.4116 43.2695 76.2944H40.5659Z" fill="#AE9A67"/>
<path d="M46.6784 79.809C46.0907 78.6375 45.6205 77.4659 45.0327 76.2944C44.9152 76.2944 44.7976 76.2944 44.7976 76.2944H44.5625C44.3274 78.1688 44.0923 79.9261 43.8572 81.4491C43.9748 81.4491 44.0923 81.4491 44.2099 81.4491C44.3274 81.4491 44.445 81.4491 44.5625 81.4491C44.5625 80.3947 44.6801 79.3404 44.9152 78.0517C45.5029 79.2232 45.9731 80.3947 46.4433 81.4491C46.5609 81.4491 46.5609 81.4491 46.6784 81.4491C47.1486 80.2776 47.7363 79.1061 48.2065 77.9345C48.3241 79.1061 48.4416 80.2776 48.5592 81.4491C48.7943 81.4491 48.9118 81.4491 49.1469 81.4491C49.382 81.4491 49.4996 81.4491 49.7347 81.4491C49.4996 79.9261 49.382 78.286 49.1469 76.2944C49.0294 76.2944 48.9118 76.2944 48.7943 76.2944C48.6767 76.2944 48.5592 76.2944 48.4417 76.2944C47.7364 77.5831 47.1486 78.7546 46.6784 79.809Z" fill="#AE9A67"/>
<path d="M50.3224 76.2944V81.4491H53.026C53.026 81.3319 53.026 81.2148 53.026 81.0976C53.026 80.9805 53.026 80.8633 53.026 80.7462C52.5558 80.8633 52.0856 80.8633 51.3804 80.8633V78.9889H52.0856C52.4383 78.9889 52.6734 78.9889 52.9085 79.1061C52.9085 78.9889 52.9085 78.8718 52.9085 78.7546C52.9085 78.6374 52.9085 78.5203 52.9085 78.4032C52.6734 78.4032 52.3207 78.5203 52.0856 78.5203H51.3804V76.8802C52.0856 76.8802 52.5558 76.8802 53.026 76.9973C53.026 76.8802 53.026 76.763 53.026 76.6459C53.026 76.5287 53.026 76.4116 53.026 76.2944H50.3224Z" fill="#AE9A67"/>
<path d="M53.8488 81.4491C53.9664 81.4491 54.084 81.4491 54.084 81.4491C54.2015 81.4491 54.3191 81.4491 54.3191 81.4491V77.8174L55.0243 78.6375C55.8472 79.5747 56.5525 80.5119 57.3753 81.4491H57.963V76.2944C57.8455 76.2944 57.7279 76.2944 57.7279 76.2944C57.6104 76.2944 57.4928 76.2944 57.4928 76.2944V79.809C56.5524 78.6375 55.4945 77.4659 54.4366 76.2944H53.7313V81.4491H53.8488Z" fill="#AE9A67"/>
<path d="M61.1369 76.8802C61.607 76.8802 61.9597 76.8802 62.4299 76.9973C62.4299 76.8802 62.4299 76.763 62.4299 76.6459C62.4299 76.5287 62.4299 76.4116 62.4299 76.2944H58.7859C58.7859 76.4116 58.7859 76.5287 58.7859 76.6459C58.7859 76.763 58.7859 76.8802 58.7859 76.9973C59.1385 76.9973 59.6087 76.8802 60.0789 76.8802V81.5662C60.1964 81.5662 60.4316 81.5662 60.5491 81.5662C60.6667 81.5662 60.9017 81.5662 61.0193 81.5662V76.8802H61.1369Z" fill="#AE9A67"/>
<path fill-rule="evenodd" clip-rule="evenodd" d="M26.1075 69.0311C27.1654 69.0311 27.518 70.2026 27.518 71.1398C27.518 72.5456 26.9303 73.6 25.9899 73.6C24.932 73.6 24.5793 72.5456 24.5793 71.6084C24.4617 70.2026 24.932 69.0311 26.1075 69.0311ZM26.6952 74.6543C27.0479 74.8886 27.4005 75.2401 27.7531 75.4744C28.1058 75.2401 28.3408 75.123 28.6935 75.0058C27.9882 74.6543 27.4004 74.3029 26.9303 73.8343C27.9882 73.4828 28.6935 72.4285 28.6935 71.257C28.6935 69.6169 27.6356 68.5625 26.1075 68.5625C24.5793 68.5625 23.4038 69.6169 23.4038 71.257C23.4038 73.0142 24.4618 73.9514 25.9899 73.9514L26.6952 74.6543Z" fill="#AE9A67"/>
<path d="M29.5164 71.8423C29.5164 72.1938 29.5164 72.4281 29.6339 72.7795C29.869 73.7167 30.8094 74.0682 31.6322 74.0682C32.1024 74.0682 32.5726 73.951 32.9253 73.7167C33.6306 73.131 33.6305 72.4281 33.6305 71.4909V68.7964C33.513 68.7964 33.3954 68.7964 33.3954 68.7964H33.1604V71.1394C33.1604 71.4909 33.1604 72.4281 33.0428 72.6624C32.8077 73.3653 32.4551 73.5996 31.7498 73.5996C31.3972 73.5996 31.162 73.4824 30.927 73.2481C30.6919 73.0138 30.5743 72.7795 30.5743 72.4281C30.4568 72.0766 30.5743 71.3737 30.5743 71.0223V68.9135C30.4568 68.9135 30.2216 68.9135 30.1041 68.9135C29.9866 68.9135 29.7515 68.9135 29.6339 68.9135V71.8423H29.5164Z" fill="#AE9A67"/>
<path fill-rule="evenodd" clip-rule="evenodd" d="M37.2746 72.4285C37.5097 72.8971 37.6272 73.4829 37.7448 73.9515C37.9799 73.9515 38.0974 73.9515 38.3325 73.9515C38.5676 73.9515 38.6852 73.9515 38.9203 73.9515L36.9219 68.6797C36.8044 68.6797 36.8044 68.6797 36.6869 68.6797C36.5693 68.6797 36.5693 68.6797 36.4518 68.6797L34.4534 73.9515C34.571 73.9515 34.6885 73.9515 34.8061 73.9515C34.9236 73.9515 35.0411 73.9515 35.1587 73.9515C35.2762 73.4829 35.5114 73.0143 35.6289 72.4285H37.2746ZM35.864 71.9599L36.5693 70.2027L37.157 71.9599H35.864Z" fill="#AE9A67"/>
<path d="M40.6835 68.7964C40.5659 68.7964 40.3309 68.7964 40.2133 68.7964C40.0958 68.7964 39.8607 68.7964 39.7431 68.7964V73.951H42.4467C42.4467 73.8339 42.4467 73.7167 42.4467 73.5996C42.4467 73.4824 42.4467 73.3653 42.4467 73.2481C41.9765 73.2481 41.5064 73.3653 40.8011 73.3653V68.7964H40.6835Z" fill="#AE9A67"/>
<path d="M43.152 73.951C43.2695 73.951 43.5046 73.951 43.6221 73.951C43.7397 73.951 43.9748 73.951 44.0923 73.951V68.7964C43.9748 68.7964 43.7397 68.7964 43.6221 68.7964C43.5046 68.7964 43.2695 68.7964 43.152 68.7964V73.951Z" fill="#AE9A67"/>
<path d="M47.3837 69.2654C47.8539 69.2654 48.2065 69.2654 48.6767 69.3826C48.6767 69.2654 48.6767 69.1483 48.6767 69.0311C48.6767 68.914 48.6767 68.7968 48.6767 68.6797H45.0327C45.0327 68.7968 45.0327 68.914 45.0327 69.0311C45.0327 69.1483 45.0327 69.2654 45.0327 69.3826C45.3854 69.3826 45.8555 69.2654 46.3257 69.2654V73.9515C46.4433 73.9515 46.6784 73.9515 46.7959 73.9515C46.9135 73.9515 47.1486 73.9515 47.2662 73.9515V69.2654H47.3837Z" fill="#AE9A67"/>
<path d="M50.4399 73.951C50.5575 73.951 50.7926 73.951 50.9102 73.951C51.0277 73.951 51.2628 73.951 51.3804 73.951V71.608C51.8506 70.6708 52.3207 69.7336 52.7909 68.7964C52.6734 68.7964 52.5558 68.7964 52.4383 68.7964C52.3207 68.7964 52.2032 68.7964 52.0856 68.7964C51.8506 69.3821 51.2628 70.6708 51.0277 71.0223C50.9101 70.9051 50.7926 70.5537 50.5575 70.0851C50.3224 69.6165 50.2049 69.1478 49.9698 68.7964C49.7347 68.7964 49.4996 68.7964 49.3821 68.7964C49.147 68.7964 48.9119 68.7964 48.7943 68.7964C49.2645 69.8507 49.7347 70.788 50.3224 71.8423V73.951H50.4399Z" fill="#AE9A67"/>
<path d="M34.806 24.1623C33.2779 24.3966 31.8673 24.7481 30.4567 25.3338C30.2216 25.2167 30.2216 24.9824 30.1041 24.8652C30.1041 24.7481 29.9865 24.6309 29.9865 24.3966C29.5163 24.2795 28.9286 24.2795 28.5759 24.1623L29.3988 22.8736V22.6393L27.6356 18.6562C27.6356 18.4219 27.518 18.0705 27.6356 17.8362C27.518 17.719 27.4005 17.9533 27.2829 17.8362C26.9303 17.8362 26.6952 17.6019 26.4601 17.3676C26.3425 17.0161 26.4601 16.6646 26.6952 16.4303C26.9303 16.196 27.4004 16.196 27.7531 16.3132C27.7531 16.196 27.6356 15.9617 27.6356 15.8446C27.518 15.8446 27.4005 16.0789 27.2829 16.0789C26.9303 16.3132 26.4601 16.0789 26.225 15.9617C26.1074 15.7274 25.8723 15.6103 25.9899 15.2588C25.9899 14.9074 26.225 14.6731 26.5776 14.5559C26.9302 14.4388 27.2829 14.5559 27.6356 14.7902C27.7531 14.5559 27.6356 14.3216 27.6356 14.0873C27.2829 14.3216 26.8127 14.3216 26.5776 14.2045C26.3425 14.0873 26.225 13.853 26.1075 13.6187C26.1075 13.3844 26.1074 13.1501 26.3425 12.9158C26.5776 12.6815 27.0478 12.5644 27.4005 12.6815C27.6356 12.7987 27.7531 12.9158 27.8707 13.1501C27.9882 12.9158 28.1058 12.6815 28.2233 12.4472C27.8707 12.5644 27.518 12.4472 27.2829 12.3301C27.0478 12.0958 26.8127 11.7443 26.9302 11.3929C27.0478 11.1586 27.4004 10.9243 27.7531 10.9243C28.1057 10.9243 28.4584 11.0414 28.5759 11.3929C28.5759 11.51 28.6935 11.6272 28.6935 11.8615L29.2812 11.3929C28.9286 11.2757 28.576 11.0414 28.4584 10.8071C28.3409 10.5728 28.4584 10.2214 28.5759 9.98705C28.811 9.8699 29.0461 9.75275 29.3988 9.75275C29.7514 9.8699 30.1041 9.98705 30.2216 10.2214C30.3392 10.4557 30.3392 10.5728 30.2216 10.8071C30.4567 10.69 30.6918 10.69 30.9269 10.5728C30.6918 10.4557 30.5742 10.2214 30.4567 9.98705C30.4567 9.75275 30.4567 9.51844 30.6918 9.28414C30.9269 9.04984 31.162 9.04984 31.5146 9.04984C31.8673 9.04984 32.1024 9.40129 32.3375 9.6356C32.455 9.98705 32.2199 10.1042 32.1024 10.3385C32.2199 10.3385 32.455 10.3385 32.6901 10.3385C32.5726 10.1042 32.4551 9.8699 32.5726 9.6356C32.6902 9.40129 32.8077 9.16699 33.0428 9.04984C33.2779 8.93269 33.6305 8.93269 33.8656 9.04984C34.1007 9.16699 34.4534 9.40129 34.3358 9.75275C34.3358 9.98705 34.2183 10.3385 33.8656 10.4557C33.9832 10.5728 34.2183 10.5728 34.4534 10.69C34.3358 10.4557 34.3358 10.1042 34.5709 9.8699C34.806 9.51844 35.1586 9.51845 35.6288 9.51845C35.8639 9.6356 36.099 9.75275 36.2166 9.98705C36.3341 10.2214 36.3341 10.5728 36.2166 10.8071C36.099 10.9243 35.9814 11.1586 35.7464 11.1586C35.9814 11.2757 36.2166 11.2757 36.4517 11.3929C36.4517 11.3929 36.4516 11.2757 36.3341 11.2757C36.2165 11.0414 36.3341 10.69 36.4517 10.4557C36.6868 10.2214 37.1569 10.1042 37.5096 10.2214C37.7447 10.3385 37.9798 10.4557 38.0973 10.69C38.2149 11.0414 38.0974 11.2757 37.8623 11.51L37.7447 11.6272C37.9798 11.7443 38.2149 11.7443 38.45 11.7443C38.45 11.6272 38.5676 11.51 38.45 11.51C38.0974 11.2757 38.6851 11.2757 38.5675 11.0414C37.9798 10.4557 37.7447 9.6356 37.9798 8.93269C38.2149 7.99548 39.3904 7.52688 39.5079 6.58967C39.6255 6.58967 39.6255 6.47252 39.5079 6.47252C39.0377 6.58967 38.5675 6.70682 38.3324 7.05828C38.2149 7.05828 38.0973 7.17543 38.0973 6.94113C38.3324 6.35537 38.2149 5.65247 37.9798 5.06671C37.9798 4.94956 38.0973 5.06671 38.0973 5.06671C38.45 5.41816 39.0377 5.53532 39.3904 5.65247C39.3904 5.30101 39.2728 5.06671 39.1553 4.83241C39.0377 4.71526 39.0377 4.59811 38.9202 4.48096C39.0377 4.48096 39.1553 4.48096 39.2728 4.59811C39.743 4.59811 40.3308 4.59811 40.801 4.59811V4.71526C40.5659 4.83241 40.5658 5.18386 40.4483 5.30101C40.4483 5.41816 40.2132 5.65247 40.3308 5.88677C40.801 5.76962 41.3887 5.65247 41.7414 5.30101H41.8589C41.7413 5.88677 41.7413 6.58967 41.8589 7.17543V7.29258C41.3887 6.94113 40.9185 6.58967 40.2132 6.58967C40.2132 7.29258 40.9185 7.87833 41.3887 8.34694C41.9765 8.93269 41.9764 10.1042 41.5062 10.8071C41.3887 11.0414 41.1536 11.1586 41.2711 11.3929C41.3887 11.51 41.6238 11.6272 41.3887 11.7443C41.2712 11.8615 41.2712 12.0958 41.3887 12.2129C41.6238 12.2129 41.8589 12.2129 42.094 12.2129C41.8589 11.9786 41.6238 11.6272 41.8589 11.3929C41.9764 11.1586 42.094 11.0414 42.3291 10.9243C42.6817 10.8071 43.0343 10.8071 43.387 11.0414C43.6221 11.1586 43.6221 11.3929 43.7397 11.51C43.7397 11.7443 43.7397 11.8615 43.6221 11.9786C43.8572 11.9786 44.0923 11.8615 44.3274 11.8615C44.0923 11.7443 43.9748 11.51 43.8572 11.2757C43.8572 10.9243 43.9747 10.5728 44.2098 10.4557C44.4449 10.3385 44.68 10.3385 45.0327 10.3385C45.2678 10.4557 45.5029 10.5728 45.6204 10.8071C45.738 11.0414 45.738 11.2757 45.6204 11.51C45.8555 11.6272 45.9731 11.3929 46.2082 11.3929C46.0906 11.2757 45.8555 11.0414 45.8555 10.9243C45.8555 10.5728 45.9731 10.2214 46.3257 9.98705C46.5608 9.8699 46.7959 9.8699 47.1485 9.98705C47.3836 10.1042 47.6188 10.3385 47.6188 10.69C47.6188 10.9243 47.5012 11.1586 47.3837 11.2757C47.5012 11.3929 47.7363 11.2757 47.9714 11.3929C47.8539 11.1586 47.7363 10.69 47.9714 10.4557C48.0889 10.4557 48.2065 10.3385 48.324 10.2214C48.5591 10.1042 48.7943 10.1042 49.0294 10.1042C49.2645 10.1042 49.4996 10.3385 49.6171 10.5728C49.7347 10.9243 49.6171 11.2757 49.382 11.51L49.1469 11.6272L49.4995 11.8615C49.4995 11.51 49.6171 11.0414 50.0873 10.9243C50.3224 10.8071 50.675 10.9243 50.9101 11.0414C51.1452 11.2757 51.2628 11.6272 51.1452 11.8615C51.0277 12.0958 50.7925 12.3301 50.4399 12.3301L50.7926 12.6815C50.9101 12.3301 51.1452 12.0958 51.4978 11.9786C51.8505 11.8615 52.3207 12.0958 52.4382 12.3301C52.5558 12.4472 52.5558 12.6815 52.5558 12.9158C52.4383 13.1501 52.2031 13.5016 51.8505 13.5016H51.3803C51.3803 13.6187 51.4978 13.7359 51.6154 13.853C51.8505 13.6187 52.2031 13.3844 52.6733 13.5016C52.9084 13.5016 53.1435 13.7359 53.2611 13.853C53.3786 14.0873 53.3786 14.4388 53.2611 14.6731L52.9084 14.9074C53.2611 14.9074 53.4962 15.1417 53.6137 15.376C53.7313 15.6103 53.7313 15.8446 53.6137 16.0789C53.4962 16.4303 53.1435 16.5475 52.6733 16.5475C52.4382 16.5475 52.2032 16.4303 51.9681 16.3132L51.8505 16.899C52.0856 16.7818 52.4382 16.6646 52.6733 16.899C52.9084 17.0161 53.026 17.1333 53.1436 17.3676C53.2611 17.719 53.1435 18.0705 52.9084 18.1876C52.7909 18.3048 52.5558 18.4219 52.3207 18.4219C52.0856 18.4219 51.7329 18.3048 51.6154 18.0705C51.4978 18.3048 51.733 18.4219 51.733 18.5391C51.733 18.8905 51.8505 19.242 51.733 19.5934V19.8277C51.1452 20.9992 50.4399 22.1707 49.8521 23.4594L50.3224 24.5138L50.2048 24.6309C49.8522 24.6309 49.617 24.8652 49.2644 24.9824L48.7943 26.1539C44.445 23.928 39.5079 23.4594 34.806 24.1623Z" fill="#AE9A67"/>
<path d="M48.3241 23.3422C48.5592 23.225 49.0294 23.1079 49.2645 22.9907L49.6172 23.5765C49.3821 23.6936 49.0294 23.8108 48.6767 23.9279L48.3241 23.3422Z" fill="#AE9A67"/>
<path d="M29.2812 23.8108L29.7515 22.9907C29.9866 23.1079 30.3392 23.1079 30.5743 23.225C30.6919 23.4593 30.2217 23.6936 30.2217 23.9279C29.869 23.8108 29.6339 23.8108 29.2812 23.8108Z" fill="#AE9A67"/>
<path d="M44.5625 22.9904L43.0344 22.7561C42.9168 22.6389 42.7993 22.5218 42.6818 22.2875C42.7993 22.1703 43.0344 22.0532 43.152 21.936C44.0924 22.0532 45.0327 22.2875 45.8556 22.4046C45.9731 22.5218 46.2082 22.6389 46.2082 22.8732C45.9731 23.5761 45.1502 22.9904 44.5625 22.9904Z" fill="#008B67"/>
<path d="M32.5726 22.9906C32.8077 22.2876 33.7481 22.4048 34.4534 22.2876C34.806 22.2876 35.1587 22.0533 35.6289 22.1705L36.0991 22.4048C36.0991 22.522 35.9815 22.6391 35.864 22.7563C34.9236 22.8734 33.9832 22.9906 33.0428 23.2249C32.8077 23.2249 32.6902 23.1077 32.5726 22.9906Z" fill="#008B67"/>
<path d="M38.8027 22.4049C39.0378 22.0535 39.2728 21.702 39.5079 21.3506H39.6255L40.3308 22.0535C40.2132 22.4049 39.9781 22.6392 39.743 22.9907C39.3904 22.8735 39.1553 22.5221 38.8027 22.4049Z" fill="#008B67"/>
<path d="M46.4433 20.6475C46.3258 20.4132 46.0906 20.0617 46.3257 19.7102C46.5608 19.5931 46.796 19.4759 47.0311 19.5931C47.1486 19.5931 47.1486 19.7102 47.2662 19.8274C47.2662 20.0617 47.3837 20.296 47.2662 20.4132C47.2662 20.4132 47.2662 20.5303 47.3837 20.5303C47.8539 20.4132 48.3241 20.1789 48.4417 19.8274C48.6768 19.4759 48.6767 18.8902 48.3241 18.5387C48.089 18.1873 47.6188 18.0701 47.2662 18.1873C47.5013 17.3672 47.3837 16.5472 47.0311 15.8443C47.1486 15.7271 47.031 15.7271 46.9135 15.61C46.0906 16.1957 45.5029 16.8986 45.2678 17.8358C44.9152 17.6015 44.2099 17.6015 43.8573 17.8358C43.5046 18.0701 43.152 18.4216 43.2695 18.8902C43.3871 19.3588 43.6221 19.7102 43.9748 19.9446C44.2099 19.7102 44.2099 19.2416 44.6801 19.2416C44.9152 19.2416 45.0327 19.2416 45.1503 19.4759C45.2678 19.5931 45.3854 19.8274 45.2678 19.9446C45.0328 20.8818 43.9748 21.1161 43.0344 21.3504C42.094 21.4675 41.3887 20.9989 40.9185 20.4132C40.6835 20.0617 40.5659 19.7102 40.5659 19.2416C41.6239 19.4759 42.4467 20.0617 42.9169 20.9989H43.0344V20.8818C43.0344 19.5931 43.0344 18.1873 43.0344 16.7815C42.9169 16.7815 42.9169 16.6643 42.9169 16.6643C42.3291 17.4844 41.6239 17.953 40.5659 18.1873C40.5659 17.4844 40.9185 16.8986 41.6238 16.5472C41.8589 16.43 42.094 16.43 42.3291 16.3129C42.3291 16.1957 42.3291 15.9614 42.2116 15.8443C41.8589 15.8443 41.6238 15.8443 41.2712 15.8443C41.0361 15.7271 41.2712 15.4928 41.2712 15.2585C41.2712 14.4385 41.2712 13.5013 41.3888 12.6812C43.0344 12.564 44.5625 12.2126 45.9731 11.744C47.2661 11.3925 48.6768 11.6268 49.6171 12.3297C50.5575 13.0326 51.1453 14.3213 50.7926 15.4928C50.6751 16.0786 50.3224 16.6643 49.8522 17.1329C50.4399 17.8358 50.7926 19.1245 50.2049 19.9446C49.4996 19.5931 49.2645 18.773 49.382 18.0701H49.2644C49.1469 18.1873 49.2645 18.3044 49.1469 18.4216C48.6767 19.4759 48.2065 20.4132 47.7363 21.4675C47.7363 21.4675 47.7364 21.5847 47.8539 21.5847C48.089 21.5847 48.089 21.3504 48.2066 21.3504C48.6767 21.1161 49.0294 20.8818 49.6171 20.8818C49.3821 21.3504 48.7943 21.7018 48.089 21.819C47.3837 21.7018 46.6784 21.2332 46.4433 20.6475Z" fill="#CC1F22"/>
<path d="M29.869 21.1161C29.6339 20.8818 29.5164 20.7647 29.2813 20.5304C29.869 20.4132 30.5743 20.6475 30.927 20.999C31.0445 21.1161 31.0445 21.2333 31.2796 21.2333V21.1161C30.8094 19.8275 30.2217 18.5388 29.7515 17.2502L29.634 17.133C29.5164 17.3673 29.6339 17.7188 29.5164 17.9531C29.3988 18.4217 29.1637 18.7731 28.6935 19.0074C28.4584 18.1874 28.9287 17.4845 29.3989 16.7816V16.6644C28.576 15.8444 28.1058 14.5557 28.576 13.3842C29.0462 12.0955 30.3392 11.1583 31.8673 11.0412C33.3955 10.924 34.4534 11.7441 35.864 11.9784C36.5693 12.0955 37.2746 12.2127 37.9799 12.3298L37.8623 15.3758H37.157C36.9219 15.4929 37.0395 15.7272 37.0395 15.8444V15.9615C37.7448 15.9615 38.45 16.4301 38.6851 17.0159C38.6851 17.2502 38.8027 17.4845 38.6851 17.7188C37.7447 17.3673 36.9219 16.7816 36.4518 15.9615H36.3342V16.0787C36.3342 17.6016 36.3342 19.0074 36.2166 20.5304C36.2166 20.5304 36.2166 20.7647 36.3342 20.6475C36.8044 19.8275 37.5097 19.2417 38.4501 19.0074C38.5676 19.7103 38.0974 20.2961 37.5096 20.6475C36.9219 20.8818 36.0991 21.2333 35.3938 20.8818C34.8061 20.6475 34.571 20.2961 34.2183 19.9446C34.1008 19.7103 33.9832 19.3589 34.1008 19.0074C34.1008 18.8903 34.3359 18.8903 34.4534 18.7731C34.571 18.7731 34.6885 18.8903 34.8061 19.0074C35.0411 19.2417 34.8061 19.5932 35.0412 19.7103C35.5114 19.5932 35.9815 19.2417 35.9815 18.7731C36.0991 18.3045 35.864 17.7188 35.2763 17.4845C34.9236 17.2502 34.3359 17.3673 33.8657 17.6016C33.7481 16.7816 33.1604 15.9615 32.4551 15.3758C32.22 15.3758 32.22 15.6101 31.9849 15.8444C31.6323 16.4301 31.5147 17.2502 31.6322 17.9531C31.162 17.9531 30.6918 18.3045 30.4568 18.656C30.2217 19.2417 30.5743 19.7103 31.0445 20.0618C31.162 20.0618 31.3972 20.2961 31.5147 20.1789C31.5147 19.8275 31.6323 19.3589 31.9849 19.2417C32.1025 19.1246 32.3375 19.2417 32.4551 19.2417C32.6902 19.476 32.8077 19.9446 32.6902 20.2961C32.4551 20.999 31.7498 21.4676 30.927 21.5848C30.6919 21.4676 30.2217 21.3504 29.869 21.1161Z" fill="#CC1F22"/>
<path d="M39.5079 15.4929C39.5079 15.3758 39.5079 15.2586 39.5079 15.1415C39.6255 15.0243 39.743 14.9072 39.8606 14.79C40.0957 14.79 40.2132 14.9072 40.3308 15.1415C40.3308 15.3758 40.3308 15.4929 40.2133 15.6101C39.9782 15.8444 39.6255 15.7272 39.5079 15.4929Z" fill="#AE9A67"/>
<path d="M39.3904 14.5559C39.2729 14.4388 39.2728 14.3216 39.2728 14.2045C39.3904 14.0873 39.3904 13.853 39.6255 13.853C39.7431 13.853 39.9782 13.853 39.9782 14.0873C40.0957 14.2045 39.9782 14.3216 39.9782 14.5559C39.8606 14.6731 39.8606 14.7902 39.743 14.7902C39.6255 14.6731 39.508 14.6731 39.3904 14.5559Z" fill="#AE9A67"/>
<path d="M51.8506 14.2041C51.9681 14.3213 52.3208 14.3213 52.5559 14.3213C52.3208 14.3213 52.0857 14.4384 51.9682 14.5556L51.8506 14.2041Z" fill="#AE9A67"/>
<path d="M39.3904 13.5016C39.3904 13.2673 39.3905 13.033 39.6256 12.9158C39.7431 12.7987 39.8606 12.9158 39.9782 12.9158C40.2133 13.033 40.2133 13.2673 40.2133 13.3844C40.0957 13.5016 40.0957 13.6187 39.8606 13.6187C39.6255 13.7359 39.3904 13.6187 39.3904 13.5016Z" fill="#AE9A67"/>
<path d="M39.508 12.5642C39.3904 12.4471 39.3904 12.3299 39.3904 12.0956C39.3904 11.9785 39.508 11.8613 39.6256 11.8613C39.7431 11.8613 39.9782 11.8613 40.0957 11.9785C40.2133 12.0956 40.2133 12.2128 40.2133 12.4471C40.0957 12.5642 40.0957 12.6814 39.9782 12.6814C39.7431 12.6814 39.6255 12.5642 39.508 12.5642Z" fill="#AE9A67"/>
<path d="M39.3904 11.3929C39.2729 11.2757 39.3904 11.1586 39.3904 11.0414C39.3904 10.9243 39.6255 10.8071 39.7431 10.8071C39.8606 10.8071 39.9782 10.9243 40.0957 11.0414C40.2132 11.1586 40.2132 11.3929 40.0957 11.51C39.9782 11.6272 39.9781 11.6272 39.8606 11.6272C39.6255 11.51 39.508 11.3929 39.3904 11.3929Z" fill="#AE9A67"/>
<path d="M38.215 9.16697C38.4501 8.81552 39.0378 9.04982 39.3904 8.93267L39.508 8.81552C39.508 8.46406 39.6255 7.99546 39.6255 7.64401C39.7431 7.52686 39.8606 7.52686 39.9782 7.52686L40.0957 7.64401L40.2133 8.81552C40.3308 9.04982 40.5659 8.81552 40.801 8.81552C41.0361 8.93267 41.3888 8.81552 41.3888 9.04982C41.3888 9.16697 41.2712 9.28412 41.1537 9.40127C40.2133 9.40127 39.3904 9.40127 38.3325 9.51842C38.2149 9.51842 38.0974 9.40127 38.215 9.16697Z" fill="#AE9A67"/>
<path d="M39.7431 53.3326L29.634 42.5548V28.2624L39.3905 40.9147L58.1982 14.6729L59.021 24.5135L39.7431 53.3326Z" fill="#AE9A67"/>
<path fill-rule="evenodd" clip-rule="evenodd" d="M5.18384 98.2013H6.71202V95.2725H8.47525C8.94544 95.2725 9.29807 95.5068 9.41562 95.9754C9.41562 96.5612 9.41562 97.1469 9.41562 97.4984C9.41562 97.7327 9.53318 97.967 9.65073 98.2013H11.1788V97.967C11.0613 97.8499 10.9437 97.7327 10.9437 97.3812C10.9437 97.0298 10.9438 96.0926 10.8262 95.7411C10.7087 95.0382 10.2385 94.9211 10.0034 94.6868C10.4736 94.4525 10.8262 94.2182 10.9437 93.5153C11.1788 92.9295 10.9438 92.3438 10.8262 91.9923C10.5911 91.1723 9.8858 90.8208 9.18051 90.8208H5.18384V98.2013ZM6.71202 92.1095H8.71029C9.41558 92.1095 9.65073 92.4609 9.65073 92.9295C9.76828 93.6324 9.06297 93.9839 8.82788 93.9839H6.82954V92.1095H6.71202Z" fill="#AE9A67"/>
<path fill-rule="evenodd" clip-rule="evenodd" d="M16.7036 95.8584C16.7036 95.1554 16.7036 94.4525 16.2334 93.6325C15.8808 93.0467 15.293 92.5781 14.2351 92.5781C13.6473 92.5781 12.2368 92.6953 11.8841 94.804C11.7666 95.2726 11.7666 95.6241 11.8841 95.9755C11.8841 96.327 12.0017 96.5613 12.0017 96.6784C12.1193 97.147 12.4719 97.6156 12.9421 97.9671C13.2947 98.2014 13.7649 98.4357 14.3527 98.4357C15.2931 98.4357 16.5861 97.7328 16.8212 96.6784H15.4106C15.293 96.9127 15.0579 97.2642 14.5877 97.2642C14.2351 97.3813 13.7649 97.2642 13.4122 96.7956C13.1771 96.5613 13.1772 96.2098 13.2947 95.9755H16.7036V95.8584ZM13.1772 94.9211C13.1772 94.4525 13.5298 93.7496 14.3527 93.7496C15.1755 93.7496 15.293 94.4525 15.293 94.9211H13.1772Z" fill="#AE9A67"/>
<path fill-rule="evenodd" clip-rule="evenodd" d="M21.0529 92.6953V93.5153C20.7002 93.0467 20.4652 92.6953 19.6423 92.5781C18.937 92.5781 18.4668 92.9296 18.1141 93.281C17.1738 94.3354 17.0562 96.7956 17.9966 97.8499C18.4668 98.3185 18.8195 98.4357 19.5247 98.4357C20.23 98.4357 20.5827 98.0842 20.9353 97.6156V98.4357C20.9353 99.0214 20.2301 99.6072 19.6423 99.49C19.0546 99.3729 18.8195 99.1386 18.8195 98.9043H17.4089C17.4089 99.6072 18.2317 100.427 19.2896 100.427C20.4651 100.544 21.0529 100.193 21.4056 99.9586C21.8758 99.6072 22.2283 99.0214 22.2283 98.3185V92.6953H21.0529ZM19.7599 93.8668C20.1125 93.8668 20.4651 93.9839 20.7002 94.4525C20.8178 94.6868 20.9353 95.0383 20.9353 95.5069C20.9353 95.9755 20.8178 96.327 20.7002 96.5613C20.4651 97.0299 20.1125 97.147 19.7599 97.147C19.4072 97.147 19.0546 97.0299 18.8195 96.5613C18.7019 96.327 18.5844 95.9755 18.5844 95.5069C18.5844 95.0383 18.7019 94.6868 18.8195 94.4525C19.0546 94.1011 19.4072 93.8668 19.7599 93.8668Z" fill="#AE9A67"/>
<path d="M23.6389 98.2017H25.0495V96.6787H23.6389V98.2017Z" fill="#AE9A67"/>
<path d="M29.1638 90.8208V98.2013H30.5744V93.0467L33.5131 98.2013H34.9237V90.8208H33.5131V95.8583L30.5744 90.8208H29.1638Z" fill="#AE9A67"/>
<path fill-rule="evenodd" clip-rule="evenodd" d="M38.4501 98.4357C39.1554 98.4357 39.8606 98.2014 40.3308 97.7328C40.9186 97.2642 41.1537 96.4441 41.1537 95.5069C41.1537 94.5697 40.9186 93.7496 40.3308 93.281C39.8606 92.8124 39.1554 92.5781 38.4501 92.5781C37.7448 92.5781 37.0394 92.8124 36.5693 93.281C35.9815 93.7496 35.7464 94.5697 35.7464 95.5069C35.7464 96.4441 35.9815 97.2642 36.5693 97.7328C37.157 98.2014 37.8623 98.4357 38.4501 98.4357ZM38.4501 93.8668C38.8027 93.8668 39.1553 93.9839 39.3904 94.4525C39.508 94.6868 39.6255 95.0383 39.6255 95.5069C39.6255 95.9755 39.508 96.327 39.3904 96.5613C39.1553 97.0299 38.8027 97.147 38.4501 97.147C38.0974 97.147 37.7447 97.0299 37.5096 96.5613C37.3921 96.327 37.2746 95.9755 37.2746 95.5069C37.2746 95.0383 37.3921 94.6868 37.5096 94.4525C37.7447 93.9839 38.0974 93.8668 38.4501 93.8668Z" fill="#AE9A67"/>
<path d="M48.1098 96.1708C47.6136 96.1708 47.1909 96.0358 46.8419 95.7657C46.4928 95.4935 46.226 95.0994 46.0416 94.5835C45.8572 94.0653 45.7649 93.4396 45.7649 92.7063C45.7649 91.9774 45.8572 91.3549 46.0416 90.839C46.2282 90.3208 46.4961 89.9256 46.8451 89.6534C47.1964 89.3789 47.618 89.2417 48.1098 89.2417C48.6016 89.2417 49.022 89.3789 49.3711 89.6534C49.7224 89.9256 49.9903 90.3208 50.1747 90.839C50.3613 91.3549 50.4546 91.9774 50.4546 92.7063C50.4546 93.4396 50.3624 94.0653 50.178 94.5835C49.9935 95.0994 49.7268 95.4935 49.3777 95.7657C49.0286 96.0358 48.606 96.1708 48.1098 96.1708ZM48.1098 95.4463C48.6016 95.4463 48.9836 95.2092 49.2558 94.7349C49.5281 94.2607 49.6642 93.5845 49.6642 92.7063C49.6642 92.1223 49.6016 91.625 49.4765 91.2144C49.3535 90.8038 49.1757 90.491 48.943 90.2758C48.7125 90.0606 48.4347 89.9531 48.1098 89.9531C47.6224 89.9531 47.2414 90.1935 46.967 90.6743C46.6926 91.1529 46.5553 91.8302 46.5553 92.7063C46.5553 93.2903 46.6168 93.7865 46.7398 94.1948C46.8627 94.6032 47.0395 94.9139 47.27 95.1268C47.5027 95.3398 47.7826 95.4463 48.1098 95.4463ZM51.7061 96.0786V95.4858L53.9323 93.0488C54.1936 92.7634 54.4088 92.5153 54.5778 92.3045C54.7469 92.0915 54.872 91.8917 54.9533 91.7051C55.0367 91.5163 55.0784 91.3187 55.0784 91.1123C55.0784 90.8752 55.0213 90.6699 54.9072 90.4965C54.7952 90.323 54.6415 90.1891 54.4461 90.0947C54.2507 90.0003 54.0311 89.9531 53.7874 89.9531C53.5284 89.9531 53.3022 90.0069 53.109 90.1144C52.918 90.2198 52.7698 90.368 52.6644 90.559C52.5612 90.75 52.5096 90.974 52.5096 91.2309H51.7324C51.7324 90.8357 51.8235 90.4888 52.0058 90.1902C52.188 89.8916 52.4361 89.6589 52.75 89.492C53.0662 89.3251 53.4208 89.2417 53.8138 89.2417C54.209 89.2417 54.5592 89.3251 54.8643 89.492C55.1695 89.6589 55.4088 89.8839 55.5823 90.1671C55.7557 90.4504 55.8425 90.7654 55.8425 91.1123C55.8425 91.3604 55.7975 91.603 55.7074 91.8401C55.6196 92.0751 55.4659 92.3374 55.2464 92.6272C55.029 92.9148 54.7271 93.2661 54.3407 93.6811L52.8258 95.3014V95.3541H55.961V96.0786H51.7061ZM57.5319 96.0786L60.5486 90.1111V90.0585H57.0709V89.3339H61.3917V90.098L58.3882 96.0786H57.5319ZM64.7443 96.1708C64.3095 96.1708 63.922 96.0962 63.5817 95.9469C63.2436 95.7976 62.9747 95.5901 62.7749 95.3244C62.5773 95.0566 62.4697 94.7459 62.4521 94.3924H63.282C63.2996 94.6098 63.3742 94.7975 63.506 94.9556C63.6377 95.1115 63.8101 95.2322 64.023 95.3179C64.236 95.4035 64.472 95.4463 64.7311 95.4463C65.0209 95.4463 65.2778 95.3958 65.5017 95.2948C65.7257 95.1938 65.9013 95.0533 66.0287 94.8733C66.156 94.6932 66.2197 94.4847 66.2197 94.2475C66.2197 93.9994 66.1582 93.781 66.0352 93.5922C65.9123 93.4012 65.7323 93.2519 65.4951 93.1443C65.258 93.0367 64.9682 92.9829 64.6257 92.9829H64.0856V92.2584H64.6257C64.8936 92.2584 65.1285 92.2101 65.3305 92.1135C65.5347 92.0169 65.6938 91.8807 65.808 91.7051C65.9244 91.5295 65.9825 91.3231 65.9825 91.086C65.9825 90.8576 65.932 90.6589 65.8311 90.4899C65.7301 90.3208 65.5873 90.1891 65.4029 90.0947C65.2207 90.0003 65.0055 89.9531 64.7574 89.9531C64.5247 89.9531 64.3052 89.9959 64.0988 90.0815C63.8946 90.1649 63.7277 90.2868 63.5982 90.4471C63.4687 90.6051 63.3984 90.7962 63.3874 91.0201H62.597C62.6102 90.6666 62.7167 90.357 62.9165 90.0914C63.1163 89.8235 63.3775 89.615 63.7003 89.4657C64.0252 89.3164 64.382 89.2417 64.7706 89.2417C65.1878 89.2417 65.5456 89.3262 65.8442 89.4953C66.1428 89.6622 66.3723 89.8828 66.5325 90.1573C66.6928 90.4317 66.7729 90.7281 66.7729 91.0464C66.7729 91.4263 66.673 91.7501 66.4732 92.018C66.2756 92.2858 66.0067 92.4713 65.6664 92.5745V92.6272C66.0923 92.6975 66.4249 92.8786 66.6643 93.1706C66.9036 93.4604 67.0232 93.8194 67.0232 94.2475C67.0232 94.6142 66.9233 94.9435 66.7235 95.2355C66.5259 95.5253 66.2559 95.7537 65.9134 95.9205C65.5709 96.0874 65.1812 96.1708 64.7443 96.1708Z" fill="#AE9A67"/>
</svg>
