<svg width="130" height="48" viewBox="0 0 130 48" fill="none" xmlns="http://www.w3.org/2000/svg">
<path d="M0.884155 47.9886V0.425293H59.0706V47.8714V47.9886H0.884155ZM1.11934 47.6371H58.718V0.659596H1.11934V47.6371Z" fill="#231F20"/>
<path d="M58.8354 0.54248H1.00159V47.7543H58.8354V0.54248Z" fill="#01247D"/>
<path d="M58.8354 17.0608H35.6783V0.54248H24.1587V17.0608H1.00159V31.236H24.1587V47.8714H35.6783V31.236H58.8354V17.0608Z" fill="white"/>
<path d="M58.8354 42.3653L7.5844 0.54248H1.00159V6.04857L52.1351 47.8714H58.8354V42.3653Z" fill="white"/>
<path d="M1.00159 42.3653L52.2528 0.54248H58.8354V6.04857L7.70192 47.8714H1.00159V42.3653Z" fill="white"/>
<path d="M58.8354 20.1067H33.3274V0.54248H26.5096V20.1067H1.00159V28.3072H26.5096V47.8714H33.3274V28.3072H58.8354V20.1067Z" fill="#CF142B"/>
<path d="M58.8355 47.637V44.0053L43.319 31.2358H38.7347L58.8355 47.637Z" fill="#CF142B"/>
<path d="M58.8354 0.54248H54.251L35.6783 15.6549V17.0608H38.4995L58.8354 0.54248Z" fill="#CF142B"/>
<path d="M21.1025 31.2358L1.00159 47.637V47.8713H5.35096L24.1587 32.5245V31.2358H21.1025Z" fill="#CF142B"/>
<path d="M1.00159 0.659668V4.29134L16.6356 17.0608H21.22L1.00159 0.659668Z" fill="#CF142B"/>
<path d="M129.012 47.8718H29.9186V6.51758H112.555L129.012 47.8718Z" fill="#59267A"/>
<path d="M124.662 44.9431H32.8573V6.51758" stroke="white" stroke-width="2" stroke-miterlimit="10"/>
<path d="M114.788 42.6C114.201 42.6 113.731 42.2485 113.613 41.6628L111.262 34.3994H103.504L101.27 41.6628C101.035 42.2485 100.565 42.6 100.095 42.6H96.9212C96.451 42.6 96.0983 42.3657 95.8632 42.0142C95.6281 41.6628 95.5106 41.077 95.7457 40.7255L104.562 13.4294C104.797 12.8436 105.267 12.4922 105.737 12.4922H109.029C109.616 12.4922 110.087 12.8436 110.204 13.4294L119.49 40.7255C119.608 41.1942 119.608 41.6628 119.373 42.0142C119.138 42.3657 118.785 42.6 118.315 42.6H114.788ZM109.381 28.4247L107.265 21.63L105.267 28.4247H109.381Z" fill="#59267A" stroke="white" stroke-width="1.5" stroke-miterlimit="10"/>
<path d="M50.4896 42.6C49.7843 42.6 49.1964 41.8971 49.1964 41.1942V13.898C49.1964 13.0779 49.7843 12.4922 50.4896 12.4922H66.0059C66.7112 12.4922 67.2989 13.1951 67.2989 13.898V17.0611C67.2989 17.8811 66.7112 18.4669 66.0059 18.4669H54.8388V24.0901H64.3602C65.0655 24.0901 65.6532 24.793 65.6532 25.4959V28.7762C65.6532 29.5962 65.0655 30.182 64.3602 30.182H54.8388V41.077C54.8388 41.8971 54.2511 42.4828 53.5458 42.4828H50.4896V42.6Z" fill="#59267A" stroke="white" stroke-width="1.5" stroke-miterlimit="10"/>
<path d="M70.4727 42.6C69.7674 42.6 69.1796 41.8971 69.1796 41.1942V13.898C69.1796 13.0779 69.7674 12.4922 70.4727 12.4922H73.5289C74.2342 12.4922 74.8219 13.1951 74.8219 13.898V41.1942C74.8219 42.0142 74.2342 42.6 73.5289 42.6H70.4727Z" fill="#59267A" stroke="white" stroke-width="1.5" stroke-miterlimit="10"/>
<path d="M94.6877 42.6C94.0999 42.6 93.6298 42.2485 93.3947 41.5456L91.2788 34.2823C91.1612 33.8137 90.9261 33.345 90.691 32.8764C90.4559 32.4078 90.1033 32.0564 89.8682 31.8221C89.5156 31.5878 89.1629 31.3535 88.8103 31.1192C88.4576 31.002 87.9874 30.8849 87.6348 30.8849H83.2854V41.077C83.2854 41.8971 82.6977 42.4828 81.9924 42.4828H78.9362C78.2309 42.4828 77.6432 41.7799 77.6432 41.077V13.898C77.6432 13.0779 78.2309 12.4922 78.9362 12.4922H89.0453C89.6331 12.4922 90.3383 12.4922 90.8085 12.4922C91.3963 12.4922 91.984 12.6093 92.5718 12.7265C93.1595 12.8436 93.7472 13.0779 94.335 13.3122C94.9227 13.6637 95.393 14.0151 95.9807 14.4838C96.8035 15.421 97.5088 16.4753 97.8614 17.6468C98.3316 18.8183 98.4492 20.107 98.4492 21.3957C98.4492 22.45 98.3316 23.5044 97.979 24.4416C97.7439 25.3788 97.2737 26.316 96.686 27.0189C96.0982 27.7218 95.5105 28.4247 94.6877 28.8933C95.5105 29.9477 96.2157 31.2363 96.8035 32.9936L99.0369 40.3741C99.1545 40.8427 99.1545 41.3113 98.9194 41.6628C98.6843 42.0142 98.3316 42.2485 97.8614 42.2485H94.6877V42.6ZM88.8103 24.793C89.6331 24.793 90.3383 24.6759 90.9261 24.5587C91.3963 24.4416 91.7489 24.2073 92.1015 23.973C92.3366 23.7387 92.4542 23.5044 92.5718 23.1529C92.6893 22.6843 92.8069 22.0986 92.8069 21.5128C92.8069 20.3413 92.5717 19.6384 92.1015 19.1698C91.5138 18.7012 90.5735 18.3497 89.2805 18.3497H83.2854V24.793H88.8103Z" fill="#59267A" stroke="white" stroke-width="1.5" stroke-miterlimit="10"/>
</svg>
