<svg width="102" height="104" viewBox="0 0 102 104" fill="none" xmlns="http://www.w3.org/2000/svg">
<path d="M55.2745 0.777832C55.3921 0.777832 55.5096 0.894983 55.6272 0.894983C57.1553 1.24644 57.9781 2.18364 58.2132 3.7066C58.3308 4.64381 58.3308 5.69817 57.8606 6.63538C57.2729 7.80689 56.3325 8.39264 55.0394 8.50979C54.4517 8.50979 53.864 8.50979 53.2762 8.27549C52.2183 7.92404 51.513 7.22113 51.1603 6.16677C50.8077 4.99526 50.9253 3.94091 51.2779 2.88655C51.6305 1.83219 52.4534 1.24644 53.5113 1.01213C53.6289 1.01213 53.7464 0.894983 53.864 0.894983C54.4517 0.777832 54.8043 0.777832 55.2745 0.777832ZM56.8027 4.40951C56.8027 4.05806 56.6851 3.4723 56.5676 3.0037C56.3325 2.41795 55.8623 2.06649 55.157 1.94934C54.2166 1.83219 53.3938 2.18364 53.0411 3.0037C52.5709 3.94091 52.5709 4.87811 52.806 5.81532C53.0411 6.63538 53.6289 7.10398 54.5693 7.22113C55.5096 7.33828 56.0974 6.86968 56.45 6.16677C56.6851 5.58102 56.6851 5.11242 56.8027 4.40951Z" fill="black"/>
<path d="M0.732147 45.1781C0.732147 45.0609 0.849694 44.8266 0.849694 44.7095C0.967242 44.1237 1.08479 43.6551 1.31989 43.0693C1.67253 43.1865 2.14273 43.1865 2.49537 43.3036C2.37782 43.4208 2.37782 43.5379 2.37782 43.6551C2.14273 44.1237 2.02518 44.7095 1.90763 45.2952C1.79008 46.8182 2.73047 47.9897 4.37614 48.1068C4.72879 48.1068 4.96389 48.1068 5.31653 48.1068C6.49201 47.8725 7.1973 47.0525 7.31485 45.7638C7.31485 45.5295 7.31485 45.2952 7.31485 44.9438C6.60956 44.8266 6.02182 44.8266 5.43408 44.7095C5.31653 45.2952 5.31653 45.7638 5.19899 46.2324C4.84634 46.2324 4.4937 46.1153 4.0235 46.1153C4.14105 45.1781 4.25859 44.1237 4.37614 43.1865C5.66917 43.3036 7.07975 43.4208 8.37279 43.6551C8.37279 43.8894 8.49033 44.1237 8.49033 44.358C8.60788 45.4124 8.60788 46.4667 8.25524 47.5211C7.90259 48.4583 7.4324 49.1612 6.49201 49.5126C4.96389 50.0984 3.43575 49.8641 2.14272 48.8097C1.55498 48.3411 1.20234 47.7554 1.0848 46.9353C1.0848 46.8182 0.96724 46.5839 0.96724 46.4667C0.732144 45.9981 0.732147 45.6467 0.732147 45.1781Z" fill="black"/>
<path d="M48.4568 103.636C48.2217 103.519 47.9866 103.519 47.6339 103.402C47.5164 103.402 47.3988 103.285 47.1637 103.285C47.2813 102.816 47.2813 102.465 47.3988 101.996C47.5164 102.113 47.6339 102.113 47.7515 102.113C48.1041 102.23 48.5743 102.347 48.927 102.465C49.2796 102.582 49.6322 102.465 49.9849 102.23C50.4551 101.879 50.5726 101.293 50.1024 100.942C49.8673 100.707 49.6322 100.59 49.3971 100.473C49.0445 100.356 48.6919 100.122 48.4568 100.004C47.6339 99.5358 47.2813 98.8329 47.3988 97.8957C47.5164 96.9585 47.9866 96.2556 49.0445 96.0213C49.9849 95.787 50.9253 95.9042 51.8657 96.2556C51.7481 96.7242 51.7481 97.0757 51.6306 97.4271C51.513 97.4271 51.3955 97.31 51.2779 97.31C50.8077 97.1928 50.3375 97.0757 49.8673 97.0757C49.3971 97.0757 49.0445 97.4271 48.927 97.7786C48.8094 98.13 48.9269 98.3643 49.162 98.5986C49.3971 98.7158 49.6322 98.8329 49.7498 98.9501C50.1024 99.1844 50.4551 99.3015 50.8077 99.5358C51.6306 100.004 51.9832 100.707 51.8657 101.645C51.7481 102.582 51.1604 103.168 50.3375 103.402C50.22 103.402 50.1024 103.519 49.9849 103.519C49.5147 103.636 49.0445 103.636 48.4568 103.636Z" fill="black"/>
<path d="M101.706 47.5213C101.353 47.5213 101.001 47.5213 100.648 47.5213C100.648 47.287 100.766 47.0527 100.766 46.8184C100.883 45.764 100.648 44.8268 99.7078 44.1239C98.6499 43.421 97.0042 43.6553 96.0638 44.4753C95.5936 45.0611 95.3585 45.6468 95.4761 46.3498C95.5936 46.8184 95.7111 47.287 95.8287 47.7556C95.8287 47.8727 95.9463 47.9899 95.9463 48.107C95.4761 48.2242 95.1234 48.2242 94.7708 48.3413C94.183 46.9355 94.0655 45.6469 94.5357 44.241C94.8883 43.421 95.4761 42.7181 96.2989 42.4838C96.7691 42.3666 97.2393 42.2495 97.827 42.1323C98.1797 42.1323 98.5323 42.1323 98.885 42.1323C100.296 42.3666 101.236 43.1867 101.589 44.4753C101.589 44.4753 101.589 44.5925 101.706 44.5925C101.706 45.6468 101.706 46.5841 101.706 47.5213Z" fill="black"/>
<path d="M52.2183 14.9531C72.7893 14.9531 89.5987 31.5886 89.5987 52.09C89.7162 72.5914 73.0244 89.4611 52.2183 89.4611C31.5298 89.4611 14.7204 72.5914 14.838 51.9728C14.9555 31.5886 31.5298 14.9531 52.2183 14.9531ZM67.4996 79.9719C67.4996 79.7376 67.4996 79.6204 67.4996 79.5033C67.382 77.8632 67.2645 76.223 67.1469 74.7001C67.0294 72.7085 66.9118 70.8341 66.7943 68.8425C66.6767 66.851 66.5592 64.8594 66.4416 62.7507C66.3241 61.6963 66.3241 60.642 66.2065 59.4705C66.2065 58.6504 66.089 57.7132 66.089 56.8931C66.089 55.253 66.2066 53.7301 66.3241 52.09C66.4417 49.8641 66.5592 47.6382 66.5592 45.2952C66.5592 45.0609 66.5592 44.9438 66.5592 44.7095C66.5592 44.7095 66.5592 44.7095 66.6768 44.7095C69.4979 52.2071 72.3191 59.5876 75.1402 67.0853C77.9614 65.7966 80.665 64.508 83.3686 63.2193C83.2511 62.985 83.2511 62.7507 83.1335 62.6335C80.5474 56.3074 77.9614 50.0984 75.2578 43.7722C73.1419 38.6176 71.026 33.463 68.9102 28.4255C68.7926 28.1912 68.6751 27.9569 68.3224 27.8397C67.2645 27.4883 66.2066 27.1368 65.1486 26.7854C65.0311 26.7854 64.9135 26.6682 64.6784 26.6682C64.3258 27.6054 64.0907 28.5426 63.738 29.597C63.3854 30.5342 63.1503 31.4714 62.7977 32.5258C62.445 33.463 62.2099 34.4002 61.8573 35.3374C61.5046 36.2746 61.2695 37.2118 60.9169 38.2662C60.5642 39.2034 60.3291 40.1406 59.9765 41.1949C58.3308 38.6176 56.6852 36.1574 54.9219 33.5801C53.9815 34.8688 53.1587 36.1574 52.3358 37.5632C51.513 36.2746 50.8077 35.1031 49.9849 33.8144C49.3971 34.6345 48.8094 35.4545 48.1041 36.2746C47.5164 37.0946 46.9286 37.9147 46.3409 38.7348C45.7532 39.5548 45.1654 40.3749 44.5777 41.1949C43.0495 36.2746 41.639 31.4714 40.2284 26.6682C39.9933 26.6682 39.8757 26.7854 39.7582 26.7854C38.5827 27.1368 37.4072 27.6054 36.2317 27.9569C35.9966 28.074 35.7615 28.1912 35.644 28.5426C31.0596 40.0234 26.3577 51.5042 21.7733 63.1021C21.7733 63.2193 21.6558 63.3364 21.6558 63.5707C24.2418 64.8594 26.8279 66.2652 29.4139 67.5539C32.3526 59.9391 35.4089 52.4414 38.3476 44.8266C38.3476 44.9438 38.3476 44.9438 38.3476 45.0609C38.4652 47.1696 38.4652 49.2783 38.5827 51.3871C38.5827 52.6757 38.7003 53.8472 38.7003 55.1359C38.7003 56.1902 38.8178 57.2446 38.7003 58.299C38.5827 60.0562 38.3476 61.8135 38.2301 63.5707C37.995 65.6795 37.8774 67.7882 37.6423 70.014C37.5248 71.4199 37.4072 72.9428 37.2897 74.3486C37.1721 76.1059 36.937 77.9803 36.8195 79.7376C36.8195 79.8547 36.8195 79.9719 36.8195 80.2062C47.0462 79.9719 57.2729 79.9719 67.4996 79.9719ZM45.0479 38.5005C45.1654 38.3833 45.2829 38.2662 45.2829 38.149C46.576 36.3917 47.869 34.6345 49.162 32.8772C49.3971 32.6429 49.3971 32.6429 49.162 32.2915C47.7515 29.9484 46.2233 27.7226 44.8128 25.3796C44.8128 25.2624 44.6952 25.2624 44.5777 25.1453C43.9899 25.2624 41.639 26.0825 41.4039 26.1996C42.5793 30.2999 43.7548 34.4002 45.0479 38.5005ZM59.6239 38.3833C59.859 38.0319 63.6205 26.6682 63.6205 26.1996C62.5626 25.8482 61.6222 25.4967 60.5642 25.1453C58.9186 27.6054 57.3904 30.0656 55.7448 32.4086C57.0378 34.5173 58.3308 36.3917 59.6239 38.3833Z" fill="#006633"/>
<path d="M97.0042 29.011C94.8883 30.1826 92.6549 31.4712 90.539 32.6427C90.1864 32.057 89.9513 31.5884 89.5987 31.1198C90.1864 30.2997 90.7741 29.3625 91.2443 28.5424C91.8321 27.7224 92.3023 26.9023 92.89 25.9651C92.4198 26.0823 92.1847 26.3166 91.9496 26.4337C91.597 26.5509 91.3619 26.7852 91.0092 26.9023C90.6566 27.1366 90.4215 27.2538 90.0688 27.4881C89.7162 27.7224 89.4811 27.8395 89.1285 28.0738C88.7758 28.191 88.5407 28.4253 88.1881 28.6596C87.953 28.191 87.7179 27.8395 87.4828 27.3709C89.5987 26.1994 91.8321 24.9108 93.9479 23.7393C94.3006 24.325 94.5357 24.7936 94.8883 25.3794C93.8304 27.0195 92.6549 28.7767 91.597 30.4169C93.1251 29.5968 94.6532 28.6596 96.2989 27.8395C96.534 28.191 96.7691 28.6596 97.0042 29.011Z" fill="black"/>
<path d="M72.7892 93.444C73.6121 94.967 74.5525 96.6071 75.3753 98.1301C74.9051 98.3644 74.5525 98.5987 74.0823 98.833C72.9068 96.6071 71.7313 94.4984 70.5558 92.2725C71.1436 91.9211 71.6138 91.6868 72.2015 91.3353C73.8472 92.5068 75.4929 93.5612 77.2561 94.7327C77.2561 94.7327 77.2561 94.7327 77.3736 94.7327C76.5508 93.2097 75.7279 91.5696 74.7876 90.0467C75.2578 89.8124 75.6104 89.5781 75.963 89.3438C76.1981 89.5781 79.1369 94.8498 79.607 95.787C79.1369 96.0214 78.5491 96.3728 78.0789 96.6071C77.2561 96.0213 76.4332 95.4356 75.6104 94.8498C74.5525 94.4984 73.7296 93.9126 72.7892 93.444Z" fill="black"/>
<path d="M100.766 69.8966C98.4148 69.1937 96.0638 68.4908 93.7128 67.6708C93.7128 67.5536 93.7128 67.5536 93.7128 67.5536C94.0655 66.6164 94.3006 65.6792 94.6532 64.742C94.7707 64.2734 95.1234 63.9219 95.3585 63.5705C95.9462 62.8676 96.7691 62.5161 97.7095 62.5161C98.6498 62.5161 99.4727 62.8676 100.296 63.3362C101.118 63.9219 101.589 64.6248 101.589 65.6792C101.589 66.3821 101.589 67.085 101.353 67.7879C101.236 68.4908 101.001 69.1937 100.766 69.8966ZM95.2409 66.7335C96.8866 67.2021 98.4148 67.6708 100.06 68.2565C100.531 67.2022 100.648 66.1478 99.8253 65.2106C99.12 64.3905 98.0621 64.0391 97.0042 64.3905C95.9462 64.6248 95.476 65.562 95.2409 66.7335Z" fill="black"/>
<path d="M83.016 93.4441C81.4878 91.5697 79.8422 89.6953 78.314 87.8209C78.314 87.8209 78.314 87.7037 78.4316 87.7037C79.0193 87.2351 79.7246 86.6494 80.3123 86.1807C80.7825 85.8293 81.3703 85.4778 81.958 85.3607C82.8984 85.1264 83.7213 85.2435 84.5441 85.8293C85.2494 86.2979 85.8371 87.0008 86.1898 87.8209C86.5424 88.7581 86.5424 89.5781 86.0722 90.3982C85.8371 90.9839 85.4845 91.4525 85.0143 91.804C84.4265 92.3897 83.7212 92.8584 83.016 93.4441C83.1335 93.4441 83.1335 93.327 83.016 93.4441ZM83.4861 91.5697C83.7212 91.3354 83.9563 91.2182 84.1914 90.9839C85.0143 90.281 85.2494 89.2267 84.7792 88.2895C84.309 87.2351 83.2511 86.5322 82.1931 86.6494C81.3703 86.6494 80.7825 87.2351 80.1948 87.8209C81.2527 88.9924 82.3107 90.281 83.4861 91.5697Z" fill="black"/>
<path d="M11.8992 30.1826C10.2536 30.0655 8.84297 29.2454 8.02013 27.8396C7.54994 27.1367 7.54994 26.3167 7.78504 25.4966C8.02014 24.7937 8.37278 24.208 8.84298 23.7393C9.78336 22.8021 10.8413 22.4507 12.1343 22.8021C13.1923 23.0364 14.1326 23.6222 14.8379 24.5594C15.6608 25.4966 15.7783 26.6681 15.3081 27.8396C15.073 28.5425 14.6028 29.2454 13.8975 29.714C13.1923 29.9483 12.6045 30.1826 11.8992 30.1826ZM12.0168 28.6597C12.9572 28.6597 13.5449 28.3082 13.8975 27.6053C14.2502 26.9024 14.2502 26.3167 13.78 25.6138C13.1923 24.6766 12.3694 24.208 11.3115 23.9737C10.4887 23.8565 9.78337 24.0908 9.31317 24.7937C8.84298 25.4966 8.84297 26.1995 9.19562 26.7853C9.90091 27.9568 10.8413 28.5425 12.0168 28.6597Z" fill="black"/>
<path d="M19.6574 16.4762C19.775 16.359 19.8925 16.359 19.8925 16.359C20.5978 16.0076 21.3031 16.0076 21.8908 16.5933C22.4786 17.1791 22.7137 17.882 22.4786 18.7021C22.361 19.1707 22.1259 19.5221 21.7733 19.7564C21.068 20.4593 20.3627 21.1622 19.6574 21.8651C17.8942 20.1079 16.2485 18.3506 14.4853 16.4762C14.4853 16.359 14.6028 16.359 14.6028 16.2419C15.1906 15.6561 15.7783 15.0704 16.3661 14.6018C16.7187 14.3675 16.9538 14.1332 17.3065 13.8989C18.0117 13.5474 18.717 13.6646 19.3048 14.2503C19.8925 14.8361 20.0101 15.4218 19.6574 16.1247C19.6574 16.359 19.6574 16.359 19.6574 16.4762ZM19.8925 19.9907C20.2452 19.6393 20.5978 19.2878 20.8329 18.8192C21.1855 18.3506 21.068 17.9991 20.7154 17.6477C20.3627 17.2962 19.8925 17.1791 19.4223 17.4134C18.9521 17.6477 18.717 17.9991 18.3644 18.3506C18.9521 18.9364 19.4223 19.405 19.8925 19.9907ZM16.3661 16.2419C16.8363 16.7105 17.1889 17.1791 17.6591 17.5305C18.0117 17.1791 18.3644 16.8276 18.5995 16.4762C18.717 16.1247 18.717 15.8904 18.4819 15.539C18.2468 15.1875 17.7766 15.0704 17.424 15.3047C17.0714 15.6561 16.7187 16.0076 16.3661 16.2419Z" fill="black"/>
<path d="M80.4299 10.033C80.1948 10.3844 79.9597 10.7359 79.7246 10.9702C79.607 10.8531 79.607 10.8531 79.4895 10.7359C79.0193 10.2673 78.5491 9.79869 77.9614 9.56439C76.7859 8.97864 75.6104 9.21294 74.7876 10.1501C74.3174 10.7359 74.0823 11.3217 74.0823 12.0246C74.0823 12.6103 74.3174 13.1961 74.67 13.6647C75.0226 14.1333 75.6104 14.3676 76.1981 14.6019C76.5508 14.0161 76.9034 13.5475 77.2561 12.9618C76.7859 12.7275 76.4332 12.376 75.963 12.1417C76.1981 11.7903 76.3157 11.556 76.5508 11.2045C77.3736 11.6731 78.1965 12.2589 79.1368 12.7275C78.4316 13.899 77.7263 14.9533 77.021 16.1248C76.7859 16.0077 76.6683 16.0077 76.4332 15.8905C75.3753 15.5391 74.4349 15.0705 73.6121 14.2504C72.5541 13.1961 72.319 11.7903 72.9068 10.3844C73.1419 9.79869 73.6121 9.21294 74.0823 8.74434C75.0226 7.92428 76.0806 7.57283 77.2561 7.92428C78.4316 8.15858 79.4895 8.97864 80.4299 10.033Z" fill="black"/>
<path d="M95.241 73.1772C95.5936 73.1772 95.8287 73.0601 96.1814 73.0601C97.2393 73.1772 98.1797 73.2944 99.2376 73.2944C99.2376 73.2944 99.2376 73.2944 99.3552 73.4115C99.1201 73.8802 98.885 74.3488 98.6499 74.8174C98.5323 74.8174 98.4148 74.8174 98.2972 74.8174C97.5919 74.7002 96.8866 74.7002 96.1814 74.5831C95.4761 74.4659 95.241 74.5831 94.8883 75.286C94.8883 75.4031 94.7708 75.4031 94.7708 75.6374C95.7112 76.106 96.534 76.5746 97.4744 77.0432C97.2393 77.5118 97.0042 77.8633 96.7691 78.3319C94.5357 77.1604 92.4198 75.9889 90.1864 74.8174C90.7741 73.8802 91.2443 72.8258 91.8321 71.8886C91.9496 71.7714 91.9496 71.7714 92.0672 71.6543C92.89 70.8342 93.9479 70.7171 94.8883 71.5371C95.241 71.8886 95.4761 72.3572 95.3585 72.943C95.241 73.0601 95.241 73.1772 95.241 73.1772ZM93.5953 74.9345C93.8304 74.5831 94.0655 74.1145 94.183 73.6459C94.3006 73.1772 94.0655 72.8258 93.5953 72.5915C93.2426 72.3572 92.89 72.4743 92.5374 72.8258C92.3023 73.1772 92.0672 73.5287 91.8321 73.9973C92.5374 74.3488 93.0076 74.7002 93.5953 74.9345Z" fill="black"/>
<path d="M67.6171 11.2042C67.1469 11.0871 66.6767 10.8528 66.2066 10.7356C65.9715 10.7356 65.9715 10.5013 65.9715 10.3842C65.9715 9.79844 65.9715 9.32983 65.8539 8.74408C65.8539 8.50978 65.8539 8.27548 65.8539 7.92402C65.8539 7.57257 65.6188 7.22112 65.2662 7.10397C65.1486 7.10397 64.9135 6.98682 64.6784 6.86967C64.3258 7.80687 64.0907 8.86123 63.738 9.79844C63.2679 9.68129 62.7976 9.44699 62.3275 9.32983C63.1503 6.98682 63.8556 4.6438 64.6784 2.30078C64.796 2.30078 64.796 2.30078 64.9135 2.30078C65.6188 2.53508 66.3241 2.76939 67.0294 3.00369C67.382 3.12084 67.8522 3.35514 68.2049 3.47229C69.0277 3.94089 69.2628 4.6438 69.0277 5.46386C68.7926 6.28391 68.0873 6.86967 67.2645 6.75252H67.1469C67.4996 7.22112 67.4996 7.80687 67.4996 8.39263C67.4996 8.97838 67.6171 9.68129 67.6171 10.267C67.6171 10.8528 67.6171 10.9699 67.6171 11.2042ZM65.1486 5.93246C65.6188 6.16676 66.089 6.28391 66.5592 6.28391C67.0294 6.28391 67.2645 6.04961 67.382 5.58101C67.4996 5.22955 67.382 4.8781 67.0294 4.6438C66.6767 4.4095 66.2066 4.1752 65.6188 4.05804C65.5013 4.6438 65.3837 5.22955 65.1486 5.93246Z" fill="black"/>
<path d="M85.1318 23.9735C84.6616 23.6221 84.309 23.2706 83.9563 22.9192C84.1914 22.3334 84.4265 21.8648 84.7792 21.279C84.0739 20.5761 83.3686 19.8732 82.6633 19.1703C82.0756 19.4046 81.6054 19.6389 81.1352 19.8732C80.665 19.5218 80.3123 19.1703 79.9597 18.8189C82.4282 17.7645 84.8967 16.8273 87.2477 15.7729C87.7179 16.1244 88.0705 16.593 88.5407 16.9445C87.3652 19.2875 86.3073 21.6305 85.1318 23.9735ZM86.7775 17.4131C86.6599 17.2959 86.6599 17.2959 86.7775 17.4131C85.8371 17.7645 84.8967 18.2331 83.8388 18.5846C84.309 19.1703 84.7792 19.6389 85.3669 20.1075C85.8371 19.1703 86.3073 18.2331 86.7775 17.4131Z" fill="black"/>
<path d="M86.1898 80.2061C86.5424 79.7375 86.8951 79.3861 87.2477 78.9175C89.8338 79.7375 92.3023 80.4404 94.8883 81.2605C94.5357 81.7291 94.3006 82.0806 93.948 82.432C93.8304 82.5492 93.7129 82.5492 93.5953 82.5492C93.1251 82.432 92.6549 82.1977 92.1847 82.0806C91.597 82.9006 90.8917 83.6035 90.3039 84.4236C90.6566 84.8922 90.8917 85.4779 91.2443 85.9465C90.8917 86.298 90.6566 86.7666 90.3039 87.118C88.8934 84.775 87.6003 82.5492 86.1898 80.2061ZM91.0092 81.6119C89.9513 81.2605 89.0109 80.909 88.0705 80.5576C88.0705 80.5576 88.0705 80.5576 88.0705 80.6747C88.6583 81.4948 89.1285 82.432 89.7162 83.2521C89.8338 83.2521 89.8338 83.1349 89.8338 83.1349C90.0689 82.6663 90.5391 82.1977 91.0092 81.6119Z" fill="black"/>
<path d="M70.9085 100.239C70.3207 100.473 69.8505 100.59 69.3803 100.707C69.0277 100.239 68.6751 99.7702 68.2049 99.3016C67.9698 99.4188 67.7347 99.4188 67.4996 99.5359C66.9118 99.7702 66.3241 99.8874 65.6188 100.122C65.3837 100.239 65.2662 100.356 65.2662 100.59C65.2662 101.059 65.2662 101.527 65.1486 102.113C64.6784 102.23 64.2082 102.348 63.738 102.582C63.738 102.465 63.738 102.348 63.738 102.23C63.8556 99.7702 64.0907 97.4272 64.2082 94.967C64.2082 94.7327 64.3258 94.6156 64.5609 94.4984C65.0311 94.3813 65.3837 94.2641 65.8539 94.147C67.4996 96.0214 69.1452 98.1301 70.9085 100.239ZM67.382 98.3644C67.0294 97.7786 65.7364 96.0214 65.5013 95.9042C65.5013 96.9586 65.3837 97.8958 65.3837 99.0673C66.089 98.7159 66.6767 98.4816 67.382 98.3644Z" fill="black"/>
<path d="M32.8228 12.1415C32.3526 12.493 31.8824 12.7273 31.4122 12.9616C30.9421 12.6101 30.4719 12.2587 30.0017 11.7901C29.1788 12.2587 28.2384 12.7273 27.4156 13.313C27.5331 13.8988 27.6507 14.4845 27.6507 15.0703C27.1805 15.3046 26.8279 15.5389 26.3577 15.8904C25.8875 13.1959 25.5348 10.6186 25.0646 8.04125C25.5348 7.80695 26.005 7.45549 26.4752 7.22119C28.5911 8.8613 30.707 10.5014 32.8228 12.1415ZM28.9437 11.0872C28.4735 10.6186 26.8279 9.21276 26.4752 9.09561C26.7103 10.15 26.8279 11.0872 27.063 12.1415C27.7683 11.6729 28.356 11.4386 28.9437 11.0872Z" fill="black"/>
<path d="M14.2502 80.2062C14.9555 80.089 15.5432 80.0891 16.131 79.9719C16.4836 79.9719 16.7187 79.8547 17.0714 79.8547C17.1889 79.8547 17.3065 79.8548 17.424 79.9719C17.6591 80.3234 18.0117 80.6748 18.2468 81.1434C16.8363 81.2606 15.4257 81.3777 14.0151 81.4949C13.4274 82.9007 12.9572 84.3065 12.3694 85.7123C12.0168 85.2437 11.6641 84.7751 11.429 84.4236C11.429 84.3065 11.429 84.1893 11.429 84.0722C11.7817 83.2521 12.0168 82.5492 12.3694 81.7292C12.3694 81.612 12.487 81.4949 12.487 81.2606C12.1343 81.2606 11.8992 81.2606 11.6641 81.3777C10.9589 81.4949 10.2536 81.4949 9.54827 81.612C9.31317 81.612 9.07808 81.612 8.96053 81.3777C8.72543 81.0263 8.49034 80.6748 8.1377 80.3233C8.49034 80.3233 8.84298 80.2062 9.19562 80.2062C10.2536 80.089 11.3115 79.9719 12.487 79.9719C12.7221 79.9719 12.8396 79.8547 12.8396 79.6204C13.1923 78.5661 13.6625 77.5117 14.0151 76.4574C14.0151 76.3402 14.1327 76.2231 14.2502 75.9888C14.6028 76.4574 14.9555 76.926 15.3081 77.3946C15.073 78.3318 14.6028 79.269 14.2502 80.2062Z" fill="black"/>
<path d="M8.13769 73.2944C7.54995 73.6459 6.9622 73.8802 6.25691 74.2316C6.7271 75.0517 7.07975 75.9889 7.54995 76.8089C7.1973 77.0432 6.84465 77.1604 6.49201 77.3947C5.78672 76.106 5.19897 74.8174 4.49368 73.5287C6.7271 72.3572 8.84298 71.3029 11.0764 70.1313C11.7817 71.42 12.3694 72.7087 13.0747 73.9973C12.7221 74.2316 12.3694 74.3488 12.0168 74.5831C11.5466 73.763 11.1939 72.943 10.7237 72.0058C10.136 72.2401 9.66581 72.5915 9.07807 72.8258C9.43071 73.6459 9.90091 74.3488 10.2536 75.1688C9.90091 75.4031 9.54826 75.5203 9.19561 75.7546C8.96052 74.8174 8.49033 74.1145 8.13769 73.2944Z" fill="black"/>
<path d="M35.9966 97.7789C35.7616 98.4818 35.5265 99.0675 35.2914 99.7704C36.2317 100.122 37.1721 100.356 38.1125 100.708C37.995 101.059 37.8774 101.411 37.7599 101.762C36.3493 101.293 34.9387 100.825 33.5281 100.356C34.351 98.0132 35.0563 95.6702 35.8791 93.3271C37.2897 93.7958 38.7003 94.2644 39.9933 94.733C39.8757 95.0844 39.7582 95.4359 39.6406 95.7873C38.7003 95.4359 37.8774 95.2016 36.937 94.8501C36.7019 95.4359 36.5844 96.0216 36.3493 96.6074C37.1721 96.8417 37.995 97.1931 38.8178 97.4274C38.8178 97.7789 38.5827 98.1303 38.4652 98.5989C37.6423 98.2475 36.8195 98.0132 35.9966 97.7789Z" fill="black"/>
<path d="M21.3031 85.7123C19.8925 87.2353 18.4819 88.7583 17.0714 90.2812C16.7187 89.9298 16.3661 89.5783 16.0134 89.2269C17.424 87.7039 18.8346 86.181 20.2452 84.658C19.775 84.1894 19.1872 83.7208 18.717 83.2522C18.9521 83.0179 19.1872 82.6664 19.5399 82.4321C20.9505 83.7208 22.361 85.0094 23.7716 86.2981C23.5365 86.6496 23.3014 86.8839 22.9488 87.1182C22.361 86.6496 21.8908 86.181 21.3031 85.7123Z" fill="black"/>
<path d="M8.02014 64.8591C7.78504 64.1562 7.54994 63.5705 7.4324 62.8676C7.78504 62.7504 8.13769 62.6333 8.60788 62.5161C9.19562 64.2734 9.78336 66.1478 10.3711 68.0222C10.0185 68.1394 9.66581 68.2565 9.19562 68.3737C8.96052 67.6708 8.72543 67.085 8.49033 66.3821C6.49201 66.9678 4.49369 67.6708 2.49537 68.2565C2.37782 67.7879 2.14273 67.3193 2.02518 66.8507C4.0235 66.1478 6.02182 65.4449 8.02014 64.8591Z" fill="black"/>
<path d="M57.2729 103.402C57.0378 101.293 56.8027 99.3016 56.5676 97.1928C55.8623 97.31 55.157 97.31 54.4517 97.4271C54.4517 97.0757 54.3342 96.7242 54.3342 96.2556C56.2149 96.0213 58.0957 95.787 60.094 95.5527C60.094 95.9042 60.2116 96.2556 60.2116 96.7242C59.5063 96.8414 58.801 96.8414 58.0957 96.9586C58.0957 97.0757 58.0957 97.1928 58.0957 97.31C58.3308 99.0673 58.5659 100.825 58.6835 102.699C58.6835 102.816 58.6835 103.05 58.6835 103.168C58.2133 103.285 57.7431 103.285 57.2729 103.402Z" fill="black"/>
<path d="M29.7666 90.3984C30.2368 90.6327 30.5894 90.867 31.0596 91.1014C30.1192 92.9758 29.1788 94.733 28.1209 96.6074C28.9437 97.076 29.7666 97.5446 30.707 97.8961C30.4719 98.2476 30.3543 98.599 30.1192 98.9505C28.8262 98.2476 27.5331 97.6618 26.2401 96.9589C27.4156 94.733 28.5911 92.6243 29.7666 90.3984Z" fill="black"/>
<path d="M3.20066 35.22C5.19898 35.9229 7.07975 36.5087 9.07807 37.2116C9.43072 36.2744 9.66582 35.4543 10.0185 34.5171C10.3711 34.6342 10.7238 34.7514 11.0764 34.8685C10.6062 36.2744 10.136 37.563 9.66581 38.9688C7.31485 38.1488 4.96388 37.3287 2.61292 36.5087C2.84801 36.1572 3.08311 35.6886 3.20066 35.22Z" fill="black"/>
<path d="M37.7599 9.09579C38.7002 8.86149 39.6406 8.51004 40.4635 8.27573C40.581 8.62719 40.6986 8.97864 40.8161 9.33009C39.4055 9.79869 38.1125 10.1501 36.5844 10.6188C35.8791 8.27573 35.0562 5.93272 34.351 3.5897C34.8211 3.47255 35.2913 3.3554 35.7615 3.12109C36.5844 5.11266 37.1721 7.10422 37.7599 9.09579Z" fill="black"/>
<path d="M22.7137 94.7327C22.2435 94.3813 21.8909 94.1469 21.5382 93.9126C22.9488 91.9211 24.3594 89.9295 25.77 87.8208C26.2401 88.0551 26.5928 88.4066 26.9454 88.6409C25.5349 90.6324 24.1243 92.624 22.7137 94.7327Z" fill="black"/>
<path d="M99.3551 34.7515C99.4727 35.2201 99.7078 35.6887 99.8253 36.0401C99.5903 36.2744 93.5953 38.266 92.7724 38.3831C92.6549 37.9145 92.4198 37.4459 92.3022 36.9773C94.6532 36.2744 97.0042 35.5715 99.3551 34.7515Z" fill="black"/>
<path d="M45.0479 38.5003C43.7548 34.4 42.5794 30.2997 41.4039 26.3166C41.639 26.0823 44.1075 25.2622 44.5777 25.2622C44.5777 25.3794 44.6952 25.3794 44.8128 25.4965C46.2234 27.8395 47.7515 30.0654 49.1621 32.4084C49.3972 32.7599 49.3972 32.7599 49.1621 32.9942C47.869 34.7514 46.576 36.5087 45.283 38.266C45.283 38.266 45.1654 38.3831 45.0479 38.5003Z" fill="white"/>
<path d="M59.6238 38.3831C58.3308 36.3915 57.0378 34.3999 55.7448 32.4084C57.3904 29.9482 58.9185 27.6052 60.5642 25.145C61.6222 25.4965 62.6801 25.8479 63.6205 26.1994C63.6205 26.668 59.8589 38.0316 59.6238 38.3831Z" fill="white"/>
</svg>
