<svg width="137" height="112" viewBox="0 0 137 112" fill="none" xmlns="http://www.w3.org/2000/svg">
<path d="M42.6365 9.65249C45.1035 9.65249 47.1033 7.65938 47.1033 5.20076C47.1033 2.74213 45.1035 0.749023 42.6365 0.749023C40.1695 0.749023 38.1697 2.74213 38.1697 5.20076C38.1697 7.65938 40.1695 9.65249 42.6365 9.65249Z" fill="#6CAED6" stroke="#085664" stroke-width="0.5" stroke-miterlimit="10"/>
<path d="M44.0471 10.3555H41.1084C40.7557 10.3555 40.5206 10.5898 40.5206 10.9412C40.5206 11.2927 40.7557 11.527 41.1084 11.527H44.0471C44.3997 11.527 44.6348 11.2927 44.6348 10.9412C44.7524 10.5898 44.3997 10.3555 44.0471 10.3555Z" fill="#6CAED6" stroke="#085664" stroke-width="0.5" stroke-miterlimit="10"/>
<path d="M42.6365 12.23C42.0487 12.23 41.5785 12.4643 41.5785 13.1672L41.6961 42.8064C42.0487 42.6892 42.4013 42.4549 42.754 42.2206C42.8715 42.1035 43.1066 42.1035 43.2242 42.1035C43.3417 42.1035 43.3418 41.9863 43.4593 41.9863L43.5768 13.1672C43.5768 12.3471 43.1066 12.23 42.6365 12.23Z" fill="#6CAED6" stroke="#085664" stroke-width="0.5" stroke-miterlimit="10"/>
<path d="M41.8136 58.3871C42.2838 58.1528 42.8715 58.0356 43.3417 58.0356V54.8726C42.7539 54.9897 42.2838 54.9897 41.696 54.9897L41.8136 58.3871Z" fill="#6CAED6" stroke="#085664" stroke-width="0.5" stroke-miterlimit="10"/>
<path d="M42.8715 76.0771C42.5189 76.1943 42.2838 76.3115 41.9312 76.4286V79.3574L42.0487 79.4745C42.0487 79.4745 42.0486 79.4745 42.1662 79.5917C42.1662 79.5917 42.1662 79.7088 42.2838 79.7088C42.5189 79.4745 42.8715 79.3574 43.2242 79.2402C43.3417 79.2402 43.3417 79.2402 43.4593 79.2402V76.1943C43.3417 76.1943 43.3417 76.1943 43.2242 76.1943C43.1066 76.1943 42.9891 76.1943 42.8715 76.0771Z" fill="#6CAED6" stroke="#085664" stroke-width="0.5" stroke-miterlimit="10"/>
<path d="M42.0487 83.6917V86.7376C42.1663 86.7376 42.1663 86.8547 42.2838 86.8547L42.4013 86.9719C42.754 86.7376 43.1066 86.7376 43.3417 86.8547V83.1059C43.2242 83.1059 42.9891 83.1059 42.8716 82.9888C42.5189 83.2231 42.2838 83.4574 42.0487 83.6917Z" fill="#6CAED6" stroke="#085664" stroke-width="0.5" stroke-miterlimit="10"/>
<path d="M42.6364 90.0181C42.4014 90.1352 42.2838 90.2524 42.0487 90.3695V96.1099C42.0487 96.93 43.2242 96.93 43.2242 96.1099V90.2524C43.1066 90.2524 42.9891 90.2524 42.8716 90.1352C42.8716 90.1352 42.754 90.1352 42.6364 90.0181Z" fill="#6CAED6" stroke="#085664" stroke-width="0.5" stroke-miterlimit="10"/>
<path d="M43.2242 69.0482C42.9891 68.9311 42.8715 68.8139 42.7539 68.6968C42.5188 68.8139 42.1662 68.8139 41.9312 68.9311V72.4456C42.1662 72.5628 42.2838 72.5628 42.5189 72.7971C42.754 72.6799 43.1066 72.6799 43.3417 72.5628C43.3417 72.5628 43.3417 72.5628 43.4593 72.5628V69.1654C43.3417 69.0482 43.3417 69.0482 43.2242 69.0482Z" fill="#6CAED6" stroke="#085664" stroke-width="0.5" stroke-miterlimit="10"/>
<path d="M41.9312 64.7136C42.0487 64.8307 42.0486 64.9479 42.1662 64.9479C42.1662 64.9479 42.1662 65.065 42.2838 65.065C42.6364 64.9479 42.989 64.8307 43.3417 64.7136H43.4593V62.1362C42.9891 62.2534 42.4013 62.3705 41.9312 62.6048V64.7136Z" fill="#6CAED6" stroke="#085664" stroke-width="0.5" stroke-miterlimit="10"/>
<path d="M41.8136 48.1951V51.0067C42.2838 50.8896 42.754 50.7724 43.1067 50.6553C43.2242 50.6553 43.3418 50.6553 43.4593 50.5381V47.7265C43.2242 47.7265 43.1067 47.7265 42.8716 47.6094C42.5189 47.8437 42.1662 48.078 41.8136 48.1951Z" fill="#6CAED6" stroke="#085664" stroke-width="0.5" stroke-miterlimit="10"/>
<path d="M36.2888 18.5557C34.5256 17.7357 36.0538 16.447 36.759 15.2755C37.3468 14.104 38.1696 12.2296 37.9345 10.9409C37.5819 9.18365 35.5835 7.89499 33.9379 7.66069C31.822 7.30924 30.6466 8.12929 29.0009 9.18365C27.2377 10.238 25.8271 11.1752 23.8287 11.9953C17.3636 14.5726 7.72466 18.6729 0.789307 19.3758C2.31743 21.3673 5.02102 23.1246 7.37198 23.2418C7.25443 24.4133 9.60541 25.7019 10.5458 26.0534C11.7213 26.4048 13.6021 26.4048 14.66 25.8191C16.1881 28.1621 19.7146 28.9822 22.0655 27.1077C22.1831 28.2792 24.1814 28.865 25.1217 29.0993C26.7674 29.4508 27.7078 28.865 29.2359 28.5135C30.1763 28.2792 30.6465 28.865 31.5869 29.0993C32.7624 29.3336 33.7028 29.2165 34.7607 28.7479C35.2309 28.5135 35.1134 28.3964 35.5836 28.3964C35.9362 28.3964 36.4064 28.7479 36.759 28.865C37.817 28.9822 38.4048 28.2792 38.9925 27.5763C39.5802 26.8734 40.168 25.3505 40.7557 23.7104V18.79C39.11 19.0243 36.759 18.9072 36.2888 18.5557Z" fill="#6CAED6" stroke="#085664" stroke-width="0.5" stroke-miterlimit="10"/>
<path d="M56.1545 9.18365C54.5088 8.12929 53.3333 7.30924 51.2174 7.66069C49.5718 7.89499 47.5735 9.18365 47.2208 10.9409C46.9857 12.2296 47.691 14.2211 48.3963 15.2755C48.9841 16.447 50.6297 17.6185 48.8665 18.5557C48.2787 18.79 46.1629 19.0243 44.3997 18.79V24.0618C44.9874 25.5848 45.5752 26.8734 46.0454 27.5763C46.6331 28.2792 47.3384 28.9822 48.2787 28.865C48.6314 28.865 49.1016 28.3964 49.4542 28.3964C49.9244 28.3964 49.8069 28.5135 50.2771 28.7479C51.335 29.3336 52.2754 29.4508 53.4509 29.0993C54.5088 28.865 54.8615 28.2792 55.8019 28.5135C57.33 28.865 58.2704 29.4508 59.916 29.0993C60.8564 28.865 62.8547 28.2792 62.9723 27.1077C65.2057 28.9822 68.8497 28.1621 70.3778 25.8191C71.4357 26.4048 73.3165 26.522 74.492 26.0534C75.4324 25.7019 77.7834 24.4133 77.6658 23.2418C80.1343 23.1246 82.7204 21.3673 84.2486 19.3758C77.3132 18.6729 67.6742 14.5726 61.209 11.9953C59.3283 11.1752 57.9177 10.3552 56.1545 9.18365Z" fill="#6CAED6" stroke="#085664" stroke-width="0.5" stroke-miterlimit="10"/>
<path d="M31.5869 38.1203C30.1763 37.1831 31.9396 36.2459 32.6448 36.0116C34.4081 35.4258 36.4064 34.7229 37.9345 33.3171C38.5223 32.8485 39.3451 31.3255 38.5223 30.6226C37.817 30.154 35.9362 30.6226 35.1133 30.7398C34.1729 30.8569 32.8799 30.9741 32.0571 31.5598C31.5869 31.9113 28.7658 32.8485 27.8254 35.543C27.3552 36.8316 27.4727 38.5889 28.4131 39.7604C30.2939 41.8691 32.1747 42.572 34.2905 43.6264C34.8783 43.8607 35.8187 44.3293 36.9941 44.7979C37.1117 44.6807 40.403 43.5092 41.5785 42.6892C38.7573 41.5177 36.759 40.6976 35.8187 40.229C33.9379 39.409 32.5273 38.706 31.5869 38.1203Z" fill="#6CAED6" stroke="#085664" stroke-width="0.5" stroke-miterlimit="10"/>
<path d="M43.5768 88.8467C43.3417 89.081 43.2242 89.3153 42.8716 89.5496C42.9891 89.6667 43.1067 89.901 43.2242 89.901C44.8699 91.7755 43.812 93.1813 44.0471 93.2984C44.0471 93.2984 44.3997 93.0641 44.6348 92.3612C44.8699 91.6583 44.7523 90.4868 43.9295 89.4324C43.9295 89.3153 43.6944 88.9638 43.5768 88.8467Z" fill="#6CAED6" stroke="#085664" stroke-width="0.5" stroke-miterlimit="10"/>
<path d="M45.4576 74.6714C44.7523 75.2571 44.047 75.6086 43.2242 76.0772C44.2821 76.5458 45.1049 77.1316 45.34 77.2487C45.4576 77.3659 44.7522 78.5374 43.9294 79.1231C43.1066 79.826 42.1662 80.5289 41.3434 81.1147C40.5206 81.8176 39.5802 82.5205 39.11 83.692C38.5222 84.9807 39.2275 86.2693 40.0503 86.9722C40.403 87.3237 41.1083 88.0266 41.3434 88.2609C41.461 88.1437 41.9311 87.7923 42.0487 87.4408C40.2854 85.9179 39.11 84.1606 42.2838 82.5205C43.1066 81.9347 44.047 81.349 45.1049 80.5289C45.5751 80.1775 46.0453 79.7089 46.5155 79.1231C46.8681 78.5374 47.691 77.8345 47.2208 76.5458C46.8682 75.4914 46.1629 75.0228 45.4576 74.6714Z" fill="#6CAED6" stroke="#085664" stroke-width="0.5" stroke-miterlimit="10"/>
<path d="M48.0437 60.6133C47.9261 60.7304 45.105 61.7848 43.9295 62.3705C44.5172 62.4877 45.105 62.722 45.6927 62.8391C46.0453 62.9563 46.398 63.0735 46.6331 63.1906C46.6331 63.3078 46.5156 63.3078 46.398 63.4249C46.0454 63.7764 45.5752 64.0107 44.8699 64.3621C43.5769 64.9479 42.1663 65.5336 40.8732 66.2365C39.5802 67.0566 38.1696 67.1737 36.7591 69.0481C35.9362 70.1025 36.6415 71.7426 37.2293 72.3284C37.817 73.0313 38.5223 73.4999 39.11 73.8513C39.3451 73.9685 39.5802 74.0856 39.8153 74.2028C40.5206 73.617 41.3434 73.3827 42.0487 72.9141C41.461 72.5627 40.8732 72.3284 40.403 71.8598C39.3451 71.1569 38.6399 70.1025 38.9925 70.2197C39.2276 69.8682 40.8732 69.0481 42.0487 68.4624C43.3418 67.8766 44.6348 67.2909 46.0454 66.7051C46.6331 66.4708 47.5735 66.0022 48.2788 65.4165C48.8665 64.8307 50.2771 63.6592 49.2191 61.7848C48.8665 61.199 48.3963 60.8476 48.0437 60.6133Z" fill="#6CAED6" stroke="#085664" stroke-width="0.5" stroke-miterlimit="10"/>
<path d="M50.3946 46.2038C49.6893 45.8524 48.8665 45.5009 48.1612 45.2666C47.3384 45.8524 44.047 47.141 43.3417 47.3753C44.1645 47.7268 44.9874 47.9611 45.9278 48.3125C46.9857 48.664 47.8085 49.0154 48.8665 49.3669C49.1016 49.484 49.3367 49.6012 49.5718 49.7183C49.2192 49.8355 48.8665 49.9526 48.5138 50.0698C47.3384 50.4212 46.1629 50.6555 44.8699 50.7727C42.4014 51.2413 39.2275 51.1241 36.2888 52.7643C35.4659 53.2329 34.7607 53.5843 33.9378 54.7558C33.5852 55.3416 33.3501 56.3959 33.7028 57.0988C34.0554 57.8017 34.408 58.2703 34.7607 58.6218C35.466 59.2076 36.2888 59.6762 36.9941 60.0276C37.817 59.7933 38.6398 59.4419 39.4626 59.0904C39.6977 58.9733 39.8152 58.9733 40.0503 58.8561C40.5205 58.6218 40.9907 58.5047 41.4609 58.2703C41.1083 58.1532 40.7556 58.036 40.403 57.9189C39.1099 57.4503 37.8169 56.8645 37.1116 56.1616C37.1116 56.1616 37.1117 56.1616 36.9941 56.1616C37.2292 56.0445 37.5818 55.8102 37.9345 55.5759C40.0504 54.5215 42.754 54.4044 45.5751 54.0529C46.9857 53.8186 48.2787 53.5843 49.6893 53.2329C50.3946 52.9986 50.9824 52.8814 51.6877 52.53C52.8631 52.0614 53.6859 51.4756 54.1561 50.0698C54.5088 48.1954 50.9823 46.5553 50.3946 46.2038Z" fill="#6CAED6" stroke="#085664" stroke-width="0.5" stroke-miterlimit="10"/>
<path d="M44.2821 81.583C43.9295 81.9345 43.2242 82.5202 43.1066 82.6374C47.3384 85.0975 42.0487 87.3234 41.1083 89.4321C40.403 90.4865 40.1679 91.658 40.403 92.3609C40.6381 93.0638 40.9907 93.2981 40.9907 93.2981C41.2258 93.2981 40.1679 91.7751 41.8136 89.9007C42.5189 88.9635 43.6943 88.1435 45.1049 86.8548C45.8102 86.269 46.6331 84.9804 46.0453 83.5746C45.5752 82.8717 44.9874 82.1688 44.2821 81.583Z" fill="#6CAED6" stroke="#085664" stroke-width="0.5" stroke-miterlimit="10"/>
<path d="M46.2804 67.1738C46.2804 67.1738 44.2821 68.2282 43.3417 68.6968C44.5171 69.1654 45.9278 69.9854 46.1629 70.3369C46.5155 70.2197 45.8102 71.3913 44.7523 71.977C43.6943 72.6799 42.5189 73.2657 41.4609 73.9686C40.5205 74.6715 38.7573 74.5543 37.9345 76.663C37.4643 77.9517 38.2871 78.6546 38.6397 79.2404C39.1099 79.8261 39.5801 80.1776 40.0503 80.6462C40.2854 80.7633 40.403 80.8805 40.6381 80.9976C41.2258 80.6462 41.696 80.2947 42.2838 80.0604C41.9311 79.8261 41.5785 79.4747 41.2258 79.2404C40.403 78.6546 39.5801 77.4831 39.8152 77.366C40.0503 77.2488 41.2259 76.4287 42.5189 75.9601C43.6944 75.3744 44.8698 74.7886 46.1629 73.9686C46.7506 73.6171 47.4559 73.1485 48.0436 72.4456C48.6313 71.8599 49.3367 70.2197 48.5138 69.1654C47.5734 67.9939 46.9857 67.5253 46.2804 67.1738Z" fill="#6CAED6" stroke="#085664" stroke-width="0.5" stroke-miterlimit="10"/>
<path d="M50.1596 53.7012C49.2192 54.0526 45.5752 54.7555 44.7523 54.9898C45.6927 55.2241 46.6331 55.4584 47.4559 55.8099C47.8086 55.927 48.1613 56.2785 48.3964 56.3956C48.3964 56.3956 48.3963 56.3956 48.2788 56.3956C47.5735 56.9814 46.1629 57.6843 44.9874 58.1529C43.6944 58.6215 42.2839 58.973 40.7557 59.4416C40.0504 59.6759 39.3451 59.9102 38.6398 60.1445C38.0521 60.4959 36.759 60.3788 35.9362 61.9017C34.9958 63.7761 36.4064 64.9477 36.8766 65.5334C37.4643 66.1192 38.1696 66.4706 38.6398 66.7049C39.6977 66.2363 40.7557 65.8849 41.8136 65.4163C41.9312 65.4163 42.0487 65.2991 42.0487 65.2991C41.461 65.0648 40.8733 64.7134 40.168 64.4791C39.4627 64.1276 38.9924 63.8933 38.6398 63.5418C38.5223 63.4247 38.4048 63.3075 38.4048 63.3075C38.6399 63.1904 38.9925 63.0732 39.3451 62.9561C40.0504 62.7218 40.7557 62.6046 41.461 62.3703C42.8716 62.0189 44.2822 61.6674 45.8103 61.1988C47.3384 60.6131 48.749 60.1445 50.2771 58.973C50.6298 58.6215 51.1 58.1529 51.3351 57.45C51.6877 56.7471 51.4526 55.6927 51.1 55.107C50.8649 54.4041 50.5122 54.0526 50.1596 53.7012Z" fill="#6CAED6" stroke="#085664" stroke-width="0.5" stroke-miterlimit="10"/>
<path d="M53.0983 31.677C52.2754 31.0913 50.9823 30.9741 50.042 30.857C49.3367 30.7398 47.3384 30.2712 46.6331 30.7398C45.6927 31.3256 46.6331 32.8485 47.2208 33.4343C48.749 34.723 50.6297 35.4259 52.5105 36.1288C53.2158 36.3631 54.8614 37.3003 53.5684 38.2375C52.628 38.8232 51.335 39.5261 49.4542 40.3462C48.5138 40.8148 46.2804 41.752 43.2242 43.0407C41.696 43.6264 39.9328 44.3293 38.052 45.0322C37.1116 45.3837 35.9362 45.7351 34.8783 46.3209C34.2905 46.5552 30.7641 48.3125 31.3518 50.4212C31.822 51.827 32.5273 52.4127 33.8203 52.8813C34.2905 52.9985 34.6431 53.2328 35.1133 53.3499C35.2309 53.2328 35.2309 53.2328 35.3484 53.1156C36.5239 52.1784 37.9345 51.2412 39.3451 50.7726C38.4047 50.6555 37.5819 50.4212 36.759 50.1869C36.4064 50.0697 36.0537 49.9526 35.7011 49.8354C35.9361 49.7183 36.1713 49.6011 36.4064 49.484C37.3468 49.0154 38.1696 48.7811 39.3451 48.4296C41.3434 47.7267 43.1066 47.0238 44.7523 46.438C47.8085 45.1494 50.042 44.2122 51.0999 43.7436C53.2158 42.6892 55.2141 41.9863 56.9773 39.8776C57.9177 38.7061 58.1528 36.9488 57.5651 35.6602C56.3896 33.0828 53.5684 32.0285 53.0983 31.677Z" fill="#6CAED6" stroke="#085664" stroke-width="0.5" stroke-miterlimit="10"/>
<path d="M122.922 96.6953H54.5088C51.9228 96.6953 49.8069 94.5866 49.8069 92.0093V18.6729C49.8069 16.0955 51.9228 13.9868 54.5088 13.9868H122.922C125.508 13.9868 127.624 16.0955 127.624 18.6729V92.1265C127.624 94.5866 125.508 96.6953 122.922 96.6953Z" fill="#6CAED6"/>
<path d="M107.405 70.3366V32.0283L95.5331 70.3366H83.3081L71.5533 32.0283V70.3366H62.8547V24.062H77.7834L89.5382 61.6674L101.058 24.062H115.987V70.3366H107.405Z" fill="white"/>
<path d="M119.043 90.6035V86.6203C117.045 89.7834 114.223 91.3064 110.462 91.3064C107.993 91.3064 105.76 90.6035 103.762 89.1976C101.763 87.7918 100.118 85.8003 99.0596 83.3401C98.0017 80.8799 97.4139 77.9512 97.4139 74.6709C97.4139 71.5079 97.8842 68.5791 98.9421 66.0018C100 63.4245 101.528 61.4329 103.526 60.0271C105.525 58.6213 107.876 57.9184 110.344 57.9184C112.225 57.9184 113.871 58.2698 115.281 59.0899C116.692 59.9099 117.867 60.9643 118.808 62.2529V46.6719H123.98V90.7206H119.043V90.6035ZM102.586 74.6709C102.586 78.7712 103.409 81.8171 105.055 83.8087C106.7 85.8003 108.699 86.8546 110.932 86.8546C113.165 86.8546 115.164 85.9174 116.692 83.9259C118.22 81.9343 119.043 79.0055 119.043 75.1395C119.043 70.805 118.22 67.5247 116.574 65.5332C114.929 63.5416 112.93 62.4872 110.579 62.4872C108.228 62.4872 106.348 63.4245 104.82 65.416C103.409 67.4076 102.586 70.4535 102.586 74.6709Z" fill="#085664"/>
<path d="M42.1727 107.554V100.824H44.2065L45.4277 105.415L46.6351 100.824H48.6735V107.554H47.411V102.256L46.075 107.554H44.7666L43.4352 102.256V107.554H42.1727ZM50.0233 107.554V100.824H55.0137V101.962H51.3822V103.454H54.7612V104.588H51.3822V106.42H55.1423V107.554H50.0233ZM56.29 100.824H58.7738C59.3339 100.824 59.7608 100.867 60.0546 100.952C60.4495 101.069 60.7877 101.275 61.0693 101.572C61.3508 101.869 61.5651 102.233 61.712 102.665C61.8589 103.093 61.9324 103.623 61.9324 104.253C61.9324 104.807 61.8635 105.285 61.7258 105.686C61.5574 106.175 61.3172 106.572 61.005 106.875C60.7693 107.104 60.451 107.283 60.0501 107.412C59.7501 107.507 59.3492 107.554 58.8472 107.554H56.29V100.824ZM57.649 101.962V106.42H58.6636C59.0431 106.42 59.317 106.399 59.4854 106.356C59.7057 106.301 59.8878 106.208 60.0317 106.076C60.1786 105.944 60.298 105.729 60.3898 105.429C60.4816 105.126 60.5275 104.714 60.5275 104.194C60.5275 103.673 60.4816 103.274 60.3898 102.995C60.298 102.717 60.1694 102.499 60.0041 102.343C59.8389 102.187 59.6292 102.082 59.3752 102.027C59.1854 101.984 58.8135 101.962 58.2596 101.962H57.649ZM63.048 107.554V100.824H64.4069V107.554H63.048ZM70.0126 105.08L71.3302 105.497C71.1282 106.232 70.7915 106.778 70.3201 107.136C69.8519 107.491 69.2566 107.669 68.5342 107.669C67.6405 107.669 66.906 107.364 66.3306 106.755C65.7552 106.143 65.4674 105.308 65.4674 104.249C65.4674 103.128 65.7567 102.259 66.3352 101.641C66.9136 101.02 67.6742 100.709 68.6169 100.709C69.4402 100.709 70.109 100.952 70.6232 101.439C70.9292 101.727 71.1588 102.14 71.3118 102.679L69.9666 103C69.8871 102.651 69.7203 102.376 69.4662 102.174C69.2152 101.972 68.9092 101.871 68.548 101.871C68.0491 101.871 67.6436 102.05 67.3314 102.408C67.0223 102.766 66.8677 103.346 66.8677 104.148C66.8677 104.999 67.0207 105.605 67.3268 105.966C67.6329 106.327 68.0308 106.507 68.5205 106.507C68.8816 106.507 69.1923 106.393 69.4524 106.163C69.7126 105.934 69.8993 105.572 70.0126 105.08ZM78.5702 107.554H77.0919L76.5042 106.025H73.8139L73.2584 107.554H71.8168L74.4383 100.824H75.8753L78.5702 107.554ZM76.0681 104.891L75.1407 102.394L74.2317 104.891H76.0681ZM79.3323 107.554V100.879H80.6912V106.42H84.0702V107.554H79.3323ZM87.4813 100.824H89.9651C90.5252 100.824 90.9522 100.867 91.246 100.952C91.6408 101.069 91.979 101.275 92.2606 101.572C92.5422 101.869 92.7564 102.233 92.9033 102.665C93.0502 103.093 93.1237 103.623 93.1237 104.253C93.1237 104.807 93.0548 105.285 92.9171 105.686C92.7488 106.175 92.5085 106.572 92.1963 106.875C91.9606 107.104 91.6423 107.283 91.2414 107.412C90.9414 107.507 90.5405 107.554 90.0385 107.554H87.4813V100.824ZM88.8403 101.962V106.42H89.8549C90.2344 106.42 90.5084 106.399 90.6767 106.356C90.8971 106.301 91.0792 106.208 91.223 106.076C91.3699 105.944 91.4893 105.729 91.5811 105.429C91.6729 105.126 91.7189 104.714 91.7189 104.194C91.7189 103.673 91.6729 103.274 91.5811 102.995C91.4893 102.717 91.3608 102.499 91.1955 102.343C91.0302 102.187 90.8205 102.082 90.5665 102.027C90.3767 101.984 90.0049 101.962 89.4509 101.962H88.8403ZM94.2806 107.554V100.824H99.2711V101.962H95.6396V103.454H99.0186V104.588H95.6396V106.42H99.3996V107.554H94.2806ZM102.269 107.554L99.8633 100.824H101.337L103.04 105.805L104.688 100.824H106.13L103.72 107.554H102.269ZM106.782 107.554V100.824H108.141V107.554H106.782ZM113.747 105.08L115.064 105.497C114.862 106.232 114.525 106.778 114.054 107.136C113.586 107.491 112.991 107.669 112.268 107.669C111.375 107.669 110.64 107.364 110.065 106.755C109.489 106.143 109.201 105.308 109.201 104.249C109.201 103.128 109.491 102.259 110.069 101.641C110.648 101.02 111.408 100.709 112.351 100.709C113.174 100.709 113.843 100.952 114.357 101.439C114.663 101.727 114.893 102.14 115.046 102.679L113.701 103C113.621 102.651 113.454 102.376 113.2 102.174C112.949 101.972 112.643 101.871 112.282 101.871C111.783 101.871 111.378 102.05 111.065 102.408C110.756 102.766 110.602 103.346 110.602 104.148C110.602 104.999 110.755 105.605 111.061 105.966C111.367 106.327 111.765 106.507 112.254 106.507C112.616 106.507 112.926 106.393 113.186 106.163C113.447 105.934 113.633 105.572 113.747 105.08ZM116.235 107.554V100.824H121.225V101.962H117.594V103.454H120.973V104.588H117.594V106.42H121.354V107.554H116.235Z" fill="#085664"/>
</svg>
