<svg width="115" height="113" viewBox="0 0 115 113" fill="none" xmlns="http://www.w3.org/2000/svg">
<path d="M58.1856 13.7441C68.1772 13.7441 76.6407 16.5558 84.0462 22.179C91.3342 27.6851 96.2712 34.9485 98.9748 43.6176C99.0924 43.8519 99.2099 44.0862 99.3275 44.2034C101.208 45.6092 102.031 47.6007 102.501 49.8266C103.207 52.9897 103.207 56.0356 102.854 59.1987C102.501 62.1275 101.678 64.8219 99.3275 66.6963C99.2099 66.8135 99.0924 67.1649 98.9748 67.2821C97.3292 72.671 94.7431 77.7085 91.0991 82.0431C84.9866 89.1893 77.4635 93.9925 68.2947 96.1012C65.4735 96.8041 62.6524 97.0384 59.7137 97.1556C50.3098 97.3899 41.7288 94.6954 34.2057 89.1893C26.4475 83.6832 21.393 76.1856 18.5718 67.1649C18.4542 66.9306 18.3367 66.5792 18.1016 66.3449C16.2209 64.8219 15.398 62.8304 14.9278 60.6045C14.2225 57.4414 14.34 54.1612 14.8102 50.881C15.1629 48.4208 16.1033 46.0778 18.1016 44.3205C18.3367 44.2034 18.4543 43.8519 18.4543 43.6176C20.335 37.4086 23.3913 31.9025 27.7405 27.2165C33.2653 21.2418 39.9656 17.1415 47.7238 15.0328C50.1923 14.3299 52.6608 13.8613 55.1293 13.7441C56.4224 13.8613 57.5978 13.7441 58.1856 13.7441ZM58.8908 67.2821C70.4106 67.2821 81.9303 67.2821 93.4501 67.2821C94.1553 67.2821 94.9782 67.2821 95.6835 67.0478C97.3292 66.6963 98.7398 65.9934 99.7977 64.5876C100.856 63.1818 101.443 61.5417 101.561 59.9016C101.914 56.7385 102.031 53.5754 101.443 50.4124C101.091 48.6551 100.503 46.8978 99.0924 45.6092C97.5642 44.2034 95.5659 43.7348 93.5676 43.7348C70.6457 43.7348 47.6062 43.7348 24.6843 43.7348C23.979 43.7348 23.1562 43.8519 22.4509 43.8519C19.8648 44.2034 17.9841 45.492 16.9262 47.835C16.2209 49.2409 15.8682 50.881 15.7507 52.4039C15.5156 55.2156 15.5156 58.0272 16.1033 60.7216C17.0437 64.7048 19.6297 67.1649 24.0966 67.0478C35.7339 67.2821 47.3711 67.2821 58.8908 67.2821ZM96.9765 43.0319C92.6272 28.6223 76.9933 13.3927 54.424 15.6186C37.4971 17.3758 24.5667 29.911 20.6876 43.0319C20.9227 43.0319 21.0403 42.9147 21.2754 42.9147C22.4509 42.7976 23.0387 42.2118 23.3913 41.0403C25.8598 34.9485 29.6213 29.911 34.7934 25.8107C41.4937 20.4217 49.0168 17.8444 57.5978 17.3758C58.068 17.3758 58.3031 17.493 58.3031 17.9616C58.3031 20.0703 58.068 22.179 57.5978 24.2877C56.5399 29.911 54.1889 34.9485 50.78 39.5173C50.0748 40.4545 49.2519 41.3918 48.4291 42.4461C55.3644 42.4461 62.2998 42.4461 69.2351 42.4461C68.4123 41.5089 67.707 40.6888 67.1192 39.7516C64.1805 35.8857 62.0647 31.5511 60.7717 26.865C59.9488 23.9363 59.5961 21.0075 59.4786 17.9616C59.4786 17.493 59.5961 17.3758 60.0663 17.3758C63.005 17.3758 65.9437 17.8444 68.8824 18.5473C78.2863 21.1246 85.5743 26.5136 90.864 34.4798C92.3921 36.8229 93.6852 39.283 94.6255 41.8604C94.7431 42.0947 94.9782 42.4461 95.0958 42.4461C95.6835 42.9147 96.2712 42.9147 96.9765 43.0319ZM48.3115 68.4536C48.5466 68.6879 48.6642 68.9222 48.7817 69.1565C52.1906 73.0225 54.5416 77.3571 56.1872 82.1603C57.3627 85.5576 57.833 88.955 58.0681 92.4695C58.1856 93.5239 58.1856 93.5239 56.8926 93.5239C53.0135 93.5239 49.3695 92.7038 45.843 91.4152C39.0252 88.955 33.3829 84.8547 28.916 79.3486C26.33 76.1856 24.4492 72.671 22.9211 68.8051C22.8035 68.6879 22.8035 68.3365 22.686 68.3365C21.9807 68.2193 21.2754 68.1022 20.5701 67.985C26.33 85.6748 44.3149 98.3271 65.0034 95.164C82.283 92.5867 93.8027 79.3486 96.859 67.985C96.6239 67.985 96.3887 68.1022 96.1537 68.1022C95.0957 68.1022 94.7431 68.6879 94.2729 69.7423C90.5114 78.88 84.1637 85.5576 75.2301 89.8922C70.4106 92.2352 65.356 93.4067 60.0663 93.5239C59.4786 93.5239 59.2435 93.4067 59.2435 92.7038C59.3611 90.3608 59.5961 87.9007 60.0663 85.5576C61.1243 80.7545 63.1226 76.3027 66.0613 72.2024C67.0017 70.9138 68.0596 69.6251 69 68.3365C62.1822 68.4536 55.3644 68.4536 48.3115 68.4536ZM51.1327 24.4049C51.2502 24.4049 51.2502 24.522 51.3678 24.522C51.4853 24.2877 51.7204 24.0534 51.8379 23.8191C52.3081 22.7648 52.7784 21.7104 53.4836 20.7732C53.8363 20.1874 54.5416 19.6017 55.1293 19.2502C55.482 19.0159 56.0697 19.1331 56.4224 19.2502C56.6574 19.4845 56.775 20.0703 56.5399 20.4217C56.3048 21.0075 55.9522 21.4761 55.482 21.9447C54.424 22.8819 53.3661 23.702 52.3082 24.522C52.1906 24.6392 52.0731 24.7563 51.9555 24.8735C51.9555 24.9906 51.8379 25.1078 51.8379 25.1078C51.8379 25.2249 52.0731 25.2249 52.0731 25.2249C52.3081 25.1078 52.6608 24.9906 52.8959 24.8735C53.3661 24.7563 53.9538 24.522 54.424 24.522C54.7767 24.522 55.2468 24.522 55.3644 24.9906C55.4819 25.4592 55.2468 25.9278 54.7766 26.1621C54.5415 26.2793 54.1889 26.2793 53.8363 26.2793C53.131 26.2793 52.3082 26.2793 51.6029 26.3964C49.8397 26.7479 48.6642 27.9194 47.4887 29.0909C47.2536 29.3252 47.0185 29.6767 46.901 29.911C47.2536 29.7938 47.6062 29.7938 47.9589 29.6767C49.3694 29.0909 50.78 28.8566 52.3082 28.9738C53.0135 28.9738 53.7188 29.6767 53.7188 30.2624C53.7188 30.8482 53.2485 31.1996 52.4257 31.0825C51.6028 31.0825 50.78 30.9653 49.9572 30.731C48.4291 30.3796 47.0185 30.3796 45.7255 31.4339C44.6676 32.254 43.7272 33.074 42.7868 34.0112C42.6692 34.1284 42.6692 34.2455 42.5517 34.3627C42.6692 34.3627 42.9043 34.4798 43.0218 34.4798C43.6096 34.3627 44.0798 34.1284 44.6675 33.8941C46.5483 33.3083 48.3115 33.074 50.3098 33.3083C51.1327 33.4255 51.8379 34.1284 51.8379 34.8313C51.8379 35.4171 51.1327 35.8857 50.1923 35.8857C49.3695 35.8857 48.5466 35.7685 47.7238 35.6514C46.1956 35.4171 44.6675 35.0656 43.0218 35.4171C40.7884 35.8857 39.2603 37.4086 37.8497 39.0487C38.2024 39.0487 38.6726 39.0487 39.0252 38.9316C41.2586 37.9944 43.492 37.2915 45.9605 37.5258C46.5483 37.5258 47.2536 37.8772 47.8413 38.1115C48.3115 38.3458 48.5466 38.8144 48.4291 39.283C48.3115 39.7516 47.8413 39.9859 47.3711 39.9859C46.5483 39.9859 45.7255 39.9859 44.9026 39.9859C43.3745 39.8688 41.8464 39.7516 40.4358 39.7516C38.9077 39.7516 37.3795 40.1031 36.0865 41.0403C35.3812 41.5089 34.6759 42.0947 33.9707 43.0319C34.6759 42.9147 35.1461 42.9147 35.6163 42.7976C37.8497 41.9775 40.2007 41.5089 42.5517 41.7432C43.3745 41.8604 44.3149 41.7432 44.6675 42.7976C44.6675 42.9147 44.7851 42.9147 44.9026 42.9147C45.3728 43.149 46.7834 42.9147 47.0185 42.5633C49.6045 39.8688 51.7204 36.8229 53.3661 33.4255C55.1293 29.911 56.1872 26.2793 56.775 22.4133C56.8925 21.3589 56.8925 20.1874 57.0101 19.1331C40.6709 19.7188 28.2108 31.3168 23.9791 43.0319C25.2721 43.0319 26.4475 43.0319 27.7405 43.0319C28.0932 43.0319 28.2108 42.7976 28.0932 42.5633C27.9757 41.0403 27.9757 39.5173 27.9757 38.1115C27.9757 37.6429 28.0932 37.0572 28.3283 36.5886C28.5634 36.12 28.916 35.8857 29.5038 35.8857C30.0915 35.8857 30.3267 36.2371 30.4442 36.7057C30.5618 37.1743 30.6793 37.6429 30.6793 37.9944C30.7968 39.5173 30.5617 40.9231 30.0915 42.4461C29.974 42.6804 29.8565 42.9147 30.2091 43.0319C31.1495 43.2662 31.7372 43.0319 31.9723 41.9775C32.0899 41.3917 32.325 40.806 32.325 40.2202C32.325 38.3458 32.325 36.3543 32.325 34.4798C32.325 33.8941 32.2074 33.3083 32.325 32.7226C32.4425 31.7854 33.0302 31.4339 33.8531 31.4339C34.4408 31.4339 34.6759 31.9025 34.7934 32.8397C35.0285 34.9485 34.5584 37.0572 33.7355 39.0487C33.3829 39.9859 33.0302 41.0403 32.6776 42.0947C32.6776 42.2118 32.6776 42.329 32.7952 42.5633C32.9127 42.4461 33.0303 42.4461 33.1478 42.329C33.7355 41.6261 34.4408 40.9231 35.0286 40.2202C35.4987 39.5173 35.9689 38.8144 36.204 37.9944C36.9093 35.8857 36.5567 33.7769 36.4391 31.6682C36.4391 30.6139 36.4391 29.4424 36.5567 28.388C36.5567 28.1537 37.0269 27.6851 37.262 27.6851C37.6146 27.6851 37.9673 27.9194 38.2024 28.1537C38.3199 28.2709 38.4375 28.5052 38.555 28.7395C38.6725 29.911 38.7901 31.0825 38.6726 32.254C38.555 34.1284 37.9673 35.8857 37.262 37.6429C37.1444 37.8772 37.1444 38.1115 37.0269 38.3458L37.1444 38.463C37.3795 38.3458 37.4971 38.1115 37.6146 37.9944C38.0848 37.4086 38.6725 36.8229 39.1427 36.3543C40.7884 34.7141 41.1411 32.6054 41.0236 30.4967C41.0236 29.0909 40.906 27.8022 40.7884 26.3964C40.7884 26.045 40.906 25.5764 41.0236 25.2249C41.3762 24.2877 42.4341 24.1706 43.0218 24.8735C43.2569 25.1078 43.3745 25.4592 43.3745 25.8107C43.4921 27.0993 43.6096 28.388 43.1394 29.5595C42.6692 30.8482 42.0815 32.254 41.6113 33.5426C41.6113 33.6598 41.6113 33.8941 41.6113 34.0112C41.7288 33.8941 41.9639 33.8941 42.0814 33.7769C42.7867 33.074 43.6096 32.254 44.3149 31.5511C45.1377 30.4967 45.7255 29.3252 45.7255 28.0366C45.7255 26.7479 45.7255 25.3421 45.7255 24.0534C45.7255 23.8191 45.7255 23.4677 45.843 23.2334C46.0781 22.5305 46.4307 22.2962 47.0185 22.4133C47.6062 22.5305 47.7238 22.9991 47.8413 23.5848C48.0764 25.4592 47.7238 27.3336 46.6659 28.9738C46.5483 29.2081 46.4308 29.5595 46.3132 29.7938C46.5483 29.7938 46.7834 29.6767 46.901 29.5595C47.6063 28.7395 48.3115 28.0365 49.0168 27.2165C49.6046 26.3964 50.0748 25.5764 50.1923 24.522C50.3099 23.5848 50.3098 22.5305 50.5449 21.5933C50.5449 21.2418 50.78 20.7732 51.1327 20.656C51.6029 20.4217 52.0731 20.7732 52.1906 21.2418C52.3082 21.8276 52.3082 22.2962 52.1906 22.8819C51.6029 23.2334 51.3678 23.8191 51.1327 24.4049ZM76.288 33.1912C76.1705 32.7226 76.0529 32.3711 75.9353 32.1368C75.1125 30.0281 74.7599 27.8022 74.995 25.4592C75.1125 24.6392 75.8178 23.8191 76.5231 23.8191C77.2284 23.8191 77.5811 24.4049 77.4635 25.4592C77.346 26.6307 77.2284 27.8022 76.9933 28.9738C76.5231 31.3168 76.7582 33.5426 78.2863 35.4171C78.9916 36.2371 79.6969 37.0572 80.4022 37.8772C80.5198 37.8772 80.5197 37.7601 80.6373 37.7601C80.5197 37.4086 80.5198 37.0572 80.4022 36.7057C79.5794 34.4798 78.7565 32.254 78.9916 29.7938C78.9916 29.2081 79.2267 28.5052 79.5794 28.0366C79.8145 27.5679 80.2846 27.2165 80.8724 27.4508C81.4601 27.6851 81.5777 28.1537 81.5777 28.7395C81.5777 30.2624 81.4602 31.6682 81.3426 33.1912C81.2251 34.9485 81.225 36.5886 81.8128 38.3458C82.4005 39.9859 83.4585 41.1574 84.869 42.2118C84.869 41.9775 84.869 41.7432 84.7515 41.6261C84.5164 40.9231 84.1638 40.1031 83.9287 39.4002C83.2234 37.0572 82.8707 34.7141 83.3409 32.3711C83.4585 31.7854 83.8111 31.4339 84.3988 31.4339C84.9866 31.4339 85.3392 31.6682 85.5743 32.254C85.6919 32.4883 85.8094 32.7226 85.6919 32.9569C85.5743 34.3627 85.5743 35.7685 85.4568 37.1743C85.3392 38.6973 85.2217 40.2202 85.6919 41.7432C86.1621 43.6176 86.0445 43.149 87.6902 43.2662C88.1604 43.2662 88.2779 43.0319 88.1604 42.6804C87.8077 41.1574 87.6902 39.5173 87.6902 37.8772C87.6902 37.1743 88.0428 36.8229 88.513 36.7057C88.9832 36.5886 89.8061 37.0572 89.9236 37.5258C90.0412 38.1115 90.0411 38.6973 90.0411 39.1659C90.0411 40.3374 89.9236 41.5089 89.8061 42.6804C89.8061 42.9147 89.6885 43.2662 90.1587 43.2662C91.3342 43.2662 92.5097 43.2662 93.6852 43.2662C88.2779 28.2709 72.9967 19.2502 60.7717 19.3674C60.7717 21.9447 61.2418 24.4049 61.8295 26.865C63.4752 32.9569 66.414 38.2287 70.7633 42.7976C70.8808 43.0319 71.2334 43.149 71.4685 43.149C72.0563 43.149 72.644 43.149 73.2317 43.149C72.9966 41.9775 73.2317 41.3917 74.1721 41.3917C75.3476 41.2746 76.5231 41.2746 77.581 41.5089C79.1092 41.8604 80.6373 42.4461 82.283 42.9147C82.8707 43.0319 83.3409 43.149 83.9287 43.2662C83.9287 43.149 83.9287 43.149 83.9287 43.0319C83.2234 42.4461 82.5181 41.8604 81.9303 41.2746C81.1075 40.5717 80.1671 40.1031 78.9916 39.8688C76.9933 39.5173 74.995 39.7516 73.1142 39.7516C72.0563 39.7516 71.1159 39.7516 70.0579 39.6345C69.8228 39.6345 69.3527 39.1659 69.3527 38.8144C69.3527 38.5801 69.7053 38.1115 69.9404 37.8772C70.0579 37.7601 70.293 37.6429 70.5281 37.5258C71.8212 37.5258 72.9967 37.2915 74.2897 37.5258C76.0529 37.8772 77.8161 38.463 79.6969 38.9316C79.8144 38.9316 80.0496 38.9316 80.1671 39.0487C80.1671 39.0487 80.1671 38.9316 80.2846 38.9316C79.4618 38.2287 78.7565 37.5258 77.9337 36.8229C76.8757 35.7685 75.4652 35.1828 73.9371 35.1828C72.4089 35.1828 70.8808 35.2999 69.3527 35.2999C68.5298 35.2999 67.707 35.2999 67.0017 35.1828C66.5315 35.0656 66.1788 34.8313 66.1788 34.2455C66.1788 33.7769 66.2964 33.3083 66.8842 33.074C67.1193 32.9569 67.3543 32.8397 67.5894 32.8397C68.8825 32.8397 70.0579 32.8397 71.2334 33.074C72.644 33.4255 73.937 34.1284 75.3476 34.7142C75.4651 34.7142 75.7003 34.7142 75.8178 34.7142C75.8178 34.597 75.7003 34.3627 75.5827 34.3627C74.8774 33.6598 74.1721 32.9569 73.4669 32.254C72.4089 31.3168 71.2335 30.731 69.8229 30.8482C68.5299 30.8482 67.1192 30.8482 65.8262 30.8482C65.5911 30.8482 65.2385 30.731 65.0034 30.731C64.4156 30.6139 63.9454 30.2624 64.063 29.5595C64.1805 28.9738 64.6507 28.8566 65.2385 28.7395C67.1192 28.5052 68.8824 28.9738 70.6457 29.7938C70.9983 29.911 71.2335 30.1453 71.5861 30.2624L71.7036 30.1453C71.5861 29.911 71.4685 29.6767 71.2334 29.5595C69.2351 27.4508 66.8842 26.1621 63.9455 26.2793C63.5928 26.2793 63.2401 26.2793 63.005 26.1621C62.4173 25.9278 62.2998 25.3421 62.77 24.8735C63.0051 24.7563 63.3577 24.522 63.5928 24.522C64.1805 24.522 64.7682 24.6392 65.356 24.8735C65.8262 24.9906 66.1789 25.1078 66.6491 25.2249C66.6491 25.1078 66.7666 25.1078 66.7666 24.9906C66.5315 24.7563 66.2964 24.6392 65.9437 24.4049C65.1209 23.9363 64.1806 23.5848 63.3577 23.1162C62.4173 22.6476 61.712 21.9447 61.3594 21.0075C61.2418 20.656 61.2418 20.1874 61.4769 19.9531C61.712 19.7188 62.1822 19.6017 62.5349 19.7188C63.1226 19.9531 63.7103 20.3046 64.1805 20.656C65.1209 21.5932 65.9437 22.7648 66.7666 23.8191C67.0017 24.0534 67.2368 24.1706 67.3543 24.4049C67.3543 24.0534 67.2368 23.8191 67.2368 23.4677C67.2368 23.3505 67.1192 23.2334 67.1192 23.1162C67.0017 22.5305 66.7666 21.9447 66.7666 21.4761C66.7666 20.7732 67.3543 20.5389 67.9421 20.8903C68.2947 21.1246 68.4123 21.4761 68.5298 21.9447C68.5298 22.7648 68.5299 23.5848 68.6474 24.4049C69.1176 26.2793 70.4106 27.5679 71.7036 28.8566C71.8212 28.9738 72.0563 28.9738 72.2914 29.0909C72.2914 28.8566 72.2914 28.6223 72.1738 28.5052C71.4686 27.0993 71.1159 25.5764 71.2334 23.9363C71.2334 23.4677 71.586 22.9991 71.8211 22.6476C72.4089 22.0619 73.1142 22.2962 73.2317 23.1162C73.3493 23.8191 73.2318 24.522 73.1142 25.3421C72.9967 26.2793 72.644 27.2165 72.7616 28.1537C72.7616 30.0281 74.5248 31.5511 76.288 33.1912ZM51.2502 86.4948C51.2502 86.612 51.1327 86.612 51.1327 86.7291C51.4853 86.9634 51.7204 87.1978 52.0731 87.3149C52.7783 87.6664 53.6012 88.0178 54.3065 88.3693C55.2469 88.8379 56.1872 89.5408 56.5399 90.5951C56.6574 90.9466 56.6574 91.5323 56.4224 91.7666C56.1873 92.0009 55.5995 92.1181 55.3644 92.0009C54.7766 91.7666 54.1889 91.4152 53.7188 90.9466C52.7784 90.0094 51.9555 88.8379 51.1327 87.7835C51.0151 87.5492 50.78 87.4321 50.5449 87.3149C50.5449 87.5492 50.5449 87.9007 50.6625 88.135C50.6625 88.2521 50.8976 88.3693 50.8976 88.6036C51.0151 89.1893 51.2502 89.7751 51.2502 90.3608C51.2502 90.9466 50.6625 91.1809 50.1923 90.9466C49.7221 90.7123 49.6046 90.2437 49.6046 89.7751C49.6046 88.955 49.6045 88.135 49.487 87.3149C49.1343 85.5576 47.9589 84.3861 46.7834 83.2146C46.5483 82.9803 46.3132 82.8632 45.9605 82.6289C46.0781 82.9803 46.0781 83.3318 46.1956 83.5661C46.7834 84.9719 47.0185 86.3777 46.901 87.9007C46.901 88.7207 46.3132 89.3065 45.6079 89.3065C45.0202 89.3065 44.6675 88.8379 44.785 87.9007C44.785 87.0806 44.9026 86.3777 45.1377 85.5576C45.4904 84.0347 45.4903 82.5117 44.4324 81.3402C43.6096 80.2858 42.6692 79.2315 41.7288 78.1771C41.7288 78.1771 41.6113 78.1771 41.3762 78.06C41.6113 78.7629 41.8463 79.4658 42.0814 80.0515C42.6692 81.926 43.0218 83.8004 42.6692 85.7919C42.5516 86.612 41.8464 87.3149 41.1411 87.3149C40.5533 87.3149 40.0831 86.612 40.0831 85.6748C40.0831 85.6748 40.0831 85.6748 40.0831 85.5576C40.2007 84.5033 40.3182 83.3318 40.5533 82.2774C40.7884 80.6373 41.0235 79.1143 40.3182 77.4742C39.7305 75.9513 38.555 74.6626 37.3795 73.6082C37.262 73.4911 37.0269 73.3739 36.7918 73.1396C36.7918 73.3739 36.7918 73.4911 36.7918 73.6082C36.9093 73.8425 36.9093 74.0768 37.0269 74.3111C37.9673 76.6542 38.6725 78.9972 38.555 81.4574C38.4375 82.2774 38.2024 83.0975 37.4971 83.5661C36.9094 83.9175 36.4391 83.8004 36.204 83.2146C36.0865 82.8632 35.9689 82.5117 35.9689 82.1603C36.0865 80.0515 36.2041 77.8257 36.3216 75.717C36.3216 74.3112 35.969 73.0225 35.2637 71.851C34.6759 70.7966 33.8531 69.8594 32.7952 69.1565C32.7952 69.3908 32.9127 69.6251 32.9127 69.8594C33.2653 70.9138 33.7356 71.9681 33.9707 73.1396C34.5584 75.1312 34.6759 77.1228 34.2057 79.1143C34.0882 79.8172 33.7355 80.1687 33.0302 80.1687C32.4425 80.1687 31.9723 79.8172 31.9723 79.1143C31.8548 77.7085 31.9723 76.3027 31.9723 74.7798C31.9723 73.1396 32.0898 71.4995 31.8547 69.8594C31.7372 68.3365 31.6196 68.4536 30.0915 68.4536C29.8564 68.4536 29.6213 68.4536 29.3862 68.4536C29.8564 70.2109 29.974 72.0853 29.8565 73.8426C29.8565 74.5455 29.3862 74.8969 28.7985 74.8969C28.2108 74.7798 27.623 74.4283 27.623 73.7254C27.623 73.1396 27.623 72.4367 27.623 71.851C27.623 70.9138 27.7406 69.8594 27.8581 68.9222C27.8581 68.6879 27.9757 68.4536 27.5055 68.4536C26.33 68.4536 25.2721 68.4536 24.0966 68.4536C26.5651 74.6626 30.2091 79.8172 35.2637 83.9175C39.4954 87.4321 44.4325 90.0094 49.8397 91.298C51.9555 91.8838 54.1889 92.2352 56.4224 92.2352C56.775 92.2352 57.1276 92.3524 57.0101 91.7666C56.775 90.2437 56.775 88.7207 56.5399 87.3149C55.8346 83.5661 54.6591 80.0516 52.8959 76.7713C51.3678 73.8426 49.487 71.2652 47.2536 68.9222C47.0185 68.6879 46.7834 68.5708 46.5483 68.4536C45.9605 68.3365 45.2553 68.4536 44.6675 68.4536C44.7851 69.7423 44.5499 70.0937 43.6096 70.0937C42.9043 70.2109 42.199 70.2109 41.4937 70.0937C39.6129 69.9766 37.9673 69.3908 36.3216 68.8051C35.6163 68.5708 34.7935 68.2193 33.9707 68.4536C34.6759 69.0394 35.3812 69.7423 36.0865 70.328C36.9094 71.0309 37.8497 71.4995 38.9076 71.6167C40.906 71.9681 42.9043 71.7338 44.9026 71.7338C45.843 71.7338 46.901 71.7338 47.8413 71.851C48.0764 71.851 48.5466 72.3196 48.5466 72.5539C48.5466 72.9053 48.3116 73.2568 48.0765 73.4911C47.9589 73.6082 47.7238 73.7254 47.4887 73.7254C46.1957 73.7254 45.0202 73.9597 43.7272 73.8426C41.9639 73.4911 40.2007 72.9053 38.3199 72.4367C38.2023 72.4367 37.9673 72.4367 37.8497 72.3196C37.8497 72.3196 37.8497 72.4367 37.7321 72.4367C38.4374 73.0225 39.1427 73.6082 39.7305 74.194C41.6113 76.0684 43.8447 76.4199 46.3132 76.3027C47.7238 76.1856 49.2519 76.1856 50.6625 76.3027C51.4853 76.3027 51.9555 76.8885 51.9555 77.3571C51.9555 77.8257 51.2502 78.6457 50.6625 78.6457C49.6045 78.6457 48.4291 78.7629 47.4887 78.5286C46.0781 78.1771 44.6675 77.4742 43.2569 77.0056C43.0218 76.8885 42.6692 76.7713 42.3166 76.7713C42.3166 76.8885 42.199 76.8885 42.199 77.0056C43.1394 77.9428 44.1974 78.88 45.1377 79.7001C46.0781 80.5201 47.2536 80.7544 48.4291 80.7544C49.7221 80.7544 50.8976 80.7544 52.1906 80.7544C52.5433 80.7544 52.7784 80.7545 53.131 80.8716C53.8363 81.1059 54.1889 81.4574 54.0714 82.0431C53.9538 82.6289 53.4836 82.746 52.8959 82.8632C51.0151 83.0975 49.2519 82.6289 47.4887 81.8088C47.1361 81.6917 46.9009 81.4574 46.5483 81.3402C46.4307 81.4574 46.4308 81.5745 46.3132 81.6917C46.901 82.2774 47.4887 82.746 48.194 83.3318C49.487 84.5033 50.8976 85.2062 52.7784 85.3233C53.6012 85.3233 54.424 85.4405 55.2469 85.6748C55.8346 85.7919 55.9522 86.3777 55.482 86.8463C55.2469 87.0806 54.8943 87.3149 54.5416 87.1977C53.8363 87.0806 53.0135 86.9634 52.3082 86.8463C51.838 86.7291 51.4853 86.612 51.2502 86.4948ZM93.5676 68.4536C92.2745 68.4536 91.0991 68.4536 89.9236 68.4536C89.571 68.4536 89.4534 68.5708 89.4534 68.9222C89.5709 70.0937 89.571 71.3824 89.571 72.5539C89.571 73.2568 89.4534 73.9597 89.2183 74.6626C89.1008 75.1312 88.6306 75.4827 88.0429 75.4827C87.4551 75.4827 87.1024 75.0141 86.9849 74.4283C86.8674 73.3739 86.8674 72.3196 86.9849 71.2652C87.1024 70.328 87.3375 69.2737 87.5726 68.3365C87.22 68.3365 86.9849 68.3365 86.6323 68.3365C86.0445 68.2193 85.8094 68.4536 85.6919 69.0394C85.5743 69.7423 85.2217 70.5623 85.2217 71.2652C85.2217 73.0225 85.3392 74.8969 85.3392 76.6542C85.3392 77.3571 85.3392 78.06 85.2217 78.7629C85.1041 79.4658 84.5164 79.9344 83.8111 79.8172C83.2233 79.8172 82.8707 79.3486 82.8707 78.5286C82.8707 77.2399 82.8707 75.9513 83.1058 74.6626C83.576 72.7882 84.2813 71.0309 84.869 69.1565C84.869 69.0394 84.869 68.8051 84.9866 68.6879C84.9866 68.6879 84.869 68.6879 84.869 68.5708C84.1638 69.3908 83.3409 70.2109 82.6356 71.1481C82.1654 71.7338 81.8128 72.5539 81.4601 73.2568C80.8724 75.1312 81.1075 77.1228 81.225 79.1143C81.225 80.1687 81.3426 81.2231 81.225 82.3946C81.225 82.8632 81.1075 83.4489 80.4022 83.5661C79.6969 83.5661 79.3443 83.2146 79.2267 82.6289C78.8741 81.4574 78.8741 80.403 78.9916 79.2315C79.2267 77.2399 79.8145 75.3655 80.5197 73.6082C80.6373 73.3739 80.6373 73.2568 80.6373 73.0225C80.6373 73.0225 80.5197 73.0225 80.5197 72.9053C79.8145 73.7254 78.9916 74.5455 78.2863 75.3655C77.8161 75.9513 77.4635 76.537 77.1108 77.2399C76.288 79.1143 76.6407 81.1059 76.6407 82.9803C76.6407 84.0347 76.6406 84.9719 76.5231 86.0262C76.5231 86.612 76.0529 86.9634 75.5827 86.9634C74.995 86.9634 74.6423 86.612 74.4072 86.1434C74.2897 85.9091 74.1721 85.5576 74.1721 85.3233C74.0546 83.5661 74.1721 81.926 74.995 80.403C75.3476 79.5829 75.8178 78.6457 76.1704 77.8257C76.1704 77.7085 76.1704 77.5914 76.1704 77.3571C76.0529 77.3571 75.9354 77.4742 75.8178 77.4742C74.995 78.4114 74.0546 79.2315 73.3493 80.1687C72.644 80.9887 72.2914 81.926 72.2914 82.9803C72.2914 83.9175 72.2914 84.8547 72.2914 85.7919C72.2914 86.612 72.1738 87.5492 72.0563 88.3693C71.9387 88.8379 71.5861 89.0722 71.1159 88.955C70.7632 88.8379 70.5281 88.4864 70.293 88.2521C70.1755 88.135 70.1755 87.7835 70.1755 87.5492C69.9404 85.5576 70.5281 83.8004 71.4685 82.1603C71.5861 81.926 71.7036 81.6917 71.7036 81.4574C71.5861 81.4574 71.5861 81.3402 71.4685 81.3402C70.9983 81.8088 70.6457 82.1603 70.1755 82.6289C69 83.9175 67.9421 85.3233 67.8245 87.1977C67.707 88.0178 67.707 88.955 67.5894 89.7751C67.5894 90.1265 67.3543 90.478 67.0017 90.5951C66.6491 90.8294 66.1789 90.5951 66.0613 90.1265C65.9438 89.8922 65.8262 89.6579 65.8262 89.4236C65.9438 88.7207 66.1789 88.0178 66.2964 87.3149C66.414 87.0806 66.4139 86.7291 66.5315 86.4948C66.4139 86.4948 66.414 86.3777 66.2964 86.3777C65.9438 87.0806 65.4736 87.7835 65.2385 88.4864C64.7683 89.6579 64.1806 90.7123 63.1226 91.4152C62.77 91.6495 62.2997 91.7666 61.8295 91.8838C61.3593 91.8838 61.0068 91.6495 61.0068 91.0637C61.0068 90.2437 61.3594 89.6579 61.9471 89.1893C63.1226 88.135 64.2981 87.1978 65.4736 86.2605C65.5911 86.1434 65.7087 85.9091 65.8262 85.7919C65.5911 85.7919 65.4736 85.6748 65.2385 85.7919C65.0034 85.7919 64.8858 86.0262 64.6507 86.0262C64.063 86.1434 63.5928 86.2605 63.005 86.3777C62.6524 86.3777 62.1822 86.3777 62.1822 85.9091C62.1822 85.4405 62.2998 84.9719 62.77 84.8547C63.2402 84.7376 63.7103 84.7376 64.063 84.7376C64.7683 84.6204 65.5911 84.7376 66.1788 84.5033C67.9421 84.0347 69.1176 82.6289 70.4106 81.3402C70.5282 81.2231 70.4106 81.1059 70.4106 80.9888C70.2931 80.9888 70.1755 80.9888 70.0579 80.9888C69.5877 81.1059 69.2351 81.3402 68.7649 81.4574C67.4719 81.926 66.2964 82.1603 64.8858 81.926C64.1806 81.8088 63.5928 81.2231 63.5928 80.6373C63.5928 80.1687 64.1805 79.8172 65.0034 79.8172C65.7086 79.8172 66.5315 79.9344 67.2368 80.0515C68.7649 80.403 70.1755 80.5201 71.4685 79.5829C72.5265 78.7629 73.5844 77.8257 74.6423 76.8885C74.7599 76.7713 74.7599 76.6542 74.8774 76.4199C74.7599 76.4199 74.5248 76.4199 74.4072 76.4199C73.4668 76.6542 72.644 77.0056 71.7036 77.2399C70.1755 77.5914 68.6474 77.8257 67.0017 77.4742C66.1789 77.3571 65.5911 76.6542 65.7087 75.9513C65.7087 75.3655 66.1788 75.0141 67.1192 74.8969C67.3543 74.8969 67.5895 74.8969 67.8245 74.8969C68.7649 75.0141 69.5878 75.1312 70.5281 75.3655C73.2318 75.9513 75.8178 75.5998 77.9337 73.6082C78.5214 73.0225 79.2267 72.4367 79.8145 71.851C79.8145 71.7338 79.6969 71.7338 79.6969 71.6167C79.3443 71.7338 79.1092 71.7338 78.7565 71.851C77.2284 72.3196 75.7003 72.9053 74.0546 73.2568C72.8791 73.4911 71.4685 73.6082 70.293 73.1396C69.5877 72.9053 69.1175 72.2024 69.1175 71.7338C69.2351 71.2652 69.8228 70.7966 70.6457 70.9138C71.7036 70.9138 72.8791 71.0309 73.9371 71.1481C75.5827 71.1481 77.2284 71.2652 78.874 71.0309C80.7548 70.7966 82.1655 69.6251 83.3409 68.2193C82.7532 68.2193 82.0479 68.2193 81.5777 68.4536C79.2267 69.2737 76.8758 69.6251 74.2897 69.3908C73.702 69.2737 72.9967 69.2737 72.7616 68.4536C72.7616 68.3365 72.644 68.3365 72.644 68.2193C72.1738 67.985 70.7633 68.3365 70.4106 68.6879C66.6491 72.671 64.063 77.1228 62.2998 82.2774C61.3594 85.2062 60.7716 88.2521 60.5365 91.4152C60.5365 91.8838 60.5365 92.1181 61.1243 92.0009C61.8296 91.8838 62.6524 91.8838 63.3577 91.8838C66.6491 91.4152 69.7053 90.7123 72.7616 89.4236C78.8741 86.8463 83.9287 82.9803 88.0429 77.8257C90.3938 75.1312 92.157 71.9681 93.5676 68.4536Z" fill="#4D8743"/>
<path d="M67.4719 59.1985C67.2368 59.1985 67.0017 59.0814 66.8842 59.1985C66.5315 59.3157 66.414 59.1985 66.414 58.7299C66.2964 57.0898 64.8859 55.684 63.3577 55.5669C61.7121 55.4497 61.712 55.4497 61.712 57.0898C61.712 59.1985 61.712 61.3073 61.712 63.416C61.712 63.8846 61.8296 64.1189 62.4173 64.1189C63.7103 64.0017 65.0034 64.1189 66.2965 64.0017C68.0597 63.8846 70.058 61.5416 70.4106 59.7843C70.5282 59.4328 70.4106 58.9642 70.6457 58.7299C70.7632 58.6128 71.2334 58.7299 71.7036 58.7299C71.7036 60.7215 71.7036 62.7131 71.7036 64.8218C71.7036 65.4075 71.351 65.1732 71.1159 65.1732C68.6474 65.1732 66.1789 65.1732 63.8279 65.1732C61.2418 65.1732 58.6558 65.1732 56.1873 65.1732C56.1873 64.8218 56.1873 64.4703 56.1873 64.1189C56.5399 64.1189 56.8925 64.1189 57.3627 64.0017C58.1856 63.8846 58.5383 63.5331 58.6558 62.5959C58.6558 62.3616 58.6558 62.1273 58.6558 61.893C58.6558 57.6756 58.6558 53.5753 58.6558 49.3579C58.6558 49.2407 58.6558 49.1236 58.6558 48.8893C58.6558 47.7178 58.1856 47.2491 56.8926 47.132C56.6575 47.132 56.4224 47.132 56.1873 47.132C56.1873 46.7805 56.1873 46.4291 56.1873 46.0776C56.5399 46.0776 56.8926 46.0776 57.2452 46.0776C61.8296 46.0776 66.414 46.0776 71.1159 46.0776C71.7036 46.0776 71.9387 46.1948 71.8212 46.7805C71.8212 48.655 71.8212 50.6465 71.8212 52.5209C71.7036 52.5209 71.5861 52.5209 71.4685 52.5209C70.7632 52.6381 70.6457 52.2866 70.6457 51.7009C70.4106 49.1236 68.2948 47.132 65.7087 47.0148C64.6508 47.0148 63.4752 47.0148 62.4173 47.0148C62.0647 47.0148 61.9472 47.132 61.9472 47.4834C61.9472 49.5922 61.9472 51.5837 61.9472 53.6924C61.9472 53.8096 62.0647 54.0439 62.1823 54.0439C63.7104 54.1611 65.121 53.9267 66.0613 52.6381C66.414 52.2866 66.6491 51.7009 66.6491 51.2323C66.6491 50.5294 67.0017 50.7637 67.3543 50.7637C67.9421 50.6465 67.8246 51.1151 67.8246 51.3494C67.4719 54.2782 67.4719 56.7384 67.4719 59.1985Z" fill="#4D8743"/>
<path d="M86.3972 46.0776C86.7498 46.0776 87.22 46.1948 87.5726 46.0776C87.9253 45.9605 88.0428 46.0776 88.1604 46.4291C89.8061 51.5837 91.4517 56.7384 93.0974 61.893C93.215 62.1273 93.3325 62.3616 93.4501 62.713C93.8027 63.7674 94.508 64.1189 95.5659 64.1189C95.9186 64.1189 96.1537 64.1189 96.1537 64.7046C96.1537 65.2904 95.9186 65.2904 95.5659 65.2904C93.2149 65.2904 90.864 65.2904 88.513 65.2904C87.5726 65.2904 87.5726 65.2904 87.6902 64.236C88.1604 64.236 88.7482 64.1189 89.2183 64.1189C89.6885 64.1189 89.9236 63.8846 89.8061 63.416C89.571 62.3616 89.3359 61.4244 89.1008 60.37C88.8657 59.3157 88.7481 59.3157 87.6902 59.3157C86.2796 59.3157 84.869 59.3157 83.4585 59.3157C82.9883 59.3157 82.8707 59.4328 82.7532 59.7843C82.5181 60.4872 82.283 61.1901 82.1655 61.893C81.8128 63.0645 82.4005 63.8846 83.6936 64.1189C84.1638 64.236 84.634 64.236 85.1042 64.236C85.1042 64.5875 85.1042 64.8218 85.1042 65.2904C84.8691 65.2904 84.6339 65.2904 84.3988 65.2904C82.0479 65.2904 79.6969 65.2904 77.3459 65.2904C77.1108 65.2904 76.7582 65.4075 76.7582 64.9389C76.7582 64.5875 76.5231 64.236 77.2284 64.236C78.8741 64.236 80.0495 63.2988 80.6373 61.893C81.5777 59.55 82.5181 57.207 83.3409 54.8639C84.3989 51.818 85.4568 48.8892 86.3972 46.0776ZM86.162 50.4122C85.2217 53.1067 84.2813 55.684 83.3409 58.2613C85.1042 58.2613 86.8674 58.2613 88.6306 58.2613C87.8078 55.684 86.9849 53.1067 86.162 50.4122Z" fill="#4D8743"/>
<path d="M52.7784 60.2529C51.4853 62.713 49.9572 64.5874 47.2536 65.2903C44.3149 65.9933 41.4937 65.7589 39.1427 63.6502C37.8497 62.5959 37.0269 61.0729 36.6742 59.4328C36.0865 56.6212 35.969 53.8096 36.9094 50.9979C37.9673 47.8349 40.6709 45.9604 43.9622 45.9604C45.4904 45.9604 46.9009 45.9604 48.3115 46.6634C49.9572 47.4834 50.78 49.2407 50.1923 50.7636C49.7221 51.9351 48.5466 52.2866 47.3711 51.9351C46.3132 51.7008 45.843 50.5293 46.1956 49.3578C46.1956 49.2407 46.3132 49.0064 46.4307 48.8892C46.7834 47.8349 46.3132 47.132 45.1377 47.0148C43.1394 46.8977 41.7288 47.7177 40.7884 49.7093C40.2007 51.1151 39.8481 52.5209 39.8481 54.0439C39.7305 56.1526 39.7305 58.3784 40.5533 60.37C41.2586 62.3616 42.5516 64.0017 44.785 64.3531C47.136 64.7046 49.1343 63.7674 50.5449 61.893C50.8976 61.4244 51.2502 60.9558 51.6029 60.37C51.838 59.9014 51.9555 59.7843 52.4257 60.1357C52.4257 60.1357 52.5433 60.1357 52.7784 60.2529Z" fill="#4D8743"/>
<path d="M22.3333 47.3664C22.3333 47.0149 22.3333 46.6635 22.3333 46.312C25.1545 46.312 28.0932 46.312 31.0319 46.312C31.0319 46.6635 31.0319 47.0149 31.0319 47.2492C30.4442 47.3664 29.8565 47.3664 29.2687 47.4835C28.681 47.6007 28.4458 47.9521 28.3283 48.4207C28.2107 48.7722 28.2108 49.2408 28.2108 49.5922C28.2108 53.6925 28.2108 57.7928 28.2108 61.8931C28.2108 61.8931 28.2108 61.8931 28.2108 62.0102C28.3283 63.8846 28.5634 64.1189 30.3266 64.1189C30.5617 64.1189 30.6793 64.1189 30.9144 64.1189C30.9144 64.4704 30.9144 64.8219 30.9144 65.1733C28.0932 65.1733 25.1545 65.1733 22.2158 65.1733C22.2158 64.8219 22.2158 64.4704 22.2158 64.1189C22.686 64.1189 23.2737 64.0018 23.7439 64.0018C24.4492 64.0018 24.6843 63.5332 24.8018 62.9474C24.9194 62.4788 24.9194 62.0102 24.9194 61.5416C24.9194 57.5585 24.9194 53.6925 24.9194 49.7094C24.9194 49.7094 24.9194 49.7094 24.9194 49.5922C24.8019 47.7178 24.8019 47.1321 22.5685 47.1321C22.5685 47.3664 22.4509 47.3664 22.3333 47.3664Z" fill="#4D8743"/>
<path d="M8.58018 56.1524L8.69777 55.0981L0.586914 54.8638V56.1524H8.58018Z" fill="#4D8743"/>
<path d="M5.87654 48.0692C5.87654 48.0692 5.75898 48.4207 5.64143 48.7721C5.52388 49.1236 5.40632 49.475 5.40632 49.475C5.17122 50.1779 4.81859 50.5294 4.46595 50.5294C4.23085 50.5294 3.99576 50.2951 3.87821 50.0608C3.76066 49.7093 3.76069 49.3579 3.76069 48.8893C3.76069 48.655 3.87821 48.4207 3.87821 48.1864C3.99576 47.9521 3.99577 47.8349 4.11332 47.7178C4.34842 47.4834 4.58353 47.2491 4.93617 47.132V46.0776C4.34843 46.1948 3.99574 46.4291 3.6431 46.8977C3.29045 47.3663 3.05538 47.9521 2.93784 48.7721C2.82029 49.5922 2.93785 50.2951 3.17295 50.8808C3.52559 51.4666 3.87824 51.7009 4.34843 51.7009C4.81862 51.7009 5.17127 51.5837 5.52391 51.2323C5.87656 50.8808 6.11162 50.4122 6.22917 49.8265C6.22917 49.8265 6.34674 49.475 6.46428 49.1236C6.46428 48.8893 6.5818 48.7721 6.5818 48.655C6.5818 48.5378 6.6994 48.4207 6.6994 48.4207C6.93449 47.6006 7.28709 47.2491 7.75729 47.3663C8.10993 47.3663 8.22748 47.6006 8.34503 47.9521C8.46258 48.3035 8.46262 48.655 8.46262 49.1236C8.34507 50.2951 7.87486 50.998 7.05203 51.1151V51.2323C7.05203 51.3494 7.05203 51.4666 7.05203 51.5837C7.05203 51.818 7.05203 52.1695 7.05203 52.1695C7.63977 52.0523 8.10997 51.7009 8.46262 51.2323C8.81526 50.7637 9.05033 50.1779 9.16788 49.3579C9.28543 48.5378 9.28546 47.8349 9.05036 47.2491C8.81526 46.6634 8.46262 46.3119 7.87488 46.1948C7.05204 46.0776 6.34674 46.6634 5.87654 48.0692Z" fill="#4D8743"/>
<path d="M9.16794 42.2115L5.52398 41.1571C5.52398 41.1571 5.64154 40.8057 5.75909 40.3371C5.87664 39.9856 5.99413 39.517 5.99413 39.517L5.28887 39.2827C5.28887 39.2827 5.1713 39.6342 5.05375 40.1028C4.93621 40.5714 4.81864 40.9228 4.81864 40.9228L3.29053 40.4542L3.05542 41.6257L4.46601 42.0943C4.46601 42.0943 4.34845 42.4458 4.2309 42.7972C4.11335 43.1487 4.11338 43.5001 4.11338 43.5001L4.81864 43.6173C4.81864 43.6173 4.93624 43.2658 4.93624 42.9144C5.05378 42.5629 5.17135 42.3286 5.17135 42.3286L8.5802 43.2658C9.75569 43.6173 10.461 43.1487 10.9312 41.86C11.0487 41.6257 11.0487 41.2743 11.1663 40.9228L10.5785 40.6885C10.5785 41.04 10.461 41.2743 10.3434 41.5086C10.1083 42.2115 9.75569 42.4458 9.16794 42.2115Z" fill="#4D8743"/>
<path d="M12.1067 38.4628L12.4593 37.5256L6.93458 35.1826L6.46436 36.237L12.1067 38.4628Z" fill="#4D8743"/>
<path d="M5.52399 35.8857C5.52399 35.8857 5.64155 35.5343 5.7591 35.3C5.87665 35.1828 5.87662 34.9485 5.87662 34.8314C5.87662 34.7142 5.99414 34.5971 5.99414 34.5971L5.05377 34.2456C5.05377 34.2456 5.0538 34.3628 4.93625 34.4799C4.93625 34.5971 4.81866 34.7142 4.81866 34.9485C4.70111 35.3 4.58362 35.5343 4.58362 35.5343L5.52399 35.8857Z" fill="#4D8743"/>
<path d="M13.1646 32.6053L9.87322 30.848L10.696 29.3251L10.1083 28.9736L9.28548 30.4966L7.87488 29.7937L7.40466 30.848L8.69774 31.551L8.11 32.7225L8.81526 33.0739L9.403 31.9024L12.5768 33.5425C13.1646 33.7768 13.6348 33.894 13.9874 33.7768C14.2225 33.6597 14.3401 33.5425 14.5752 33.4254C14.8102 33.1911 14.9278 33.0739 15.1629 32.7225C15.2804 32.4882 15.3979 32.1367 15.633 31.9024L15.0453 31.551C14.9278 31.7853 14.8102 32.1367 14.6927 32.2539C14.2225 32.7225 13.7523 32.8396 13.1646 32.6053Z" fill="#4D8743"/>
<path d="M17.2788 24.4048C17.5139 24.6391 17.749 24.8734 17.8665 25.2249C17.9841 25.5763 17.984 25.9278 17.984 26.2792C17.984 26.6307 17.8665 26.865 17.6314 27.2164C17.3963 27.4507 17.1612 27.685 16.8086 27.8022C16.4559 27.9193 15.9857 27.8022 15.5156 27.4507L12.3417 25.2249C12.3417 25.2249 12.2242 25.4592 11.9891 25.6935C11.754 25.9278 11.6365 26.1621 11.6365 26.1621L14.8102 28.2708C15.398 28.7394 15.9857 28.8565 16.5734 28.7394C17.1612 28.6222 17.6314 28.2708 17.984 27.8022C18.5718 26.9821 18.6893 26.1621 18.3367 25.2249L19.2771 25.9278C19.2771 25.9278 19.3946 25.6935 19.6297 25.5763C19.7473 25.342 19.9824 25.2249 19.9824 25.2249L15.398 21.3589C15.398 21.3589 15.1629 21.5932 15.0453 21.8275C14.8102 22.0618 14.6927 22.2961 14.6927 22.2961L17.2788 24.4048Z" fill="#4D8743"/>
<path d="M22.2159 20.6558L19.6298 17.9614L20.8053 16.7899L20.335 16.2041L19.042 17.3756L17.9841 16.2041C17.9841 16.2041 17.749 16.4384 17.6314 16.6727C17.3963 16.907 17.2788 17.1413 17.2788 17.1413L18.3367 18.1957L17.3963 19.1329L17.9841 19.6015L18.9244 18.6643L21.5105 21.1244C21.9807 21.593 22.3334 21.7102 22.8036 21.7102C23.2738 21.7102 23.7439 21.4759 24.2141 21.0073C24.4492 20.773 24.6844 20.5387 24.9194 20.3044L24.4492 19.7186C24.2141 19.9529 24.0966 20.1872 23.8615 20.3044C23.0386 21.1244 22.5685 21.1244 22.2159 20.6558Z" fill="#4D8743"/>
<path d="M27.2703 11.7525C28.0931 11.8697 28.7984 12.3383 29.2686 13.1583C29.7388 13.9784 29.9739 14.6813 29.7388 15.5013C29.6212 16.3214 29.151 17.0243 28.3282 17.4929C27.6229 18.0787 26.8001 18.313 25.9772 18.0787C25.1544 17.9615 24.4491 17.6101 23.8614 16.9072C23.2736 16.2042 23.0385 15.3842 23.1561 14.5641C23.2736 13.7441 23.7439 12.924 24.5667 12.3383C25.6246 11.8697 26.4474 11.6354 27.2703 11.7525ZM28.2107 13.7441C27.7405 13.0412 27.2703 12.6897 26.6825 12.5726C26.0948 12.4554 25.6246 12.6897 25.1544 12.924C24.6842 13.2755 24.4491 13.7441 24.3316 14.3298C24.214 14.9156 24.4491 15.5013 24.9193 16.0871C25.5071 16.79 25.9772 17.1415 26.565 17.1415C27.0351 17.2586 27.5054 17.0243 27.9755 16.79C28.4457 16.4385 28.6809 16.0871 28.7984 15.5013C28.9159 15.0327 28.6809 14.447 28.2107 13.7441Z" fill="#4D8743"/>
<path d="M38.4375 3.78611C39.613 3.43466 40.6709 3.66896 41.4937 4.84047L42.5517 4.37187C42.0815 3.66896 41.3762 3.08321 40.6709 2.84891C39.9656 2.6146 39.0253 2.73176 38.0849 2.96606C37.3796 3.20036 36.9094 3.55181 36.4392 3.90326C35.969 4.25472 35.6163 4.72332 35.4988 5.19192C35.0286 6.24628 35.1461 7.30064 35.6163 8.355C36.0865 9.40936 36.7918 10.2294 37.7322 10.698C38.6726 11.1666 39.7305 11.2838 40.7885 10.8152C41.6113 10.5809 42.199 10.1123 42.6692 9.52651C43.1394 8.94075 43.257 8.23785 43.3745 7.30064L42.1991 7.41779C42.1991 8.8236 41.6113 9.76081 40.5534 10.1123C39.8481 10.3466 39.1428 10.3466 38.4375 9.99511C37.7322 9.64366 37.262 8.94075 36.9094 8.1207C36.4392 7.18349 36.4392 6.24628 36.6743 5.54338C37.0269 4.72332 37.4971 4.13757 38.4375 3.78611Z" fill="#4D8743"/>
<path d="M51.9555 5.30918C51.9555 5.30918 50.6625 5.42633 49.3695 5.66063C48.6642 5.77778 48.0764 5.89493 47.6062 6.01208C47.3711 6.01208 47.136 6.12924 47.0185 6.12924C46.9009 6.12924 46.7834 6.12924 46.7834 6.12924C47.0185 6.94929 47.2536 7.53505 47.8413 7.76935C48.3115 8.00365 48.7817 8.1208 49.2519 8.00365C49.7221 7.8865 50.0747 7.76935 50.3098 7.53505C50.5449 7.30075 50.78 6.94929 50.8976 6.59784H51.9555C51.838 7.18359 51.4854 7.53505 51.0152 8.00365C50.545 8.3551 49.9572 8.5894 49.2519 8.70656C48.7817 8.82371 48.3115 8.82371 47.9589 8.70656C47.7238 8.70656 47.6062 8.58941 47.3711 8.58941C47.136 8.47225 47.0185 8.47225 46.7834 8.3551C46.0781 7.8865 45.6079 7.30075 45.3728 6.36354C45.1377 5.42633 45.2553 4.60627 45.843 3.90337C46.0781 3.55192 46.4307 3.20046 46.7834 3.08331C47.136 2.84901 47.6063 2.73186 48.0765 2.61471C48.3116 2.61471 48.5466 2.49756 48.7817 2.49756C49.0168 2.49756 49.2519 2.49756 49.487 2.61471C49.9572 2.73186 50.3098 2.84901 50.6625 3.08331C51.4853 3.43477 51.838 4.25482 51.9555 5.30918ZM50.6625 4.72343C50.6625 4.37197 50.5449 4.13767 50.3098 3.90337C50.1923 3.66907 49.9572 3.43477 49.6046 3.31761C49.487 3.20046 49.2519 3.20046 49.1344 3.20046C48.8993 3.20046 48.7817 3.20046 48.5466 3.20046C47.9589 3.31761 47.4887 3.55192 47.136 3.90337C46.7834 4.25482 46.6658 4.72343 46.7834 5.30918H46.901C47.0185 5.30918 47.136 5.30918 47.3711 5.19203C47.7238 5.07488 48.194 5.07488 48.7817 4.95773C49.0168 4.95773 49.2519 4.84058 49.487 4.84058C49.7221 4.84058 49.9572 4.84058 50.0747 4.72343C50.4274 4.72343 50.6625 4.72343 50.6625 4.72343Z" fill="#4D8743"/>
<path d="M57.1276 2.0287C56.7749 2.263 56.4223 2.61445 56.0697 3.31736V1.91155H55.0117L55.2468 7.88624H56.3048L56.1872 4.72317C56.1872 4.13742 56.4223 3.55166 56.8925 3.20021C57.3627 2.84876 57.8329 2.61445 58.5382 2.61445H58.7733V1.67725C58.5382 1.67725 58.4206 1.67725 58.3031 1.67725C57.9504 1.7944 57.5978 1.91155 57.1276 2.0287Z" fill="#4D8743"/>
<path d="M63.005 6.71493L63.4752 2.9661L65.1209 3.2004L65.2384 2.4975L63.4752 2.2632L63.7103 0.740234C63.7103 0.740234 63.4752 0.740234 63.1226 0.740234C62.8875 0.740234 62.5348 0.740234 62.5348 0.740234L62.2997 2.2632L61.0067 2.02889V2.7318L62.2997 2.84895L61.9471 6.36348C61.9471 6.94923 62.0646 7.41783 62.2997 7.76929C62.6524 8.12074 63.1226 8.35504 63.7103 8.35504C63.9454 8.35504 64.298 8.35504 64.6507 8.35504L64.7682 7.65214C64.4156 7.65214 64.1805 7.65214 63.9454 7.65214C63.2401 7.65214 62.8874 7.30068 63.005 6.71493Z" fill="#4D8743"/>
<path d="M68.6473 2.02897L69.9403 2.38042L70.1755 1.32606L68.8824 0.974609L68.6473 2.02897Z" fill="#4D8743"/>
<path d="M67.2368 8.94055L68.2947 9.17485L69.5878 3.31731L68.5298 3.08301L67.2368 8.94055Z" fill="#4D8743"/>
<path d="M74.8775 2.84918C74.2897 2.96633 73.937 3.43494 73.5844 4.37214L72.2914 4.02069L72.0563 4.7236L73.3494 5.07505L71.8212 10.1125L72.8791 10.464L74.5248 5.54365C74.5248 5.54365 74.995 5.6608 75.3476 5.77795C75.8178 5.8951 76.1705 6.12941 76.1705 6.12941L76.4056 5.4265C76.4056 5.4265 75.9354 5.30935 75.5827 5.07505C75.1125 4.9579 74.7599 4.84075 74.7599 4.84075L74.8775 4.60644C74.995 4.13784 75.2301 3.90354 75.5827 3.78639C75.9354 3.66924 76.288 3.78639 76.7582 3.90354C76.9933 4.02069 77.2284 4.13784 77.4635 4.25499L77.6986 3.55209C77.3459 3.31779 76.9933 3.20063 76.6407 3.08348C75.9354 2.84918 75.3477 2.73203 74.8775 2.84918Z" fill="#4D8743"/>
<path d="M79.6969 5.54365L80.8724 6.12941L81.3426 5.1922L80.1671 4.60645L79.6969 5.54365Z" fill="#4D8743"/>
<path d="M76.9933 11.9866L77.9337 12.4552L80.4022 7.06626L79.3443 6.59766L76.9933 11.9866Z" fill="#4D8743"/>
<path d="M85.9269 10.6981C86.7497 11.2839 86.9849 11.9868 86.6322 12.924C86.6322 12.924 86.8673 13.0411 87.1024 13.1583C87.3375 13.2754 87.5726 13.3926 87.5726 13.3926C87.8077 12.8068 87.9252 12.2211 87.6901 11.6353C87.455 11.0496 86.9849 10.4638 86.2796 10.1123C86.0445 9.99519 85.8094 9.87804 85.6919 9.76089C85.4568 9.64374 85.2217 9.64374 85.1041 9.64374C84.6339 9.52659 84.2813 9.64374 83.9286 9.76089C83.1058 9.99519 82.518 10.4638 82.0478 11.2839C81.5776 12.1039 81.4601 12.8068 81.6952 13.6269C81.8127 13.9783 81.9303 14.3298 82.1654 14.6812C82.283 14.7984 82.4005 15.0327 82.6356 15.1498C82.7531 15.267 82.9882 15.3841 83.2233 15.5013C83.811 15.8527 84.3988 15.9699 84.9865 15.9699C85.5743 15.9699 86.162 15.7356 86.6322 15.267C86.6322 15.267 86.3971 15.1498 86.2796 14.9155C86.0445 14.7984 85.9269 14.5641 85.9269 14.5641C85.2216 15.267 84.3988 15.3841 83.6935 14.9155C83.2233 14.5641 82.9882 14.2126 82.8707 13.6269C82.7531 13.1583 82.9882 12.4554 83.3409 11.8696C83.6935 11.2839 84.1637 10.8152 84.6339 10.6981C84.869 10.3466 85.3392 10.3466 85.9269 10.6981Z" fill="#4D8743"/>
<path d="M92.2746 21.0076C91.9219 21.359 91.6869 21.5933 91.5693 21.9448L90.864 21.2419C90.9815 21.1247 91.2167 20.7733 91.5693 20.4218C91.0991 20.539 90.6289 20.539 90.2762 20.4218C89.806 20.3047 89.4534 20.0703 88.9832 19.7189C88.3955 19.2503 88.0428 18.6645 87.9253 18.1959C87.8077 17.6102 87.9253 17.1416 88.1604 16.7901C88.513 16.3215 89.1008 16.0872 89.8061 16.2044C90.5114 16.3215 91.4517 16.7901 92.6272 17.8445C92.7447 17.9616 92.9799 18.1959 93.3325 18.5474C93.6852 18.1959 93.8027 17.9616 93.9203 17.7273C94.0378 17.493 93.9202 17.2587 93.8027 16.9073C93.6851 16.5558 93.4501 16.3215 93.0974 15.9701C92.157 15.15 91.4517 15.0329 90.864 15.5015L90.1587 14.6814C90.9815 13.9785 92.2745 14.2128 93.8027 15.5015C94.0378 15.6186 94.1553 15.8529 94.3904 15.9701C94.508 16.0872 94.6255 16.3215 94.743 16.4387C94.9781 16.7901 95.0958 17.0244 95.0958 17.3759C95.2133 17.9616 94.8606 18.5474 94.2729 19.1331L92.2746 21.0076ZM92.5097 19.2503C92.6272 19.1331 92.6272 19.016 92.7448 18.8988C92.3921 18.5474 92.157 18.3131 92.0395 18.1959C91.3342 17.6102 90.7464 17.2587 90.2762 17.1416C89.806 17.0244 89.3358 17.1416 89.1007 17.493C88.8656 17.7273 88.8657 17.9616 88.9832 18.3131C89.1008 18.6645 89.2183 18.8988 89.571 19.2503C90.0412 19.7189 90.6289 19.836 91.2166 19.836C91.5692 19.836 92.157 19.6017 92.5097 19.2503Z" fill="#4D8743"/>
<path d="M97.5642 20.6561C97.5642 20.6561 98.1519 21.359 98.7397 22.0619C99.0923 22.4133 99.3274 22.7648 99.5625 22.9991C99.7976 23.2334 99.9151 23.4677 99.9151 23.4677C99.9151 23.4677 99.5625 23.4677 98.9748 23.4677C98.387 23.4677 97.6817 23.3505 96.9764 23.3505C95.4483 23.3505 94.0377 23.3505 94.0377 23.3505L93.5675 23.8191C93.5675 23.8191 93.8026 24.0534 94.0377 24.4049C94.3904 24.7563 94.743 25.225 95.2132 25.6936C95.5659 26.1622 96.0361 26.6308 96.2712 27.0994C96.3887 27.3337 96.5063 27.4508 96.6238 27.568C96.7414 27.6851 96.7413 27.8023 96.7413 27.8023L97.3291 27.3337C97.3291 27.3337 97.2115 27.0994 96.9764 26.8651C96.7413 26.6308 96.5062 26.1622 96.1536 25.8107C95.5658 25.1078 94.9781 24.2877 94.9781 24.2877C94.9781 24.2877 96.5063 24.1706 98.0344 24.2877C98.8572 24.2877 99.5625 24.4049 100.15 24.4049C100.738 24.4049 101.091 24.522 101.091 24.522L101.443 24.1706C101.443 24.1706 101.443 24.0534 101.326 23.9363C101.208 23.8191 101.091 23.702 100.973 23.4677C100.62 23.1162 100.268 22.5305 99.7976 22.0619C99.445 21.4761 98.9748 21.0075 98.6221 20.6561C98.2695 20.3046 98.0344 20.0703 98.0344 20.0703L97.5642 20.6561Z" fill="#4D8743"/>
<path d="M104.029 26.2791L104.852 27.3335L105.675 26.8649L104.97 25.6934L104.029 26.2791Z" fill="#4D8743"/>
<path d="M98.2695 30.145L98.7398 30.965L103.912 27.9191L103.207 26.8647L98.2695 30.145Z" fill="#4D8743"/>
<path d="M107.321 36.4714C106.968 37.2914 106.38 37.76 105.557 38.1115C104.735 38.4629 103.912 38.4629 103.089 38.1115C102.736 37.9943 102.384 37.76 102.149 37.4086C101.913 37.1743 101.561 36.8228 101.443 36.3542C101.091 35.5342 100.973 34.7141 101.326 34.0112C101.678 33.3083 102.149 32.6054 102.971 32.2539C103.794 31.7853 104.617 31.7853 105.44 32.0196C105.793 32.1368 106.145 32.3711 106.498 32.7225C106.85 33.074 107.086 33.4254 107.203 33.894C107.438 34.3626 107.556 34.8312 107.556 35.2999C107.556 35.6513 107.556 36.0028 107.321 36.4714ZM105.205 36.94C106.028 36.5885 106.498 36.2371 106.615 35.6513C106.733 35.0655 106.733 34.5969 106.498 34.1283C106.263 33.5426 105.91 33.1911 105.322 33.074C104.852 32.8397 104.147 32.9568 103.442 33.3083C102.619 33.6597 102.266 34.1283 102.031 34.5969C101.913 35.0655 101.913 35.5341 102.149 36.1199C102.384 36.5885 102.736 36.94 103.206 37.1743C103.794 37.2914 104.382 37.2914 105.205 36.94Z" fill="#4D8743"/>
<path d="M110.612 45.0234C110.73 44.5548 110.73 44.0862 110.612 43.5004C110.377 42.5632 109.789 41.8603 108.731 41.5088L109.789 41.1574L109.437 40.103L103.794 41.8603L104.029 42.9147L107.203 41.9774C107.791 41.8603 108.379 41.8603 108.849 42.0946C109.319 42.3289 109.672 42.7975 109.789 43.3833C109.907 43.8519 109.907 44.2033 109.672 44.5548C109.554 44.9062 109.202 45.1405 108.614 45.2577L104.852 46.0777C104.852 46.0777 104.852 46.312 104.97 46.5463C104.97 46.7806 105.087 47.0149 105.087 47.0149L108.496 46.312C109.202 46.1949 109.789 45.9606 110.024 45.8434C110.259 45.8434 110.377 45.492 110.612 45.0234Z" fill="#4D8743"/>
<path d="M107.673 55.0984L107.556 56.1528C107.086 55.9185 106.615 55.567 106.263 55.0984C105.91 54.6298 105.793 53.9269 105.675 53.224C105.557 52.2868 105.91 51.5839 106.38 50.881C106.85 50.2952 107.556 49.8266 108.496 49.7095C109.437 49.5923 110.259 49.8266 110.847 50.4124C110.965 50.5295 111.2 50.7638 111.317 50.881C111.435 51.1153 111.552 51.2324 111.67 51.4667C111.905 51.8182 111.905 52.2868 112.023 52.8725C112.023 53.1068 112.023 53.3411 112.023 53.5754C112.023 53.8097 111.905 54.044 111.905 54.2783C111.788 54.6298 111.552 55.0984 111.317 55.3327C110.847 55.9185 110.024 56.2699 108.966 56.2699C108.966 56.2699 108.966 55.9185 108.966 55.4499C108.966 54.9813 108.966 54.2783 108.966 53.6926C108.966 52.9897 108.849 52.4039 108.849 51.9353C108.849 51.701 108.849 51.4667 108.849 51.3496C108.849 51.2324 108.849 51.1153 108.849 51.1153C107.908 51.2324 107.438 51.4667 107.086 51.9353C106.85 52.4039 106.733 52.8725 106.733 53.3411C106.733 53.5754 106.733 53.8097 106.85 53.9269C106.85 54.1612 106.968 54.2783 107.086 54.3955C107.086 54.6298 107.321 54.8641 107.673 55.0984ZM109.319 50.881V50.9981C109.319 51.1153 109.319 51.2324 109.319 51.4667C109.319 51.8182 109.436 52.2868 109.436 52.8725C109.436 53.1068 109.436 53.3411 109.436 53.5754C109.436 53.8097 109.436 54.044 109.436 54.1612C109.436 54.5126 109.436 54.747 109.436 54.747C109.789 54.747 110.024 54.6298 110.377 54.5126C110.612 54.3955 110.847 54.1612 111.082 53.8097C111.317 53.4583 111.317 53.1068 111.317 52.6382C111.317 52.0525 111.082 51.5839 110.73 51.2324C110.259 51.1153 109.907 50.881 109.319 50.881Z" fill="#4D8743"/>
<path d="M6.69943 69.7419C6.69943 69.7419 6.81695 69.9762 6.81695 70.3277C6.9345 70.6791 7.05207 71.1477 7.28717 71.6163C7.40472 72.0849 7.63977 72.5535 7.75732 72.905C7.87487 73.2564 7.99243 73.4907 7.99243 73.4907L8.81528 73.2564C8.81528 73.2564 8.69772 73.0221 8.58017 72.6707C8.46262 72.3192 8.34512 71.8506 8.11002 71.382C7.99247 70.9134 7.75735 70.4448 7.6398 70.0934C7.52225 69.7419 7.52228 69.5076 7.52228 69.5076L9.99077 68.8047C9.99077 68.8047 10.1083 69.039 10.2259 69.5076C10.3434 69.9762 10.5785 70.562 10.696 71.1477C10.9311 71.7335 11.0487 72.3192 11.2838 72.6707C11.4013 73.1393 11.5189 73.3736 11.5189 73.3736L12.3417 73.0221C12.3417 73.0221 12.2242 72.6707 11.9891 72.2021C11.8716 71.9678 11.754 71.6163 11.6365 71.2649C11.5189 70.9134 11.4013 70.562 11.2838 70.2105C11.1662 69.8591 11.0487 69.5076 10.9311 69.1562C10.8136 68.8047 10.696 68.4532 10.696 68.2189C10.5785 67.6332 10.461 67.2817 10.461 67.2817L2.70276 69.2733C2.70276 69.2733 2.82032 69.7419 2.93787 70.3277C3.05542 70.6791 3.17295 71.0306 3.2905 71.382C3.40805 71.7335 3.52558 72.2021 3.64313 72.6707C3.87823 73.4907 4.23089 74.3108 4.46598 75.0137C4.58353 75.3652 4.70109 75.5995 4.70109 75.7166C4.81864 75.9509 4.81861 75.9509 4.81861 75.9509L5.64147 75.5995C5.64147 75.5995 5.64149 75.4823 5.52395 75.3651C5.52395 75.248 5.40638 75.0137 5.28884 74.7794C5.17129 74.3108 4.81867 73.6079 4.58357 73.0221C4.34848 72.3192 4.11338 71.7335 3.99583 71.1477C3.87828 70.6791 3.76072 70.3277 3.76072 70.3277L6.69943 69.7419Z" fill="#4D8743"/>
<path d="M8.2276 79.8171L11.6365 78.177L12.3418 79.5828L12.9295 79.3485L12.2243 77.9427L13.6348 77.2398C13.6348 77.2398 13.5173 77.0055 13.3997 76.7712C13.2822 76.5369 13.1646 76.3026 13.1646 76.3026L11.754 76.8883L11.1663 75.7168L10.461 75.9511L11.0488 77.1226L7.75737 78.6456C6.69944 79.1142 6.46434 80.1685 7.16963 81.4572C7.28718 81.6915 7.52228 82.0429 7.75737 82.3944L8.34512 82.0429C8.11002 81.6915 7.99251 81.4572 7.87497 81.2229C7.52232 80.6371 7.63985 80.1685 8.2276 79.8171Z" fill="#4D8743"/>
<path d="M15.3979 81.4574L15.9857 82.5117L16.8085 81.926L16.2208 80.9888L15.3979 81.4574Z" fill="#4D8743"/>
<path d="M9.40308 85.206L10.1083 86.2604L15.0454 82.9802L14.4576 82.043L9.40308 85.206Z" fill="#4D8743"/>
<path d="M18.3367 88.4863C18.9244 89.1892 18.9244 90.0092 18.3367 90.8293C18.3367 90.8293 18.5718 90.9464 18.6894 91.1807C18.8069 91.2979 18.9244 91.2979 18.9244 91.415C19.042 91.5322 19.042 91.5322 19.042 91.5322C19.3947 91.0636 19.6297 90.4778 19.5122 89.8921C19.5122 89.3063 19.1596 88.7206 18.6894 88.0177C18.1017 87.3147 17.3963 86.8461 16.5735 86.729C15.7506 86.6118 14.9278 86.8461 14.2225 87.4319C13.5172 87.9005 13.047 88.6034 12.9295 89.4235C12.8119 90.2435 13.0471 91.0636 13.7524 92.0008C14.2225 92.5865 14.9278 93.0551 15.5156 93.1723C16.1033 93.2894 16.8086 93.2894 17.3963 92.938C17.3963 92.938 17.3963 92.938 17.2788 92.8208C17.1613 92.7037 17.1612 92.5865 17.0437 92.4694C16.9261 92.2351 16.6911 92.0008 16.6911 92.0008C15.7507 92.4694 14.9278 92.2351 14.3401 91.5322C13.8699 91.0636 13.7523 90.4778 13.8699 89.8921C13.9874 89.3063 14.3401 88.8377 14.9278 88.3691C15.5156 87.9005 15.9857 87.7833 16.5735 87.7833C17.3963 87.7833 17.8665 88.0177 18.3367 88.4863Z" fill="#4D8743"/>
<path d="M23.8615 99.733C23.6264 100.084 23.3913 100.436 23.2737 100.787C23.2737 100.787 23.0387 100.553 22.8036 100.436C22.5685 100.202 22.3333 100.084 22.3333 100.084C22.4509 99.8501 22.5684 99.6158 22.9211 99.1472C21.9807 99.3815 20.9228 99.1472 19.9824 98.21C19.6297 97.8586 19.3946 97.6243 19.1595 97.2728C18.9244 96.9214 18.8069 96.6871 18.8069 96.3356C18.6894 95.7499 18.8069 95.2813 19.1595 94.9298C19.6297 94.4612 20.2175 94.344 20.9228 94.5783C21.1579 94.5783 21.2754 94.6955 21.5105 94.8126C21.7456 94.9298 21.9807 95.0469 22.2158 95.1641C22.686 95.5156 23.1562 95.867 23.8615 96.3356C23.979 96.4528 24.3317 96.6871 24.5668 97.0385C24.9194 96.6871 25.037 96.3356 25.1545 96.2185C25.2721 95.9842 25.1545 95.7499 25.0369 95.5156C24.9194 95.2813 24.6843 94.9298 24.3317 94.5783C23.5088 93.7583 22.686 93.6411 22.0982 93.9926L21.393 93.1725C21.8632 92.8211 22.4509 92.8211 22.9211 93.0554C23.5088 93.2897 24.0965 93.6411 24.8018 94.2269C25.5071 94.9298 25.9774 95.5155 26.0949 95.9842C26.2125 96.5699 25.9773 97.1557 25.3896 97.8586L23.8615 99.733ZM23.8615 97.8586C23.979 97.7414 23.979 97.6243 24.0966 97.5071C23.7439 97.1557 23.5088 96.9214 23.2737 96.8042C22.5684 96.2185 21.9807 95.7499 21.393 95.6327C20.8052 95.5156 20.4525 95.5156 20.0999 95.867C19.8648 96.1013 19.8649 96.3356 19.8649 96.6871C19.9824 97.0385 20.2175 97.39 20.5701 97.7414C20.8052 97.9757 21.1579 98.21 21.393 98.3272C21.7456 98.4443 21.9807 98.5615 22.3333 98.5615C23.0386 98.5615 23.5088 98.3272 23.8615 97.8586Z" fill="#4D8743"/>
<path d="M38.5549 106.176C38.5549 106.176 38.4374 106.176 38.3198 106.059C38.2023 106.059 37.9672 105.942 37.7321 105.825C37.2619 105.591 36.5566 105.356 35.9688 105.005C35.3811 104.653 34.6758 104.419 34.2056 104.185C33.9705 104.068 33.7354 103.95 33.6179 103.95C33.5003 103.833 33.3828 103.833 33.3828 103.833C32.9127 104.653 32.9126 105.239 33.1477 105.825C33.5004 106.293 33.853 106.645 34.4407 106.996C35.3811 107.465 36.204 107.348 36.9093 106.762C36.9093 106.762 37.1443 106.879 37.3794 107.113C37.6145 107.231 37.8497 107.348 37.8497 107.348C37.497 107.699 36.9092 107.934 36.204 108.051C35.4987 108.051 34.7934 107.934 33.9706 107.582C33.5004 107.348 33.0302 107.113 32.6775 106.762C32.3249 106.411 32.0898 106.059 31.9723 105.591C31.6196 104.77 31.7372 103.95 32.2074 103.13C32.6776 102.31 33.3828 101.842 34.2056 101.607C35.0285 101.373 35.8513 101.49 36.7917 101.959C37.2619 102.193 37.6146 102.427 37.8497 102.662C38.2023 102.896 38.3198 103.247 38.5549 103.599C38.9076 104.302 38.9076 105.239 38.5549 106.176ZM37.6146 105.122C37.7321 104.77 37.7321 104.536 37.7321 104.185C37.7321 103.95 37.6145 103.599 37.3794 103.365C37.1443 103.13 36.9092 102.896 36.5566 102.662C36.0864 102.427 35.4987 102.31 35.0285 102.427C34.5583 102.545 34.0881 102.779 33.853 103.247C33.853 103.247 34.0881 103.365 34.4407 103.599C34.7934 103.716 35.2636 103.95 35.7338 104.185C36.204 104.419 36.6742 104.653 37.0268 104.77C37.2619 105.005 37.6146 105.122 37.6146 105.122Z" fill="#4D8743"/>
<path d="M51.3678 104.302C51.3678 104.302 51.4853 104.77 51.7204 105.59C51.9555 106.41 52.1906 107.465 52.5433 108.402C52.8959 109.456 53.131 110.511 53.4837 111.331C53.7188 112.151 53.9539 112.619 53.9539 112.619C53.9539 112.619 53.8363 112.619 53.7188 112.619C53.6012 112.619 53.3661 112.619 53.2486 112.619C52.8959 112.619 52.5433 112.502 52.5433 112.502C52.5433 112.502 52.3082 111.917 52.0731 111.331C51.838 110.745 51.7204 110.159 51.7204 110.159H51.6029C51.4854 110.159 51.3678 110.159 51.1327 110.159C50.7801 110.159 50.3099 110.042 49.8397 109.925C49.6046 109.925 49.3695 109.808 49.1344 109.808C48.8993 109.808 48.6642 109.691 48.5466 109.691C48.194 109.574 47.9589 109.574 47.9589 109.574C47.9589 109.574 47.6063 110.159 47.2536 110.628C46.901 111.097 46.5483 111.682 46.5483 111.682C46.5483 111.682 46.3132 111.682 45.9605 111.565C45.7254 111.448 45.3728 111.448 45.3728 111.448C45.3728 111.448 45.7255 110.979 46.1957 110.394C46.6658 109.691 47.3711 108.871 47.9589 107.933C48.5466 106.996 49.1344 106.176 49.6046 105.473C50.0748 104.77 50.3098 104.302 50.3098 104.302H51.3678ZM51.3678 109.339C51.3678 109.339 51.2502 109.105 51.2502 108.753C51.1327 108.402 51.0151 107.816 50.8976 107.348C50.6625 106.293 50.4274 105.356 50.4274 105.356C50.4274 105.356 49.9572 106.293 49.3695 107.113C48.7817 107.933 48.194 108.871 48.194 108.871C48.194 108.871 49.0168 108.988 49.7221 109.105C50.0747 109.222 50.545 109.222 50.7801 109.222C51.1327 109.339 51.3678 109.339 51.3678 109.339Z" fill="#4D8743"/>
<path d="M65.7087 106.527C65.3561 106.41 64.8858 106.293 64.4156 106.41C63.3577 106.527 62.6524 107.113 62.2998 108.05C62.1822 107.699 61.9471 107.348 61.4769 107.113C61.1243 106.879 60.6541 106.762 60.1839 106.762C59.2435 106.762 58.5382 107.23 57.9505 108.05V106.879H57.0101L56.8926 112.854H58.0681V109.339C58.0681 108.871 58.3032 108.402 58.6558 108.05C59.0084 107.699 59.4786 107.582 59.9488 107.465C60.3014 107.465 60.6541 107.582 60.8892 107.816C61.2418 108.05 61.3594 108.402 61.4769 108.871L61.712 112.736L62.8875 112.619L62.6524 109.339C62.6524 108.636 62.77 108.168 63.1226 107.816C63.4753 107.465 63.9455 107.23 64.2981 107.23C64.6508 107.23 64.8859 107.23 65.121 107.348C65.3561 107.465 65.5912 107.582 65.7087 107.816C65.8262 108.05 65.8262 108.285 65.9437 108.636L66.5315 112.268L67.707 112.034L67.1192 108.402C67.0017 107.816 66.8841 107.465 66.7666 107.23C66.2964 106.879 66.0613 106.645 65.7087 106.527Z" fill="#4D8743"/>
<path d="M75.4652 104.419C76.1705 104.77 76.7582 105.356 77.1108 106.293C77.4635 107.113 77.4635 107.934 77.1108 108.636C76.7582 109.339 76.0529 109.925 75.1126 110.277C74.0546 110.628 73.1142 110.511 72.4089 109.925L72.1738 110.979L71.5861 111.097L69.5878 103.365L70.6457 103.13L71.4685 106.059C71.8212 105.239 72.2914 104.653 73.2317 104.302C74.0546 104.185 74.7599 104.185 75.4652 104.419ZM76.0529 106.879C75.8178 106.176 75.4652 105.708 74.995 105.356C74.5248 105.005 74.0546 105.005 73.4668 105.239C72.9967 105.356 72.644 105.708 72.4089 106.059C72.1738 106.528 72.0563 106.879 72.0563 107.465L72.4089 108.754C72.644 109.339 72.9967 109.691 73.4668 109.808C73.937 109.925 74.4072 109.925 74.995 109.808C75.5827 109.691 76.0529 109.222 76.288 108.754C76.288 108.168 76.288 107.465 76.0529 106.879Z" fill="#4D8743"/>
<path d="M78.5215 101.373C78.5215 101.373 78.7566 101.256 79.1092 101.139C79.3443 101.022 79.6969 100.904 79.6969 100.904L79.2268 99.9673C79.2268 99.9673 78.9917 100.084 78.7566 100.202C78.5215 100.319 78.1688 100.436 78.1688 100.436L78.5215 101.373Z" fill="#4D8743"/>
<path d="M81.4601 107.699C81.4601 107.699 81.6952 107.582 82.0478 107.465C82.2829 107.347 82.6356 107.23 82.6356 107.23L80.0495 101.841C80.0495 101.841 79.8144 101.958 79.5794 102.076C79.3443 102.193 79.1091 102.31 79.1091 102.31L81.4601 107.699Z" fill="#4D8743"/>
<path d="M90.1588 99.3812C90.1588 99.3812 89.9236 99.6155 89.4534 99.8498C88.9832 100.201 88.3955 100.553 87.8078 100.904C87.22 101.256 86.6323 101.607 86.1621 101.959C85.6919 102.193 85.4568 102.427 85.4568 102.427C85.927 103.247 86.3972 103.599 86.9849 103.599C87.5727 103.599 88.1604 103.482 88.6306 103.13C89.4535 102.544 89.8061 101.841 89.6885 101.021L90.7465 100.553C90.864 101.139 90.7465 101.724 90.5114 102.31C90.1587 102.896 89.6886 103.482 88.9833 103.95C88.0429 104.536 87.1025 104.77 86.2797 104.653C85.4568 104.536 84.7515 103.95 84.2813 103.13C83.8111 102.31 83.6936 101.49 84.0462 100.67C84.2813 99.8498 84.8691 99.1469 85.6919 98.6783C86.5148 98.0926 87.2201 97.9754 88.0429 98.0926C88.7482 97.9754 89.4535 98.444 90.1588 99.3812ZM88.6306 99.4984C88.3955 99.2641 88.1604 99.0298 87.9253 98.9126C87.6902 98.7955 87.3376 98.6783 86.9849 98.6783C86.6323 98.6783 86.2796 98.7955 85.927 99.0298C85.4568 99.3812 85.1041 99.7327 84.9866 100.201C84.869 100.67 84.8691 101.139 85.1042 101.724C85.1042 101.724 86.0446 101.139 86.8674 100.67C87.8078 100.084 88.6306 99.4984 88.6306 99.4984Z" fill="#4D8743"/>
<path d="M94.508 91.8836C94.0378 92.0007 93.6851 92.235 93.2149 92.5865C92.5097 93.2894 92.2745 93.9923 92.3921 95.0467L91.6868 94.2266C91.6868 94.2266 91.4517 94.3438 91.3342 94.5781C91.2166 94.6952 91.0991 94.6952 91.0991 94.8124C90.9815 94.9295 90.9816 94.9295 90.9816 94.9295L94.7431 99.4984C94.7431 99.4984 94.8606 99.4984 94.8606 99.3812C94.9782 99.2641 95.0957 99.1469 95.2133 99.1469C95.4484 98.9126 95.6835 98.7955 95.6835 98.7955L93.5676 96.3353C93.2149 95.8667 92.9799 95.3981 93.0974 94.8124C93.0974 94.5781 93.215 94.3438 93.3325 94.1095C93.4501 93.8752 93.5676 93.6409 93.8027 93.4066C94.1553 93.1723 94.3905 92.9379 94.8606 92.9379C95.2133 92.9379 95.5659 93.0551 96.0361 93.4066L98.7397 96.101L99.5626 95.281L97.094 92.9379C96.5063 92.4693 96.1537 92.1179 95.801 92.0007C95.2133 91.7664 94.8607 91.7664 94.508 91.8836Z" fill="#4D8743"/>
<path d="M101.796 90.1266L98.8572 87.7836C98.8572 87.7836 98.9748 87.6664 98.9748 87.5493C99.0923 87.4321 99.2099 87.315 99.3274 87.0807C99.5625 86.7292 99.7976 86.3778 99.7976 86.3778L99.2099 85.9092C99.2099 85.9092 98.9748 86.2606 98.7397 86.6121C98.6221 86.7292 98.5046 86.9635 98.387 87.0807C98.2695 87.1978 98.2694 87.315 98.2694 87.315L97.094 86.3778L96.5062 87.1978L97.5642 88.2522C97.5642 88.2522 97.3291 88.4865 97.2116 88.7208C96.9765 88.9551 96.7413 89.1894 96.7413 89.1894L97.3291 89.658C97.3291 89.658 97.5642 89.4237 97.7993 89.1894C98.0344 88.9551 98.2694 88.7208 98.2694 88.7208L100.973 91.0638C101.443 91.4153 101.913 91.6496 102.384 91.5324C102.854 91.4153 103.324 91.0638 103.794 90.4781C104.029 90.2438 104.264 89.8923 104.382 89.5409L103.794 89.0723C103.559 89.4237 103.442 89.658 103.206 89.8923C102.854 90.3609 102.266 90.4781 101.796 90.1266Z" fill="#4D8743"/>
<path d="M108.261 80.9888C108.614 81.2231 108.966 81.3402 109.319 81.3402L108.731 82.3946C108.496 82.3946 108.261 82.2774 107.673 82.0431C107.908 82.5117 108.026 82.9803 107.908 83.449C107.791 83.9176 107.673 84.5033 107.321 85.0891C106.85 85.9091 106.263 86.3777 105.793 86.612C105.205 86.8463 104.735 86.7292 104.382 86.4949C103.912 86.1434 103.677 85.5577 103.677 84.8548C103.677 84.5033 103.794 84.0347 104.029 83.449C104.147 83.2147 104.264 82.8632 104.382 82.6289C104.5 82.2774 104.735 82.0431 104.852 81.6917C104.97 81.4574 105.087 81.2231 105.322 80.8716C104.852 80.6373 104.617 80.5202 104.382 80.5202C104.147 80.5202 103.912 80.6373 103.677 80.7545C103.442 80.9888 103.206 81.2231 102.971 81.6917C102.384 82.6289 102.266 83.449 102.854 84.0347C102.854 84.0347 102.736 84.269 102.501 84.5033C102.266 84.7376 102.149 84.8548 102.149 84.8548C101.443 84.0347 101.561 82.8632 102.501 81.2231C102.971 80.403 103.559 79.8173 104.029 79.583C104.5 79.3487 105.205 79.4658 106.028 79.9344L108.261 80.9888ZM106.38 81.3402C106.263 81.3402 106.145 81.2231 106.028 81.2231C105.793 81.6917 105.557 81.926 105.44 82.1603C104.97 82.9804 104.735 83.6833 104.617 84.269C104.5 84.8548 104.735 85.2062 105.087 85.5577C105.322 85.6748 105.675 85.6748 105.91 85.5577C106.263 85.4405 106.498 85.0891 106.851 84.6205C107.203 84.0347 107.321 83.3318 107.203 82.746C107.203 82.0431 106.85 81.5745 106.38 81.3402Z" fill="#4D8743"/>
<path d="M110.965 77.7082L111.435 76.5367L104.029 73.6079L103.559 74.6623L110.965 77.7082Z" fill="#4D8743"/>
<path d="M112.493 67.0477L112.845 65.9933C113.316 66.2276 113.668 66.8134 113.903 67.3991C114.021 67.7506 114.021 68.102 114.021 68.4535C114.021 68.8049 113.903 69.2735 113.903 69.625C113.786 70.2107 113.551 70.6794 113.316 71.0308C113.081 71.3823 112.728 71.7337 112.375 71.968C111.67 72.4366 110.847 72.5538 109.907 72.2023C108.966 71.968 108.379 71.3823 108.026 70.5622C107.791 70.2107 107.673 69.7421 107.673 69.3907C107.673 68.9221 107.673 68.5706 107.791 68.102C107.908 67.6334 108.026 67.282 108.261 66.9305C108.496 66.5791 108.731 66.3448 109.084 66.1105C109.672 65.6419 110.612 65.5247 111.67 65.6419C111.67 65.6419 111.552 65.9933 111.552 66.4619C111.435 66.9305 111.317 67.6334 111.2 68.3363C111.082 69.0392 110.847 69.7421 110.73 70.2107C110.612 70.6793 110.495 71.0308 110.495 71.0308C111.317 71.2651 112.023 71.2651 112.493 70.7965C112.963 70.445 113.198 69.8593 113.316 69.3907C113.433 68.9221 113.433 68.4535 113.316 68.102C113.081 67.7506 112.846 67.3991 112.493 67.0477ZM109.672 70.7965C109.672 70.7965 110.024 69.8593 110.259 68.8049C110.377 68.3363 110.494 67.7506 110.612 67.3991C110.73 67.0477 110.73 66.8134 110.73 66.8134C110.377 66.8134 110.142 66.8134 109.789 66.8134C109.554 66.9305 109.202 67.0477 108.966 67.282C108.731 67.5163 108.496 67.8677 108.496 68.2192C108.379 68.8049 108.379 69.2735 108.614 69.7421C108.731 70.3279 109.201 70.6793 109.672 70.7965Z" fill="#4D8743"/>
</svg>
