<svg width="83" height="67" viewBox="0 0 83 67" fill="none" xmlns="http://www.w3.org/2000/svg">
<path d="M82.6843 31.6299L82.5668 24.8352L60.5852 25.0695L60.7028 31.8642H66.2275L66.3451 41.7049L77.6297 41.5877L77.3946 31.7471L82.6843 31.6299ZM34.7246 33.7386C34.607 16.6346 52.2393 11.8314 71.3997 22.8436L71.2821 9.13695C61.2905 3.74801 50.0059 0.350629 39.6616 0.46778C22.6171 0.702081 0.400504 9.37125 0.870698 34.0901C1.34089 58.6918 21.6767 66.5409 40.3669 66.4237C55.0605 66.4237 63.9941 61.6205 71.7523 57.6374L71.6348 43.8136C51.8867 55.5287 34.7246 50.8427 34.7246 33.7386ZM20.1486 38.7761C19.4433 38.7761 18.6205 38.659 17.7976 38.659L17.6801 31.9814C18.3854 32.45 19.3258 32.45 20.0311 32.45C22.8522 32.45 25.2032 29.9898 25.2032 27.061C25.2032 24.1323 22.7347 21.6721 19.9135 21.7892C17.0924 21.7892 14.7414 24.2494 14.7414 27.1782L14.9765 52.2485C11.5676 52.2485 8.86398 49.4369 8.86398 46.0395L8.62888 27.2953C8.62888 20.7349 13.6835 15.3459 19.9135 15.3459C26.1436 15.2288 31.3157 20.5006 31.4332 26.9439C31.4332 33.3872 26.3787 38.7761 20.1486 38.7761Z" fill="#111215"/>
</svg>
