<svg width="109" height="94" viewBox="0 0 109 94" fill="none" xmlns="http://www.w3.org/2000/svg">
<path d="M52.6096 79.8921V93.7159C51.0815 93.8331 49.5533 93.9502 47.9076 93.9502C22.047 93.9502 0.888336 72.8631 0.888336 47.0899C0.888336 21.3167 22.047 0.229492 47.9076 0.229492C49.4358 0.229492 51.0815 0.346643 52.6096 0.463794V14.2876C51.0815 14.0533 49.5533 13.9361 47.9076 13.9361C29.6877 13.9361 14.759 28.8143 14.759 46.9727C14.759 65.1311 29.6877 80.0093 47.9076 80.0093C49.5533 80.2436 51.0815 80.1264 52.6096 79.8921Z" fill="black"/>
<path d="M71.6524 40.0608H98.8061V54.3532H71.6524C74.9437 69.1142 88.2267 80.2436 103.978 80.2436C105.506 80.2436 107.152 80.1264 108.68 79.8921V93.7159C107.152 93.8331 105.624 93.9502 103.978 93.9502C78.1176 93.9502 56.9589 72.8631 56.9589 47.0899C56.9589 21.3167 78 0.229492 103.978 0.229492C105.506 0.229492 107.152 0.346643 108.68 0.463794V14.2876C107.152 14.0533 105.624 13.9361 103.978 13.9361C88.2267 14.1705 74.9437 25.2998 71.6524 40.0608Z" fill="black"/>
</svg>
