<svg width="12" height="12" viewBox="0 0 12 12" fill="none" xmlns="http://www.w3.org/2000/svg">
<path d="M10.2426 1.75736C11.3679 2.88258 12 4.4087 12 6C12 7.5913 11.3679 9.11742 10.2426 10.2426C9.11742 11.3679 7.5913 12 6 12C4.4087 12 2.88258 11.3679 1.75736 10.2426L6 6L10.2426 1.75736Z" fill="#174860"/>
<path d="M1.75736 10.2426C0.632142 9.11742 4.81399e-07 7.5913 -4.29137e-07 6C-1.33967e-06 4.40871 0.632138 2.88258 1.75735 1.75736C2.88257 0.632146 4.40869 2.9774e-06 5.99999 4.29145e-07C7.59129 -2.11911e-06 9.11741 0.632136 10.2426 1.75735L6 6L1.75736 10.2426Z" fill="#5799B9"/>
</svg>
