<svg width="30" height="30" viewBox="0 0 30 30" fill="none" xmlns="http://www.w3.org/2000/svg">
<path d="M25.6066 4.3934C28.4196 7.20644 30 11.0218 30 15C30 18.9782 28.4196 22.7936 25.6066 25.6066C22.7936 28.4196 18.9783 30 15 30C11.0218 30 7.20645 28.4196 4.3934 25.6066L15 15L25.6066 4.3934Z" fill="#174860"/>
<path d="M4.3934 25.6066C1.58036 22.7936 2.8709e-06 18.9783 1.31134e-06 15C-2.48219e-07 11.0218 1.58035 7.20645 4.39339 4.39341C7.20643 1.58036 11.0217 5.97026e-06 15 -1.31134e-06C18.9782 -8.59295e-06 22.7935 1.58034 25.6066 4.39338L15 15L4.3934 25.6066Z" fill="#FFB583"/>
</svg>
