<svg width="40" height="40" viewBox="0 0 40 40" fill="none" xmlns="http://www.w3.org/2000/svg">
<path d="M24.9019 5.39947C24.9019 5.39247 24.9019 5.38447 24.9019 5.37847V5.32847H24.9009C24.8579 3.14747 23.4549 1.17947 21.3889 0.415469C20.8329 0.209469 20.2429 0.105469 19.6339 0.105469C18.0519 0.105469 16.5259 0.811469 15.5509 1.99247C14.0999 3.75147 13.9029 6.22047 15.0609 8.13547C16.0149 9.71247 17.7709 10.6925 19.6439 10.6925C19.9839 10.6925 20.3269 10.6605 20.6629 10.5965C22.7869 10.1845 24.4979 8.41247 24.8239 6.28447C24.8659 5.99547 24.8939 5.74647 24.8999 5.49247L24.9019 5.49147V5.39947ZM18.9729 8.90447C18.8529 8.88147 18.7359 8.85447 18.6109 8.81747C18.5109 8.79147 18.4149 8.75547 18.2629 8.70147L18.1869 8.67047C17.9969 8.57747 17.7939 8.47347 17.6029 8.34647C17.5479 8.30947 17.4939 8.26847 17.4399 8.22947L17.3599 8.16447C17.3219 8.13447 17.2849 8.10147 17.2479 8.06647C17.0919 7.92647 16.9509 7.78047 16.8289 7.63247L16.7539 7.53847C16.7389 7.51847 16.7199 7.49247 16.6859 7.44047L16.5669 7.25947C16.5139 7.17647 16.4649 7.08947 16.4009 6.96047C16.3849 6.92947 16.3699 6.89947 16.3539 6.86147L16.1129 6.93547L16.3159 6.77547C16.2499 6.59447 16.1859 6.41447 16.1399 6.22947C16.1169 6.12847 16.0929 6.02447 16.0759 5.91847L15.9769 5.89347L16.0719 5.88347L16.0549 5.71847C16.0399 5.49847 16.0399 5.28547 16.0539 5.08147C16.0599 5.03347 16.0649 4.98447 16.0709 4.91947C16.0899 4.79947 16.1129 4.67947 16.1439 4.55847C16.1909 4.37047 16.2489 4.19147 16.3369 3.97747L16.5659 3.53747C16.6109 3.45847 16.6599 3.38447 16.7229 3.29747C16.7359 3.27647 16.7499 3.25747 16.7819 3.21547L16.5819 3.06647L16.8349 3.15047C16.9579 3.00247 17.0989 2.85647 17.2579 2.71347L17.4499 2.55047C17.5009 2.51247 17.5529 2.47347 17.6079 2.43747C17.7929 2.31447 17.9839 2.21447 18.1909 2.11147C18.2099 2.10547 18.2309 2.09647 18.2559 2.08747L18.3359 2.05647C18.4279 2.02347 18.5209 1.99147 18.6479 1.95647C18.7389 1.93247 18.8289 1.90847 18.9269 1.88947C18.9579 1.88247 18.9869 1.87647 19.0699 1.86547L19.1559 1.85347C19.3119 1.83747 19.4699 1.82847 19.6299 1.82847L19.7779 1.83147C19.8639 1.83447 19.9479 1.84147 20.0909 1.85647C20.1579 1.86647 20.2269 1.87847 20.2949 1.89447C20.5229 1.94247 20.7419 2.00647 20.9449 2.08447L21.1699 2.18447C21.2599 2.23047 21.3499 2.27747 21.4669 2.35047C21.5569 2.40547 21.6479 2.46047 21.7399 2.53147L21.8859 2.32847L21.7969 2.57447L21.8869 2.65047C22.0659 2.80347 22.2339 2.97347 22.3839 3.15447L22.4049 3.17947C22.4199 3.19847 22.4379 3.22047 22.4429 3.22647L22.5049 3.31347C22.5739 3.40947 22.6359 3.50847 22.6929 3.60847C22.7499 3.70747 22.8019 3.80547 22.8499 3.90247L22.8539 3.90047L22.9379 4.10747C23.0159 4.31547 23.0779 4.53547 23.1219 4.76447C23.1309 4.80647 23.1389 4.85047 23.1499 4.92247L23.1519 4.93947H23.1509C23.1549 4.99247 23.1579 4.99247 23.1579 4.99047C23.1579 5.13847 23.1619 5.27347 23.1679 5.40147C23.1679 5.51047 23.1619 5.62047 23.1539 5.73247L23.1439 5.84547C23.1399 5.87347 23.1349 5.91747 23.1339 5.93047C23.1019 6.12147 23.0519 6.32147 22.9859 6.53647C22.9569 6.62347 22.9239 6.71247 22.8749 6.83047L22.8139 6.96047C22.7279 7.13547 22.6189 7.31547 22.4389 7.57247L22.3859 7.63647C22.3189 7.71647 22.2499 7.79047 22.1799 7.86647C22.1129 7.93847 22.0399 8.00747 21.9509 8.08547C21.9359 8.10047 21.9189 8.11447 21.8799 8.14547L21.7999 8.21247C21.6499 8.32347 21.4929 8.42947 21.3269 8.52147C21.2459 8.56747 21.1659 8.60847 21.0709 8.65247L20.9989 8.68347C20.9509 8.70447 20.8989 8.72347 20.8499 8.74147C20.6699 8.80347 20.4849 8.85847 20.2939 8.89847C20.2519 8.90747 20.2099 8.91347 20.1339 8.92547L20.1079 9.03147L20.0969 8.93047C19.9899 8.94247 19.8849 8.95047 19.7719 8.95247L19.6299 8.95547C19.4659 8.95547 19.3019 8.94547 19.1509 8.93247C19.1099 8.92647 19.0569 8.92147 19.0579 8.92147C19.0579 8.92147 19.0579 8.92147 19.0599 8.92147C19.0379 8.91947 19.0149 8.91347 18.9729 8.90447Z" fill="#174860"/>
<path d="M27.5021 24.1509C27.5001 24.0229 27.498 23.8969 27.498 23.7719L27.5001 15.3959C27.4791 13.4459 25.875 11.8499 23.925 11.8369H15.5671C15.2801 11.8369 14.9461 11.8419 14.6011 11.9019C13.6261 12.0669 12.7261 12.6969 12.1931 13.5879C11.6961 14.4199 11.6971 15.3029 11.6971 16.1999L11.6961 23.5269C11.6961 23.9629 11.6951 24.3989 11.6971 24.8319C11.7061 26.6669 13.0981 28.2019 14.8981 28.3989V36.8979C14.8981 37.6569 15.1621 38.3289 15.6601 38.8399C16.1681 39.3659 16.8781 39.6449 17.7121 39.6449L21.3851 39.6479C21.6241 39.6479 21.9061 39.6409 22.1861 39.5869C23.2991 39.3699 24.1621 38.3909 24.2841 37.2059C24.3021 37.0409 24.3011 36.8749 24.2991 36.7099L24.2981 28.3749C24.8071 28.3199 25.2141 28.2039 25.5931 28.0069C26.4421 27.5689 27.1061 26.7479 27.3681 25.8129C27.5211 25.2719 27.5121 24.7019 27.5021 24.1509ZM25.0901 26.2789L25.0521 26.3109C24.9841 26.3619 24.9121 26.4089 24.8461 26.4469L24.7491 26.5029C24.7281 26.5139 24.659 26.5429 24.6461 26.5489C24.5641 26.5799 24.4801 26.6109 24.3891 26.6339L24.1931 26.6739C24.0461 26.6859 23.8971 26.6879 23.7491 26.6879L23.4411 26.6869C22.9711 26.6869 22.574 27.0849 22.574 27.5559V36.9809L22.4991 37.3459C22.4651 37.4159 22.4261 37.4819 22.404 37.5179L22.3501 37.5879C22.3171 37.6229 22.2871 37.6529 22.2311 37.7059L22.1061 37.7819C22.0661 37.8029 22.0261 37.8239 21.9891 37.8479C21.9251 37.8699 21.854 37.8889 21.793 37.9019C21.773 37.9019 21.72 37.9049 21.6191 37.9109H18.2951L17.4571 37.9049C17.3691 37.8839 17.2831 37.8629 17.2001 37.8339L16.9681 37.6869C16.9671 37.6859 16.9661 37.6839 16.9651 37.6829C16.9301 37.6519 16.8981 37.6209 16.8291 37.5459L16.7281 37.3739C16.7201 37.3529 16.7031 37.3129 16.6891 37.2839C16.6771 37.2519 16.6681 37.2189 16.6591 37.1739C16.6531 37.1509 16.6481 37.1269 16.6471 37.1269L16.6391 36.9699C16.6371 36.8519 16.6371 36.7349 16.6381 36.6159L16.6391 27.5519C16.6391 27.0819 16.2431 26.6849 15.7731 26.6849L15.3851 26.6879C15.2931 26.6879 15.2011 26.6869 15.0681 26.6769L14.9451 26.6609C14.8581 26.6429 14.7711 26.6199 14.6951 26.5939L14.5611 26.5469C14.4691 26.5009 14.3821 26.4549 14.3071 26.4079L14.1681 26.3149C14.1021 26.2629 14.0401 26.2079 13.9801 26.1469C13.9211 26.0869 13.8651 26.0249 13.8161 25.9649L13.7701 25.8959C13.7471 25.8609 13.7231 25.8269 13.7041 25.7939C13.6641 25.7249 13.6291 25.6549 13.5771 25.5469L13.3401 25.6259L13.5411 25.4489C13.5111 25.3509 13.4841 25.2539 13.4581 25.1319C13.4581 25.1239 13.4561 25.0859 13.4521 25.0439L13.4461 24.9619C13.4321 24.6109 13.4361 24.2599 13.4391 23.9079L13.4421 16.8579L13.4391 16.3499C13.4361 16.0149 13.4331 15.6769 13.4421 15.3369L13.4451 15.2669C13.4471 15.2329 13.4501 15.1979 13.4511 15.1559C13.4651 15.0759 13.4801 14.9979 13.4991 14.9209C13.5201 14.8369 13.5491 14.7549 13.5591 14.7159L13.6711 14.4979C13.7081 14.4329 13.7481 14.3729 13.7881 14.3119L13.8171 14.2669L13.8201 14.2689L13.8921 14.1849C13.9501 14.1189 14.0141 14.0559 14.0791 13.9969C14.0921 13.9849 14.1061 13.9739 14.1191 13.9619C14.1421 13.9469 14.1681 13.9289 14.1981 13.9069L14.2531 13.8679C14.3171 13.8239 14.3871 13.7849 14.4611 13.7469C14.4961 13.7279 14.5331 13.7109 14.5681 13.6959L14.5781 13.6919C14.6591 13.6649 14.7401 13.6379 14.8341 13.6129L15.0321 13.5689C15.1361 13.5609 15.2371 13.5569 15.3421 13.5569H23.9481C23.9781 13.5579 24.0061 13.5569 24.0311 13.5589L24.1731 13.5689C24.3361 13.5939 24.4951 13.6409 24.6581 13.6939L24.7901 13.7609C24.8791 13.8129 24.9651 13.8679 25.0521 13.9239L25.1621 14.0169C25.2171 14.0689 25.2711 14.1219 25.3231 14.1789L25.4061 14.2809C25.4651 14.3719 25.522 14.4599 25.5701 14.5449L25.64 14.6949C25.6671 14.7779 25.6941 14.8619 25.7191 14.9469C25.7391 15.0129 25.748 15.0769 25.755 15.1039C25.755 15.1159 25.7581 15.1539 25.7641 15.2199C25.7671 15.2869 25.7671 15.3419 25.7671 15.3959L25.7701 21.6209C25.7721 22.6959 25.7751 23.7699 25.7671 24.8579C25.7671 24.9109 25.767 24.9649 25.762 25.0459C25.759 25.0689 25.7571 25.0939 25.7571 25.0999C25.7411 25.1849 25.7241 25.2679 25.7021 25.3479C25.687 25.3979 25.673 25.4469 25.647 25.5179C25.6381 25.5389 25.6301 25.5609 25.6241 25.5819C25.5881 25.6549 25.5531 25.7269 25.5231 25.7779L25.4441 25.9039C25.4321 25.9189 25.3971 25.9659 25.3911 25.9749C25.3361 26.0369 25.2811 26.1039 25.2081 26.1729C25.1851 26.1999 25.1601 26.2209 25.0901 26.2789Z" fill="#174860"/>
</svg>
