<svg width="40" height="40" viewBox="0 0 40 40" fill="none" xmlns="http://www.w3.org/2000/svg">
<path d="M24.845 0.233398H15.157C14.656 0.233398 14.249 0.638398 14.249 1.1404V38.6754C14.249 39.1774 14.656 39.5854 15.157 39.5854H24.845C25.346 39.5854 25.751 39.1774 25.751 38.6754V1.1404C25.751 0.638398 25.346 0.233398 24.845 0.233398ZM16.065 37.7704V2.0484H23.935V5.6814H22.42C21.918 5.6814 21.514 6.0884 21.514 6.5894C21.514 7.0914 21.918 7.4984 22.42 7.4984H23.935V9.9194H20C19.499 9.9194 19.092 10.3244 19.092 10.8274C19.092 11.3284 19.499 11.7354 20 11.7354H23.936V14.1574H22.421C21.919 14.1574 21.515 14.5634 21.515 15.0654C21.515 15.5674 21.919 15.9734 22.421 15.9734H23.936V19.0004H20C19.499 19.0004 19.092 19.4064 19.092 19.9094C19.092 20.4104 19.499 20.8174 20 20.8174H23.936V23.8444H22.421C21.919 23.8444 21.515 24.2504 21.515 24.7514C21.515 25.2524 21.919 25.6604 22.421 25.6604H23.936V28.6874H20C19.499 28.6874 19.092 29.0924 19.092 29.5934C19.092 30.0954 19.499 30.5034 20 30.5034H23.936V32.9244H22.421C21.919 32.9244 21.515 33.3294 21.515 33.8324C21.515 34.3334 21.919 34.7404 22.421 34.7404H23.936V37.7684H16.065V37.7704Z" fill="#174860"/>
</svg>
