<svg width="40" height="40" viewBox="0 0 40 40" fill="none" xmlns="http://www.w3.org/2000/svg">
<path d="M36.6462 8.06598L20.3322 1.63398C20.1652 1.56798 20.0102 1.54198 19.7992 1.56698C19.7092 1.57998 19.6232 1.60398 19.5472 1.63498L3.23216 8.06498C2.81516 8.22598 2.54116 8.61898 2.53516 9.06998V31.362C2.54116 31.809 2.81516 32.202 3.23116 32.361L19.5472 38.793C19.6722 38.842 19.8032 38.867 19.9392 38.867C20.0742 38.867 20.2062 38.843 20.3332 38.793L36.6452 32.362C37.0622 32.202 37.3352 31.808 37.3402 31.358V9.06698C37.3352 8.61898 37.0622 8.22598 36.6462 8.06598ZM18.8502 16.247V36.194L4.70816 30.613V10.667L18.8502 16.247ZM33.2972 9.08298L19.9382 14.332L6.57916 9.08298L19.9382 3.80898L33.2972 9.08298ZM35.1672 10.667V30.614L21.0262 36.195V16.247L35.1672 10.667Z" fill="#174860"/>
</svg>
