<svg width="40" height="40" viewBox="0 0 40 40" fill="none" xmlns="http://www.w3.org/2000/svg">
<g clip-path="url(#clip0_268_1521)">
<mask id="mask0_268_1521" style="mask-type:luminance" maskUnits="userSpaceOnUse" x="2" y="0" width="36" height="40">
<path d="M2.90186 0.666992H37.1429V40H2.90186V0.666992Z" fill="white"/>
</mask>
<g mask="url(#mask0_268_1521)">
<path d="M30.7956 25.424C30.7576 25.424 30.7186 25.424 30.6826 25.428C30.1806 25.454 29.7596 25.809 29.6446 26.3C29.5346 26.789 29.7606 27.291 30.2006 27.533L32.1516 28.663C32.4096 28.821 32.7206 28.866 33.0126 28.791C33.3056 28.715 33.5566 28.526 33.7086 28.264C33.8606 28 33.9006 27.69 33.8186 27.399C33.7366 27.108 33.5436 26.86 33.2786 26.713L31.3276 25.585C31.1676 25.488 30.9826 25.433 30.7956 25.424ZM9.44062 25.381C9.39462 25.379 9.34762 25.381 9.30062 25.384C9.12362 25.398 8.95362 25.451 8.80162 25.543L6.86062 26.672C6.33462 26.988 6.16062 27.67 6.46762 28.201C6.77562 28.732 7.45262 28.918 7.98862 28.62L9.92962 27.492C10.3746 27.251 10.6036 26.743 10.4906 26.251C10.3766 25.757 9.94662 25.4 9.44062 25.381ZM24.8516 22.041C24.3496 22.065 23.9266 22.423 23.8126 22.911C23.7006 23.401 23.9266 23.906 24.3666 24.149L26.3156 25.276C26.5756 25.452 26.8946 25.51 27.1986 25.44C27.5036 25.37 27.7646 25.178 27.9206 24.907C28.0766 24.637 28.1136 24.313 28.0216 24.015C27.9296 23.717 27.7186 23.469 27.4376 23.333L25.4976 22.204C25.3366 22.105 25.1526 22.05 24.9656 22.04C24.9266 22.037 24.8896 22.037 24.8516 22.041ZM15.2516 21.998C15.0346 21.994 14.8206 22.051 14.6356 22.164L12.6956 23.282C12.1566 23.595 11.9716 24.285 12.2836 24.823C12.5956 25.364 13.2856 25.548 13.8236 25.235L15.7636 24.105V24.107C16.2096 23.861 16.4336 23.348 16.3136 22.857C16.1926 22.363 15.7576 22.013 15.2516 21.998ZM5.16762 13.009L18.9016 20.983V36.921L5.16762 28.951V13.009ZM34.8956 13.008V28.952L21.1536 36.925V20.986L34.8956 13.008ZM20.0156 12.116C19.9776 12.116 19.9386 12.118 19.8996 12.122C19.3226 12.189 18.8916 12.681 18.9016 13.26V15.509C18.9176 16.121 19.4176 16.607 20.0286 16.607C20.6386 16.607 21.1396 16.12 21.1526 15.508V13.26C21.1586 12.956 21.0416 12.663 20.8276 12.448C20.6126 12.232 20.3186 12.113 20.0156 12.116ZM20.0156 5.37499C19.3936 5.38299 18.8936 5.89199 18.9026 6.51299V8.76199C18.8956 9.06499 19.0116 9.35799 19.2226 9.57399C19.4356 9.78999 19.7256 9.91299 20.0296 9.91299C20.3326 9.91299 20.6226 9.78999 20.8356 9.57399C21.0456 9.35799 21.1606 9.06599 21.1536 8.76199V6.51299C21.1576 6.20999 21.0386 5.91899 20.8246 5.70499C20.6086 5.49099 20.3186 5.37199 20.0156 5.37499ZM20.0336 3.08599L33.7746 11.061L20.0336 19.036L6.28762 11.061L20.0336 3.08599ZM20.0606 0.666992C20.0236 0.666992 19.9866 0.666992 19.9496 0.669992C19.7806 0.682992 19.6156 0.732992 19.4676 0.818992L3.48062 10.09C3.13762 10.291 2.92562 10.66 2.92662 11.059H2.91762V29.407C2.83662 29.877 3.06362 30.349 3.48062 30.58L19.4656 39.848C19.8166 40.051 20.2466 40.051 20.5976 39.848L36.5796 30.58C36.9636 30.356 37.1816 29.93 37.1366 29.489V11.131C37.1606 10.707 36.9456 10.304 36.5796 10.09L20.5986 0.819992C20.4356 0.724992 20.2506 0.672992 20.0606 0.666992Z" fill="#174860"/>
</g>
</g>
<defs>
<clipPath id="clip0_268_1521">
<rect width="40" height="40" fill="white"/>
</clipPath>
</defs>
</svg>
