<svg width="40" height="40" viewBox="0 0 40 40" fill="none" xmlns="http://www.w3.org/2000/svg">
<g clip-path="url(#clip0_268_1529)">
<mask id="mask0_268_1529" style="mask-type:luminance" maskUnits="userSpaceOnUse" x="3" y="-1" width="34" height="41">
<path d="M3.72021 -0.0224609H36.3182V39.4185H3.72021V-0.0224609Z" fill="white"/>
</mask>
<g mask="url(#mask0_268_1529)">
<path d="M29.0982 32.0015C28.5612 31.9375 28.0692 32.3065 27.9862 32.8405L27.5772 35.9835L23.8282 31.0865C24.0082 31.1255 24.1912 31.1465 24.3752 31.1435C24.6072 31.1435 24.8382 31.1025 25.0592 31.0265C26.2692 30.6375 26.7932 29.3875 27.2642 28.2955C27.4442 27.7985 27.6882 27.3265 27.9872 26.8925L32.2212 32.4345L29.0982 32.0015ZM20.0212 27.4165C19.7832 27.4205 19.5452 27.4515 19.3162 27.5145C19.2972 27.5145 19.2972 27.5145 19.2772 27.5345C19.1962 27.5345 19.1142 27.5555 19.0422 27.5915C19.0232 27.5915 19.0032 27.6125 18.9642 27.6125C18.3842 27.8375 17.8272 28.1185 17.3032 28.4525C16.7172 28.8035 15.8972 29.2925 15.5842 29.1745C15.2142 29.0575 14.8422 28.1785 14.5692 27.5165C14.2742 26.6045 13.7432 25.7915 13.0272 25.1545C12.7932 24.9795 12.5292 24.8465 12.2482 24.7635C12.1442 24.7095 12.0312 24.6775 11.9152 24.6645C11.3772 24.5315 10.8292 24.4465 10.2762 24.4115C9.57421 24.3535 8.61722 24.2575 8.40222 23.9635C8.18821 23.6705 8.40221 22.7525 8.55821 22.0715L8.55721 22.0695C8.86121 21.1435 8.91421 20.1545 8.71421 19.1995C8.31921 18.3365 7.70821 17.5915 6.93921 17.0345C6.37321 16.5465 5.66921 15.9225 5.66921 15.5305C5.66921 15.1415 6.37321 14.5165 6.93921 14.0095C7.71122 13.4655 8.32521 12.7235 8.71421 11.8625C8.91521 10.9085 8.86121 9.92048 8.55721 8.99348C8.40221 8.30948 8.18721 7.39248 8.40222 7.09948C8.61622 6.80748 9.57321 6.70948 10.2752 6.65148C11.2422 6.65548 12.1932 6.39848 13.0262 5.90948C13.7432 5.27348 14.2742 4.45748 14.5682 3.54748C14.8412 2.88348 15.2122 2.00548 15.5832 1.88948C15.6132 1.87048 15.6472 1.86448 15.6812 1.86948C16.2622 2.01748 16.8092 2.26748 17.3022 2.61048C18.1012 3.18848 19.0372 3.54448 20.0202 3.64548C20.9992 3.54448 21.9362 3.18848 22.7352 2.61048C23.3182 2.25948 24.1382 1.79148 24.4512 1.88948C24.8212 2.00548 25.1922 2.88448 25.4672 3.54748C25.7622 4.45748 26.2932 5.27348 27.0082 5.90948C27.8432 6.39748 28.7922 6.65448 29.7612 6.65048C30.4632 6.70848 31.4202 6.80748 31.6342 7.09948C31.8492 7.39148 31.6342 8.30948 31.4772 8.99248C31.1742 9.91848 31.1212 10.9075 31.3232 11.8615C31.7122 12.7225 32.3262 13.4645 33.0982 14.0085C33.6632 14.5155 34.3672 15.1405 34.3672 15.5295C34.3672 15.9215 33.6642 16.5455 33.0982 17.0335C32.3292 17.5905 31.7172 18.3355 31.3232 19.1985C31.1212 20.1535 31.1752 21.1425 31.4772 22.0685C31.6342 22.7515 31.8492 23.6695 31.6342 23.9625C31.4202 24.2555 30.4632 24.3535 29.7612 24.4105C29.1602 24.4455 28.5662 24.5445 27.9852 24.7045C27.9662 24.7045 27.9452 24.7245 27.9242 24.7245C27.5952 24.8055 27.2842 24.9515 27.0082 25.1535C26.2932 25.7915 25.7612 26.6035 25.4672 27.5155C25.1932 28.1775 24.8212 29.0565 24.4512 29.1735C24.1392 29.2715 23.3182 28.8025 22.7332 28.4515H22.7352C22.2102 28.1175 21.6552 27.8375 21.0752 27.6125C21.0362 27.6125 21.0162 27.5915 20.9972 27.5915C20.9242 27.5565 20.8442 27.5335 20.7642 27.5335C20.7442 27.5135 20.7442 27.5135 20.7232 27.5135C20.4942 27.4515 20.2592 27.4205 20.0212 27.4165ZM12.4632 35.9825L12.0532 32.8395C11.9692 32.3055 11.4772 31.9365 10.9402 32.0005L7.81821 32.4315L12.0522 26.8895C12.3512 27.3245 12.5942 27.7955 12.7742 28.2925C13.2432 29.3875 13.7692 30.6355 14.9802 31.0235C15.3782 31.1505 15.8012 31.1725 16.2092 31.0845L12.4632 35.9825ZM30.0342 26.3625C31.2242 26.4225 32.3832 25.9665 33.2162 25.1135C33.7652 24.0315 33.8212 22.7645 33.3702 21.6375C33.1952 21.0435 33.1292 20.4225 33.1762 19.8035C33.4882 19.3025 33.8912 18.8655 34.3672 18.5165C35.4192 17.8505 36.1322 16.7605 36.3182 15.5285C36.1312 14.2985 35.4192 13.2085 34.3672 12.5435C33.8902 12.1935 33.4872 11.7565 33.1762 11.2545C33.1292 10.6355 33.1962 10.0155 33.3702 9.42048C33.8212 8.29348 33.7652 7.02848 33.2162 5.94648C32.3502 5.08248 31.1572 4.62748 29.9372 4.69748C29.3272 4.70348 28.7232 4.58348 28.1622 4.34548C27.7612 3.88248 27.4572 3.34548 27.2642 2.76448C26.7962 1.67048 26.2692 0.422478 25.0592 0.0314781C23.8762 -0.167522 22.6632 0.161478 21.7412 0.928478C21.2272 1.29648 20.6422 1.55448 20.0232 1.69048C19.4042 1.55548 18.8192 1.29648 18.3022 0.928478C17.3772 0.162478 16.1662 -0.164522 14.9822 0.0314781C13.7732 0.422478 13.2452 1.67148 12.7772 2.76448C12.5862 3.34548 12.2802 3.88248 11.8792 4.34548C11.3172 4.58348 10.7122 4.70248 10.1032 4.69748C8.88221 4.62748 7.68921 5.08148 6.82521 5.94648C6.27221 7.02948 6.21521 8.29448 6.66621 9.42148C6.84321 10.0165 6.90921 10.6375 6.86221 11.2555C6.55021 11.7565 6.14721 12.1935 5.67121 12.5445C4.61921 13.2095 3.90721 14.2985 3.72021 15.5295C3.90721 16.7615 4.61921 17.8515 5.67121 18.5175C6.14721 18.8665 6.55021 19.3035 6.86221 19.8045C6.90921 20.4235 6.84321 21.0445 6.66621 21.6385C6.21521 22.7655 6.27221 24.0325 6.82321 25.1145C7.65521 25.9685 8.81421 26.4235 10.0042 26.3635L4.83221 33.1145C4.60021 33.4325 4.58021 33.8595 4.77821 34.1965C4.97721 34.5355 5.35921 34.7225 5.74921 34.6755L10.2372 34.0715L10.8422 38.5805C10.9002 38.9675 11.1842 39.2825 11.5642 39.3795C11.6472 39.4015 11.7322 39.4155 11.8182 39.4195C12.1252 39.4185 12.4132 39.2735 12.5982 39.0295L19.9612 29.3885C19.9962 29.3615 20.0442 29.3615 20.0802 29.3885L27.4382 39.0295C27.6232 39.2725 27.9122 39.4185 28.2172 39.4195C28.3032 39.4155 28.3872 39.4015 28.4732 39.3795C28.8522 39.2825 29.1352 38.9675 29.1942 38.5805L29.7982 34.0715L34.2872 34.6755C34.6782 34.7225 35.0592 34.5345 35.2582 34.1965C35.4572 33.8595 35.4352 33.4325 35.2042 33.1145L30.0342 26.3625ZM24.1902 12.2275C24.6222 12.5505 24.7092 13.1625 24.3852 13.5945L19.3302 20.2525C19.1432 20.4985 18.8542 20.6435 18.5462 20.6435C18.2372 20.6405 17.9472 20.4925 17.7652 20.2435L15.6522 17.3535C15.3342 16.9185 15.4292 16.3065 15.8642 15.9875C16.3012 15.6705 16.9102 15.7665 17.2292 16.2015L18.5672 18.0325L22.8282 12.4155C23.1542 11.9885 23.7632 11.9055 24.1902 12.2275ZM20.0212 24.3115C17.6882 24.3115 15.4532 23.3865 13.8062 21.7395C12.1582 20.0935 11.2342 17.8595 11.2342 15.5295C11.2342 13.2005 12.1582 10.9665 13.8062 9.32048C15.4532 7.67348 17.6882 6.74748 20.0212 6.74748C22.3512 6.74748 24.5842 7.67348 26.2302 9.32048C27.8772 10.9665 28.8052 13.2005 28.8052 15.5295C28.8022 17.8585 27.8742 20.0915 26.2282 21.7375C24.5832 23.3855 22.3522 24.3095 20.0212 24.3115ZM30.7572 15.5295C30.7572 12.6845 29.6262 9.95348 27.6132 7.94048C25.6002 5.92648 22.8682 4.79548 20.0212 4.79548C17.1682 4.79548 14.4392 5.92648 12.4252 7.94048C10.4122 9.95348 9.28121 12.6845 9.28121 15.5295C9.28121 18.3785 10.4122 21.1075 12.4252 23.1195C14.4392 25.1325 17.1682 26.2655 20.0212 26.2655C22.8682 26.2615 25.5972 25.1295 27.6102 23.1175C29.6232 21.1055 30.7532 18.3755 30.7572 15.5295Z" fill="#174860"/>
</g>
</g>
<defs>
<clipPath id="clip0_268_1529">
<rect width="40" height="40" fill="white"/>
</clipPath>
</defs>
</svg>
