<svg width="40" height="40" viewBox="0 0 40 40" fill="none" xmlns="http://www.w3.org/2000/svg">
<path d="M38.988 15.5987C38.852 15.1777 38.486 14.8697 38.05 14.8067L26.299 13.0997L21.045 2.4527C20.653 1.6577 19.348 1.6577 18.956 2.4527L13.701 13.0997L1.95101 14.8067C1.51301 14.8697 1.14901 15.1777 1.01201 15.5987C0.875007 16.0197 0.990007 16.4827 1.30601 16.7907L9.80801 25.0777L7.80201 36.7807C7.72701 37.2187 7.90601 37.6617 8.26601 37.9197C8.62601 38.1837 9.09901 38.2147 9.49201 38.0097L20 32.4817L30.51 38.0087C30.681 38.0967 30.867 38.1437 31.052 38.1437C31.293 38.1437 31.533 38.0677 31.736 37.9187C32.094 37.6607 32.275 37.2177 32.2 36.7797L30.19 25.0777L38.695 16.7907C39.011 16.4827 39.125 16.0207 38.988 15.5987ZM28.128 23.8397C27.856 24.1077 27.73 24.4917 27.794 24.8707L29.507 34.8507L20.543 30.1377C20.373 30.0477 20.186 30.0027 20 30.0027C19.815 30.0027 19.627 30.0477 19.458 30.1377L10.494 34.8507L12.206 24.8707C12.27 24.4917 12.145 24.1067 11.872 23.8397L4.62101 16.7717L14.642 15.3147C15.019 15.2597 15.348 15.0217 15.517 14.6787L20 5.5977L24.483 14.6797C24.653 15.0227 24.98 15.2617 25.358 15.3157L35.381 16.7727L28.128 23.8397Z" fill="#174860"/>
</svg>
