<svg width="40" height="40" viewBox="0 0 40 40" fill="none" xmlns="http://www.w3.org/2000/svg">
<g clip-path="url(#clip0_268_1542)">
<path d="M32.928 13.791C32.928 6.62397 27.098 0.792969 19.934 0.792969C12.767 0.792969 6.93604 6.62597 6.93604 13.793C6.93604 18.044 8.99804 21.814 12.163 24.187L8.70203 33.679L14.119 31.788L16.858 36.737L19.694 28.956L23.718 40L26.458 35.05L31.873 36.942L27.326 24.467C30.706 22.116 32.928 18.21 32.928 13.791ZM8.84304 13.792C8.84304 7.67597 13.819 2.70097 19.934 2.70097C26.046 2.70097 31.022 7.67697 31.022 13.792C31.022 19.907 26.046 24.881 19.934 24.881C13.818 24.882 8.84304 19.907 8.84304 13.792ZM16.5 32.151L15.007 29.455L11.872 30.552L13.806 25.249C15.229 26.013 16.81 26.518 18.487 26.705L16.5 32.151ZM28.703 33.814L25.566 32.717L24.077 35.414L20.915 26.74C22.603 26.612 24.203 26.16 25.652 25.443L28.703 33.814Z" fill="#174860"/>
<path d="M24.6899 8.44238L19.0039 17.5084L15.0199 13.2734L13.6309 14.5804L19.3069 20.6154L26.3069 9.45638L24.6899 8.44238Z" fill="#174860"/>
</g>
<defs>
<clipPath id="clip0_268_1542">
<rect width="40" height="40" fill="white"/>
</clipPath>
</defs>
</svg>
