<svg width="39" height="29" viewBox="0 0 39 29" fill="none" xmlns="http://www.w3.org/2000/svg">
<mask id="mask0_268_1476" style="mask-type:luminance" maskUnits="userSpaceOnUse" x="0" y="0" width="39" height="29">
<path d="M0 0H39V28.583H0V0Z" fill="white"/>
</mask>
<g mask="url(#mask0_268_1476)">
<path d="M37.0156 26.321C37.0136 26.486 36.8774 26.62 36.7101 26.622H34.4884C34.3712 26.613 34.27 26.53 34.243 26.417C33.8934 25.342 33.2082 24.403 32.2856 23.74C31.3631 23.077 30.2502 22.721 29.1093 22.724H9.88473C8.7428 22.721 7.63091 23.077 6.70735 23.74C5.78479 24.403 5.09963 25.342 4.75104 26.417C4.72199 26.53 4.62282 26.613 4.50362 26.622H2.29488C2.21174 26.625 2.13161 26.594 2.07151 26.538C2.0114 26.481 1.97835 26.403 1.97735 26.321V18.147C1.97835 17.525 2.22276 16.927 2.65549 16.478C3.09023 16.027 3.68123 15.758 4.30929 15.728H34.6807C35.3098 15.758 35.9018 16.027 36.3355 16.478C36.7692 16.927 37.0126 17.525 37.0146 18.147L37.0156 26.321ZM9.64532 1.96202H29.3457C30.4085 1.96302 31.4252 2.38102 32.1765 3.12402C32.9277 3.86702 33.3514 4.87402 33.3534 5.92402V11.417C31.332 9.72402 28.6976 8.92802 26.0671 9.21602C23.4347 9.50502 21.0396 10.852 19.4459 12.942C17.8652 10.87 15.4992 9.52602 12.8938 9.22202C10.2884 8.91702 7.67098 9.67702 5.64656 11.327V5.92402C5.64555 4.87602 6.06627 3.87002 6.81453 3.12702C7.5628 2.38402 8.57952 1.96502 9.63931 1.96202H9.64532ZM5.94406 13.746C7.40453 12.079 9.52412 11.121 11.7539 11.121C13.9837 11.121 16.1033 12.079 17.5637 13.746H5.94406ZM21.3131 13.746C22.7725 12.079 24.8931 11.121 27.1229 11.121C29.3527 11.121 31.4743 12.079 32.9357 13.746H21.3131ZM35.4159 13.832C35.3869 13.784 35.3578 13.734 35.3288 13.686V5.92402C35.3268 4.35402 34.6947 2.84802 33.5728 1.73702C32.4499 0.626024 30.9273 0.00202344 29.3387 -0.000976562H9.63931C8.05363 0.00302344 6.53306 0.629024 5.41216 1.74002C4.29226 2.85102 3.6632 4.35602 3.6632 5.92402V13.491C3.58607 13.61 3.51295 13.741 3.43882 13.866C2.46217 14.091 1.59169 14.635 0.966636 15.411C0.341578 16.186 0.00200339 17.147 0 18.139V26.32C0.00300509 26.922 0.246417 27.498 0.677146 27.923C1.10787 28.347 1.69186 28.585 2.29989 28.583H4.50362C4.98143 28.58 5.44622 28.427 5.83087 28.144C6.21352 27.863 6.497 27.467 6.63823 27.015C6.85761 26.334 7.29034 25.742 7.87533 25.322C8.45932 24.902 9.16251 24.677 9.88473 24.679H29.1093C29.8305 24.676 30.5337 24.901 31.1167 25.32C31.7006 25.738 32.1354 26.332 32.3538 27.011C32.496 27.463 32.7775 27.859 33.1611 28.14C33.5458 28.423 34.0096 28.577 34.4884 28.579H36.7111C37.3182 28.579 37.9001 28.34 38.3289 27.916C38.7576 27.491 38.998 26.917 39 26.316V18.142C38.998 17.125 38.6404 16.139 37.9873 15.354C37.3332 14.567 36.4246 14.03 35.4159 13.832Z" fill="#174860"/>
</g>
</svg>
