<svg width="40" height="40" viewBox="0 0 40 40" fill="none" xmlns="http://www.w3.org/2000/svg">
<path d="M26.7431 3.482C26.2591 3.676 25.8721 4.064 25.6801 4.498L24.0351 9.674L22.1001 5.465L21.1321 6.142C14.5491 10.786 11.2111 19.25 12.5181 27.762L4.53609 37.822C4.19809 38.259 4.29509 38.836 4.68109 39.176C4.87409 39.322 5.06909 39.368 5.26309 39.368C5.55309 39.368 5.84309 39.225 6.03609 38.983L14.0161 28.921C24.1291 28.196 32.3521 20.749 34.0461 10.689L35.8361 0L26.7431 3.482ZM32.1591 10.447C30.7091 19.008 24.1291 25.44 15.7571 26.843L21.8591 19.201C22.1971 18.766 22.1001 18.186 21.7131 17.847C21.2761 17.508 20.6961 17.604 20.3591 17.993L14.2101 25.633C13.7281 18.911 16.3871 12.429 21.2761 8.464L24.3261 15.042L27.4681 5.272L33.4181 3.047L32.1591 10.447Z" fill="#174860"/>
</svg>
