<svg width="35" height="35" viewBox="0 0 35 35" fill="none" xmlns="http://www.w3.org/2000/svg">
<path d="M17.5 7.2915C19.1178 7.2915 20.4337 8.60742 20.4337 10.2253C20.4337 11.8374 19.1178 13.1533 17.5 13.1533C15.8822 13.1533 14.5662 11.8374 14.5662 10.2253C14.5662 8.60742 15.8822 7.2915 17.5 7.2915ZM17.5 17.5112C21.5218 17.5112 24.786 14.2471 24.786 10.2253C24.786 6.20345 21.5218 2.93359 17.5 2.93359C13.4782 2.93359 10.2083 6.20345 10.2083 10.2253C10.2083 14.2414 13.4782 17.5112 17.5 17.5112ZM20.3654 23.0825C21.8066 22.7578 23.1966 22.1882 24.4783 21.3792C25.4468 20.7697 25.7373 19.488 25.1278 18.5195C24.5182 17.5511 23.2365 17.2549 22.2681 17.8701C19.3628 19.693 15.6315 19.693 12.7319 17.8701C11.7578 17.2549 10.4761 17.5511 9.86653 18.5195C9.25699 19.488 9.54752 20.7697 10.5216 21.3792C11.7977 22.1882 13.1934 22.7578 14.6346 23.0825L10.6698 27.0474C9.86083 27.8563 9.86083 29.1722 10.6754 29.9811C11.0799 30.3856 11.6097 30.5907 12.1395 30.5907C12.6693 30.5907 13.2047 30.3856 13.6092 29.9811L17.5 26.0903L21.3965 29.9811C22.2054 30.79 23.5156 30.79 24.3302 29.9811C25.1392 29.1722 25.1392 27.8563 24.3302 27.0474L20.3654 23.0825Z" fill="white"/>
</svg>
