<svg width="50" height="25" viewBox="0 0 50 25" fill="none" xmlns="http://www.w3.org/2000/svg">
<g clip-path="url(#clip0_268_1417)">
<path d="M49.4623 15.7246C49.512 15.7841 49.5437 15.8566 49.5537 15.9336C49.5636 16.0105 49.5514 16.0887 49.5185 16.1589C49.4855 16.2292 49.4332 16.2885 49.3677 16.3301C49.3021 16.3716 49.2261 16.3936 49.1485 16.3934H38.681C38.6316 16.1468 38.5571 15.906 38.4585 15.6746L38.4273 15.6146L38.4773 15.5646C38.9122 15.1803 39.2613 14.7088 39.5021 14.1808C39.7428 13.6527 39.8698 13.0799 39.8748 12.4996C39.8748 11.3259 39.3798 10.2034 38.4998 9.42461L38.4498 9.37461L38.4798 9.31336C38.591 9.06086 38.6723 8.78836 38.7223 8.51461H49.1598C49.237 8.51494 49.3127 8.53695 49.378 8.57816C49.4434 8.61936 49.4959 8.67809 49.5295 8.74766C49.5631 8.81722 49.5765 8.89483 49.5681 8.97165C49.5598 9.04846 49.53 9.12138 49.4823 9.18211L46.9548 12.3271C46.9157 12.3759 46.8945 12.4365 46.8945 12.499C46.8945 12.5615 46.9157 12.6221 46.9548 12.6709L49.4623 15.7259V15.7246ZM11.0698 9.34586L11.1198 9.29586L11.091 9.23336C10.9926 9.00241 10.918 8.76199 10.8685 8.51586H0.412284C0.335038 8.5161 0.259451 8.5383 0.194335 8.57985C0.129218 8.62141 0.0772554 8.68062 0.0445027 8.75058C0.0117499 8.82054 -0.000443229 8.89837 0.00934447 8.97499C0.0191322 9.05162 0.0504975 9.12388 0.0997844 9.18336L2.61728 12.2484C2.65634 12.2971 2.67761 12.3578 2.67761 12.4202C2.67761 12.4827 2.65634 12.5433 2.61728 12.5921L0.0872844 15.7359C0.0394567 15.7967 0.00969607 15.8697 0.00140125 15.9466C-0.00689357 16.0236 0.00661187 16.1013 0.0403751 16.1709C0.0741384 16.2405 0.126798 16.2992 0.192341 16.3403C0.257883 16.3814 0.333666 16.4033 0.411034 16.4034H10.8485C10.8985 16.1296 10.9798 15.8671 11.091 15.6034L11.121 15.5434L11.071 15.4934C10.6355 15.1088 10.2874 14.6353 10.0503 14.1049C9.81309 13.5745 9.6923 12.9994 9.69603 12.4184C9.69 11.837 9.80975 11.2612 10.0471 10.7304C10.2844 10.1997 10.6337 9.72649 11.071 9.34336L11.0698 9.34586ZM36.9123 11.2559C37.6498 11.9134 37.6498 13.0759 36.9023 13.7334L36.416 14.1584C36.1553 14.3867 35.9732 14.6913 35.8953 15.0289C35.8174 15.3666 35.8479 15.7202 35.9823 16.0396L36.2348 16.6359C36.3259 16.8518 36.3698 17.0846 36.3635 17.3189C36.3572 17.5531 36.3009 17.7833 36.1984 17.994C36.0959 18.2047 35.9495 18.3911 35.7691 18.5406C35.5887 18.6901 35.3784 18.7993 35.1523 18.8609L34.526 19.0321C33.8385 19.2246 33.3523 19.8321 33.3223 20.5396L33.291 21.1871C33.2675 21.609 33.084 22.006 32.7778 22.2973C32.4717 22.5885 32.0661 22.7521 31.6435 22.7546C31.5423 22.7546 31.451 22.7446 31.3498 22.7246L30.7123 22.6121C30.6161 22.5922 30.5181 22.5821 30.4198 22.5821C29.8223 22.5821 29.266 22.9071 28.9735 23.4421L28.6598 24.0084C28.5483 24.2137 28.3943 24.3929 28.208 24.534C28.0218 24.6751 27.8076 24.7748 27.5797 24.8265C27.3518 24.8782 27.1156 24.8807 26.8866 24.8338C26.6577 24.7869 26.4415 24.6917 26.2523 24.5546L25.7273 24.1696C25.4464 23.9674 25.1094 23.8578 24.7633 23.856C24.4171 23.8542 24.079 23.9603 23.796 24.1596L23.2698 24.5346C22.976 24.7471 22.6423 24.8371 22.3085 24.8371C22.0096 24.839 21.7159 24.7591 21.4592 24.6059C21.2025 24.4528 20.9926 24.2323 20.8523 23.9684L20.5398 23.3921C20.3975 23.1295 20.187 22.91 19.9305 22.7569C19.674 22.6038 19.381 22.5227 19.0823 22.5221C18.991 22.5221 18.8898 22.5321 18.7998 22.5421L18.1623 22.6534C18.071 22.6734 17.9698 22.6734 17.8785 22.6734C17.454 22.6719 17.0463 22.5074 16.7396 22.2138C16.433 21.9201 16.2509 21.5199 16.231 21.0959L16.1998 20.4484C16.184 20.1025 16.0592 19.7705 15.8432 19.4999C15.6271 19.2294 15.3311 19.0341 14.9973 18.9421L14.3698 18.7596C14.1444 18.6955 13.9351 18.5843 13.7559 18.4333C13.5766 18.2823 13.4315 18.095 13.3301 17.8837C13.2288 17.6724 13.1734 17.442 13.1677 17.2077C13.1621 16.9734 13.2062 16.7406 13.2973 16.5246L13.551 15.9284C13.6865 15.6098 13.7183 15.2568 13.642 14.9192C13.5657 14.5816 13.3852 14.2765 13.126 14.0471L12.641 13.6121C12.4653 13.4568 12.3248 13.2657 12.2288 13.0517C12.1329 12.8377 12.0837 12.6056 12.0847 12.3711C12.0856 12.1366 12.1367 11.9049 12.2343 11.6917C12.332 11.4784 12.4741 11.2885 12.651 11.1346L13.136 10.7096C13.3969 10.4815 13.5794 10.1769 13.6575 9.83926C13.7355 9.50158 13.7053 9.14789 13.571 8.82836L13.3185 8.23211C13.2274 8.0163 13.1835 7.78351 13.1897 7.54934C13.1959 7.31517 13.252 7.08503 13.3544 6.87434C13.4568 6.66364 13.6031 6.47727 13.7833 6.3277C13.9636 6.17813 14.1738 6.06883 14.3998 6.00711L15.0273 5.83461C15.7148 5.64336 16.1998 5.03586 16.231 4.32836L16.261 3.68086C16.2846 3.25876 16.4683 2.86156 16.7747 2.57027C17.0811 2.27899 17.487 2.11557 17.9098 2.11336C18.0098 2.11336 18.101 2.12336 18.2023 2.14336L18.8398 2.25586C19.1801 2.31788 19.5313 2.27121 19.8436 2.12246C20.1559 1.97371 20.4135 1.73043 20.5798 1.42711L20.8923 0.859611C21.004 0.6533 21.1585 0.473242 21.3454 0.331502C21.5323 0.189763 21.7474 0.0896156 21.9762 0.0377716C22.205 -0.0140725 22.4423 -0.0164159 22.672 0.0308984C22.9018 0.0782126 23.1188 0.174092 23.3085 0.312111L23.8335 0.695861C24.1145 0.898063 24.4514 1.00768 24.7976 1.00948C25.1437 1.01127 25.4818 0.905143 25.7648 0.705861L26.2923 0.332111C26.5717 0.130985 26.9081 0.0245436 27.2523 0.0283607C27.8398 0.0283607 28.406 0.332111 28.7085 0.898361L29.0223 1.47461C29.316 2.01086 29.8723 2.34461 30.4785 2.34461C30.5698 2.34461 30.671 2.33461 30.7623 2.32461L31.3998 2.21211C31.4898 2.19336 31.591 2.19336 31.6823 2.19336C32.5423 2.19336 33.2898 2.87086 33.331 3.77086L33.361 4.41836C33.391 5.12586 33.8773 5.73211 34.5648 5.92461L35.1923 6.10711C35.4176 6.17132 35.6267 6.28264 35.8058 6.43371C35.9849 6.58477 36.1299 6.77214 36.2311 6.98341C36.3324 7.19469 36.3876 7.42506 36.3932 7.65928C36.3988 7.89351 36.3546 8.12625 36.2635 8.34211L36.001 8.93836C35.8656 9.25689 35.8338 9.60993 35.91 9.94755C35.9863 10.2852 36.1668 10.5902 36.426 10.8196L36.911 11.2546L36.9123 11.2559ZM30.4698 11.9234C30.4698 11.9234 31.016 11.0734 30.3073 10.4259C29.4285 9.61711 27.0323 10.1534 27.0323 10.1534C26.8698 10.1834 26.6873 10.2134 26.4948 10.2646C26.4948 10.2646 25.666 10.6484 26.4948 8.13961C27.3248 5.63211 25.9398 5.24836 25.3623 5.24836C24.7873 5.24836 24.9785 6.49211 24.9785 6.49211C24.9785 6.49211 23.7348 9.91086 22.551 10.8209C22.2385 11.1546 22.066 11.5284 21.976 11.7921C21.7855 11.6257 21.5403 11.5354 21.2873 11.5384H19.6898C19.408 11.5384 19.1377 11.6503 18.9385 11.8496C18.7392 12.0488 18.6273 12.3191 18.6273 12.6009V16.8484C18.6273 17.4359 19.1023 17.9109 19.6898 17.9109H21.2873C21.4969 17.9094 21.7013 17.8459 21.8748 17.7284C21.9148 17.6984 22.116 17.4759 22.116 16.8884V14.2496C22.116 14.2496 22.106 17.5159 23.9573 17.7184C24.7109 17.7746 25.4666 17.798 26.2223 17.7884C26.9598 17.8496 27.7398 17.8496 28.366 17.7184C30.4798 17.2734 29.9435 15.7959 29.9435 15.7959C31.0873 14.9371 30.4398 13.8746 30.4398 13.8746C31.471 12.8121 30.4698 11.9234 30.4698 11.9234Z" fill="#57BD62"/>
</g>
<defs>
<clipPath id="clip0_268_1417">
<rect width="50" height="25" fill="white"/>
</clipPath>
</defs>
</svg>
