<svg width="35" height="35" viewBox="0 0 35 35" fill="none" xmlns="http://www.w3.org/2000/svg">
<path d="M27.7083 4.375H7.29167C5.68021 4.375 4.375 5.68021 4.375 7.29167V27.7083C4.375 29.3198 5.68021 30.625 7.29167 30.625H27.7083C29.3198 30.625 30.625 29.3198 30.625 27.7083V7.29167C30.625 5.68021 29.3198 4.375 27.7083 4.375ZM26.1144 22.8725L23.5842 22.9075C23.5842 22.9075 23.0387 23.014 22.3242 22.521C21.3777 21.8706 20.4852 20.179 19.7896 20.3992C19.0837 20.6238 19.1056 22.1462 19.1056 22.1462C19.1056 22.1462 19.1115 22.4146 18.9496 22.5896C18.7746 22.7777 18.4319 22.7588 18.4319 22.7588H17.2988C17.2988 22.7588 14.7992 22.9658 12.5956 20.669C10.1952 18.165 8.07479 13.2227 8.07479 13.2227C8.07479 13.2227 7.95083 12.9106 8.08354 12.7517C8.23375 12.5752 8.63917 12.5708 8.63917 12.5708L11.3473 12.5577C11.3473 12.5577 11.6025 12.6029 11.7863 12.7371C11.9365 12.8479 12.0225 13.0565 12.0225 13.0565C12.0225 13.0565 12.46 14.1663 13.0404 15.171C14.1721 17.1296 14.6985 17.5583 15.0821 17.3483C15.6421 17.0421 15.4744 14.5804 15.4744 14.5804C15.4744 14.5804 15.4846 13.6865 15.1929 13.2883C14.9654 12.9777 14.5381 12.8858 14.35 12.8625C14.1969 12.8421 14.4462 12.4877 14.7715 12.3273C15.2585 12.0896 16.1204 12.075 17.1369 12.0852C17.9288 12.094 18.1577 12.1421 18.4669 12.2179C19.4017 12.444 19.0838 13.316 19.0838 15.4088C19.0838 16.0796 18.9627 17.0217 19.4454 17.3323C19.654 17.4665 20.1615 17.3527 21.4288 15.1944C22.031 14.1706 22.4817 12.9675 22.4817 12.9675C22.4817 12.9675 22.5808 12.7531 22.734 12.6613C22.8915 12.5665 23.1029 12.5956 23.1029 12.5956L25.954 12.5781C25.954 12.5781 26.81 12.4746 26.95 12.864C27.0958 13.2708 26.6306 14.2202 25.4654 15.7733C23.5535 18.3254 23.3406 18.0877 24.9288 19.5635C26.4454 20.9738 26.759 21.6592 26.8115 21.7452C27.4385 22.7894 26.1144 22.8725 26.1144 22.8725Z" fill="white"/>
</svg>
