<svg width="35" height="35" viewBox="0 0 35 35" fill="none" xmlns="http://www.w3.org/2000/svg">
<path d="M8.28288 2.9165L10.439 10.7095V14.4465H12.3075V10.7095L14.4922 2.9165H12.6095L11.8262 6.46265C11.606 7.49806 11.4659 8.23397 11.4018 8.67293H11.3448C11.2529 8.05897 11.1129 7.31757 10.9204 6.4484L10.1656 2.9165H8.28288ZM16.6711 5.85881C16.0382 5.85881 15.5281 5.98249 15.1388 6.23478C14.7494 6.48562 14.4623 6.88698 14.2786 7.43677C14.0963 7.98656 14.0051 8.71434 14.0051 9.62142V10.8462C14.0051 11.7431 14.084 12.4613 14.2444 13.0024C14.4048 13.5434 14.6755 13.942 15.0562 14.1986C15.4368 14.4553 15.9605 14.5832 16.6284 14.5832C17.2788 14.5832 17.7959 14.4566 18.175 14.2043C18.5542 13.9521 18.829 13.5563 18.9982 13.0109C19.1674 12.4655 19.2517 11.7445 19.2517 10.8462V9.62142C19.2517 8.71579 19.1661 7.99073 18.9925 7.44531C18.819 6.90135 18.5428 6.49999 18.1665 6.24333C17.7903 5.98666 17.2939 5.85881 16.6711 5.85881ZM20.2401 6.02401V12.3159C20.2401 13.0947 20.3706 13.6674 20.636 14.0334C20.9014 14.3995 21.3136 14.5832 21.8722 14.5832C22.6772 14.5832 23.284 14.1941 23.6865 13.4154H23.7264L23.8916 14.4465H25.3756V6.02401H23.4814V12.7147C23.4085 12.8707 23.297 12.9986 23.1453 13.0992C22.9937 13.2013 22.8373 13.2502 22.6725 13.2502C22.48 13.2502 22.3426 13.1713 22.2595 13.0109C22.1764 12.8505 22.1342 12.5811 22.1342 12.2048V6.02401H20.2401ZM16.6284 7.16333C16.8938 7.16333 17.0817 7.30203 17.1867 7.58203C17.2917 7.86057 17.3433 8.30413 17.3433 8.90934V11.5326C17.3433 12.1553 17.2917 12.6057 17.1867 12.8799C17.0817 13.154 16.8952 13.2914 16.6313 13.2929C16.3658 13.2929 16.1822 13.154 16.0815 12.8799C15.9795 12.6057 15.9306 12.1553 15.9306 11.5326V8.90934C15.9306 8.30559 15.9822 7.86203 16.0872 7.58203C16.1922 7.30349 16.3718 7.16333 16.6284 7.16333ZM7.29167 16.0415C5.6875 16.0415 4.375 17.354 4.375 18.9582V29.1665C4.375 30.7707 5.6875 32.0832 7.29167 32.0832H27.7083C29.3125 32.0832 30.625 30.7707 30.625 29.1665V18.9582C30.625 17.354 29.3125 16.0415 27.7083 16.0415H7.29167ZM17.5712 18.9582H19.1121V22.7037H19.1235C19.2621 22.4324 19.4608 22.2148 19.716 22.0486C19.9712 21.8823 20.2474 21.8008 20.542 21.8008C20.9212 21.8008 21.2177 21.9015 21.4335 22.1027C21.6493 22.304 21.8072 22.6291 21.9035 23.0768C21.9997 23.526 22.0459 24.1491 22.0459 24.9453V26.0704H22.0487C22.0487 27.1306 21.9194 27.9073 21.6642 28.406C21.409 28.9048 21.0118 29.1551 20.4708 29.1551C20.1689 29.1551 19.8955 29.0857 19.6476 28.9472C19.3997 28.8086 19.2133 28.6181 19.0894 28.3775H19.0552L18.8928 29.0497H17.5712V18.9582ZM8.0009 19.3171H12.7433V20.6073H11.154V29.0497H9.59025V20.6073H8.0009V19.3171ZM24.9341 21.8036C25.4824 21.8036 25.9041 21.9043 26.1987 22.1055C26.4919 22.3068 26.6986 22.6211 26.8197 23.0455C26.9392 23.4713 26.9991 24.059 26.9991 24.8086V26.0277H24.3217V26.3894C24.3217 26.8459 24.3339 27.1873 24.3616 27.4148C24.3893 27.6423 24.445 27.8097 24.5296 27.9132C24.6142 28.0182 24.7448 28.0699 24.9227 28.0699C25.1619 28.0699 25.3265 27.976 25.4154 27.7908C25.5044 27.6056 25.5534 27.2982 25.5607 26.8651L26.9421 26.9448C26.9494 27.0061 26.9535 27.0933 26.9535 27.2012C26.9535 27.8589 26.7726 28.35 26.4124 28.6737C26.0521 28.999 25.5462 29.1608 24.8885 29.1608C24.0996 29.1608 23.5459 28.9118 23.2279 28.4174C22.91 27.923 22.7523 27.1585 22.7523 26.1217V24.8798C22.7523 23.8123 22.9169 23.0328 23.245 22.5413C23.5732 22.0499 24.1378 21.8036 24.9341 21.8036ZM12.2648 21.9403H13.8684V27.1613C13.8684 27.4778 13.9038 27.705 13.9738 27.8392C14.0438 27.9748 14.158 28.0414 14.3213 28.0414C14.4598 28.0414 14.596 27.9993 14.7229 27.9132C14.8512 27.8287 14.9422 27.7198 15.0049 27.5885V21.9403H16.6085V29.0497H16.6056H15.3524L15.2157 28.1781H15.1786C14.8374 28.8373 14.3273 29.1665 13.6462 29.1665C13.1737 29.1665 12.8283 29.0114 12.6038 28.7022C12.3792 28.3931 12.2648 27.9087 12.2648 27.2524V21.9403ZM24.8999 22.886C24.7293 22.886 24.6027 22.9378 24.5211 23.0369C24.4394 23.1376 24.385 23.3022 24.3587 23.5297C24.331 23.7572 24.3188 24.1027 24.3188 24.5665V25.0763H25.4895V24.5665C25.4895 24.11 25.4746 23.766 25.4439 23.5297C25.4148 23.2935 25.3575 23.1275 25.2759 23.0312C25.1942 22.935 25.0705 22.886 24.8999 22.886ZM19.8214 22.9373C19.6668 22.9373 19.5254 22.9984 19.3941 23.1224C19.2629 23.2464 19.1689 23.4056 19.115 23.5981V27.6341C19.185 27.7581 19.2761 27.8505 19.3884 27.9132C19.5007 27.9745 19.6203 28.0072 19.753 28.0072C19.9236 28.0072 20.0568 27.9461 20.1575 27.8221C20.2581 27.6981 20.3317 27.4901 20.3739 27.1955C20.4162 26.9023 20.4366 26.4941 20.4366 25.9764V25.0621C20.4366 24.505 20.4203 24.0765 20.3853 23.7747C20.3503 23.4728 20.2877 23.255 20.2002 23.1281C20.1112 23.0012 19.9847 22.9373 19.8214 22.9373Z" fill="white"/>
</svg>
